; NON-PLATED HOLES START AT T1
; THROUGH (PLATED) HOLES START AT T100
M48
INCH
T1C0.086614
T100C0.040000
T101C0.038000
T102C0.036000
T103C0.033944
%
T1
X000944Y010866
X026444Y010866
X000944Y000866
T100
X023944Y006366
X023944Y002366
X023944Y003366
X023944Y007366
X023944Y005366
X023944Y004366
X023944Y008366
T101
X010444Y009866
X014453Y000874
X012444Y008866
X010453Y000874
X012453Y002874
X017453Y000874
X012453Y000874
X017444Y005366
X026444Y001866
X008444Y004366
X016444Y010866
X013444Y008866
X007453Y005374
X013453Y000874
X011453Y000874
X007453Y004374
X009453Y000874
X013444Y010866
X002453Y003374
X009453Y002874
X008453Y000874
X016444Y009866
X017444Y009866
X018453Y000874
X013444Y009866
X012444Y010866
X003453Y003374
X016444Y008866
X004944Y006866
X013453Y002874
X008444Y005366
X015444Y009866
X018453Y004374
X011444Y009866
X011444Y008866
X006444Y002866
X010444Y008866
X018453Y005374
X013453Y005374
X010444Y010866
X019453Y000874
X007453Y000874
X011444Y010866
X015453Y000874
X017444Y004366
X012444Y009866
X026444Y002866
X016453Y000874
X009453Y005374
T102
X021444Y003864
X020488Y007868
X012488Y007868
X011488Y001868
X021444Y004866
X010488Y001868
X013488Y007868
X012488Y001868
X014488Y007868
X015488Y007868
X016488Y007868
X008488Y007868
X007488Y007868
X009488Y001868
X010488Y007868
X014488Y001868
X021444Y005866
X008488Y001868
X020444Y005866
X016488Y001868
X013488Y001868
X020444Y003864
X006488Y007868
X019488Y007868
X019488Y001868
X018488Y001868
X017488Y001868
X015488Y001868
X020488Y001868
X007488Y001868
X011488Y007868
X020444Y004866
X006488Y001868
X017488Y007868
X009488Y007868
X018488Y007868
T103
X003444Y004366
X003444Y006366
X002444Y007366
X002444Y005366
X003444Y007366
X002444Y006366
X003444Y005366
X002444Y004366
T00
M30
