G04 MADE WITH FRITZING*
G04 WWW.FRITZING.ORG*
G04 DOUBLE SIDED*
G04 HOLES PLATED*
G04 CONTOUR ON CENTER OF CONTOUR VECTOR*
%ASAXBY*%
%FSLAX23Y23*%
%MOIN*%
%OFA0B0*%
%SFA1.0B1.0*%
%ADD10C,0.088000*%
%ADD11C,0.096614*%
%ADD12C,0.080000*%
%ADD13C,0.077278*%
%ADD14C,0.084000*%
%ADD15R,0.080000X0.079958*%
%ADD16R,0.088000X0.088000*%
%LNMASK0*%
G90*
G70*
G54D10*
X1744Y987D03*
X1245Y287D03*
X945Y537D03*
X1345Y287D03*
X945Y287D03*
X1345Y537D03*
X644Y287D03*
X494Y687D03*
X1544Y987D03*
X745Y87D03*
X845Y87D03*
X945Y87D03*
X1045Y87D03*
X1145Y87D03*
X1245Y87D03*
X1345Y87D03*
X1445Y87D03*
X1545Y87D03*
X1645Y87D03*
X1745Y87D03*
X1845Y87D03*
X1945Y87D03*
X745Y87D03*
X845Y87D03*
X945Y87D03*
X1045Y87D03*
X1145Y87D03*
X1245Y87D03*
X1345Y87D03*
X1445Y87D03*
X1545Y87D03*
X1645Y87D03*
X1745Y87D03*
X1845Y87D03*
X1945Y87D03*
X2644Y287D03*
X2644Y187D03*
X2644Y287D03*
X2644Y187D03*
G54D11*
X94Y1087D03*
X2644Y1087D03*
X94Y87D03*
G54D12*
X2049Y787D03*
X1949Y787D03*
X1849Y787D03*
X1749Y787D03*
X1649Y787D03*
X1549Y787D03*
X1449Y787D03*
X1349Y787D03*
X1249Y787D03*
X1149Y787D03*
X1049Y787D03*
X949Y787D03*
X849Y787D03*
X749Y787D03*
X649Y787D03*
X2049Y187D03*
X1949Y187D03*
X1849Y187D03*
X1749Y187D03*
X1649Y187D03*
X1549Y187D03*
X1449Y187D03*
X1349Y187D03*
X1249Y187D03*
X1149Y187D03*
X1049Y187D03*
X949Y187D03*
X849Y187D03*
X749Y187D03*
X649Y187D03*
X2144Y587D03*
X2044Y587D03*
X2144Y487D03*
X2044Y487D03*
X2144Y386D03*
X2044Y386D03*
G54D13*
X244Y437D03*
X244Y537D03*
X244Y637D03*
X244Y737D03*
X344Y437D03*
X344Y537D03*
X344Y637D03*
X344Y737D03*
G54D10*
X1845Y537D03*
X1845Y437D03*
X1744Y537D03*
X1744Y437D03*
X745Y537D03*
X745Y437D03*
X345Y337D03*
X245Y337D03*
X844Y537D03*
X844Y437D03*
X1044Y1087D03*
X1044Y987D03*
X1044Y887D03*
X1144Y1087D03*
X1144Y987D03*
X1144Y887D03*
X1244Y1087D03*
X1244Y987D03*
X1244Y887D03*
X1344Y1087D03*
X1344Y987D03*
X1344Y887D03*
X1644Y1087D03*
X1644Y987D03*
X1644Y887D03*
G54D14*
X2394Y237D03*
X2394Y337D03*
X2394Y437D03*
X2394Y537D03*
X2394Y637D03*
X2394Y737D03*
X2394Y837D03*
G54D15*
X2049Y787D03*
G54D16*
X1845Y537D03*
X1744Y537D03*
X745Y537D03*
X345Y337D03*
X844Y537D03*
X1044Y1087D03*
X1144Y1087D03*
X1244Y1087D03*
X1344Y1087D03*
X1644Y1087D03*
G04 End of Mask0*
M02*