G04 MADE WITH FRITZING*
G04 WWW.FRITZING.ORG*
G04 DOUBLE SIDED*
G04 HOLES PLATED*
G04 CONTOUR ON CENTER OF CONTOUR VECTOR*
%ASAXBY*%
%FSLAX23Y23*%
%MOIN*%
%OFA0B0*%
%SFA1.0B1.0*%
%ADD10C,0.078000*%
%ADD11C,0.070000*%
%ADD12C,0.067278*%
%ADD13C,0.074000*%
%ADD14R,0.070000X0.069958*%
%ADD15R,0.078000X0.078000*%
%ADD16C,0.024000*%
%ADD17R,0.001000X0.001000*%
%LNCOPPER1*%
G90*
G70*
G54D10*
X1744Y987D03*
X644Y287D03*
X494Y687D03*
X1544Y987D03*
X745Y87D03*
X845Y87D03*
X945Y87D03*
X1045Y87D03*
X1145Y87D03*
X1245Y87D03*
X1345Y87D03*
X1445Y87D03*
X1545Y87D03*
X1645Y87D03*
X1745Y87D03*
X1845Y87D03*
X1945Y87D03*
X745Y87D03*
X845Y87D03*
X945Y87D03*
X1045Y87D03*
X1145Y87D03*
X1245Y87D03*
X1345Y87D03*
X1445Y87D03*
X1545Y87D03*
X1645Y87D03*
X1745Y87D03*
X1845Y87D03*
X1945Y87D03*
X2644Y287D03*
X2644Y187D03*
X2644Y287D03*
X2644Y187D03*
G54D11*
X2049Y787D03*
X1949Y787D03*
X1849Y787D03*
X1749Y787D03*
X1649Y787D03*
X1549Y787D03*
X1449Y787D03*
X1349Y787D03*
X1249Y787D03*
X1149Y787D03*
X1049Y787D03*
X949Y787D03*
X849Y787D03*
X749Y787D03*
X649Y787D03*
X2049Y187D03*
X1949Y187D03*
X1849Y187D03*
X1749Y187D03*
X1649Y187D03*
X1549Y187D03*
X1449Y187D03*
X1349Y187D03*
X1249Y187D03*
X1149Y187D03*
X1049Y187D03*
X949Y187D03*
X849Y187D03*
X749Y187D03*
X649Y187D03*
X2144Y587D03*
X2044Y587D03*
X2144Y487D03*
X2044Y487D03*
X2144Y386D03*
X2044Y386D03*
G54D12*
X244Y437D03*
X244Y537D03*
X244Y637D03*
X244Y737D03*
X344Y437D03*
X344Y537D03*
X344Y637D03*
X344Y737D03*
G54D10*
X1845Y537D03*
X1845Y437D03*
X1744Y537D03*
X1744Y437D03*
X745Y537D03*
X745Y437D03*
X345Y337D03*
X245Y337D03*
X844Y537D03*
X844Y437D03*
X1044Y1087D03*
X1044Y987D03*
X1044Y887D03*
X1144Y1087D03*
X1144Y987D03*
X1144Y887D03*
X1244Y1087D03*
X1244Y987D03*
X1244Y887D03*
X1344Y1087D03*
X1344Y987D03*
X1344Y887D03*
X1644Y1087D03*
X1644Y987D03*
X1644Y887D03*
G54D13*
X2394Y237D03*
X2394Y337D03*
X2394Y437D03*
X2394Y537D03*
X2394Y637D03*
X2394Y737D03*
X2394Y837D03*
X2394Y237D03*
X2394Y337D03*
X2394Y437D03*
X2394Y537D03*
X2394Y637D03*
X2394Y737D03*
X2394Y837D03*
G54D10*
X945Y287D03*
X1345Y537D03*
X1345Y287D03*
X1245Y287D03*
X945Y537D03*
G54D14*
X2049Y787D03*
G54D15*
X1845Y537D03*
X1744Y537D03*
X745Y537D03*
X345Y337D03*
X844Y537D03*
X1044Y1087D03*
X1144Y1087D03*
X1244Y1087D03*
X1344Y1087D03*
X1644Y1087D03*
G54D16*
X645Y686D02*
X644Y317D01*
D02*
X525Y686D02*
X645Y686D01*
D02*
X746Y118D02*
X748Y158D01*
D02*
X846Y118D02*
X848Y158D01*
D02*
X946Y118D02*
X948Y158D01*
D02*
X1046Y118D02*
X1048Y158D01*
D02*
X1146Y118D02*
X1148Y158D01*
D02*
X1246Y118D02*
X1248Y158D01*
D02*
X1346Y118D02*
X1348Y158D01*
D02*
X1446Y118D02*
X1448Y158D01*
D02*
X1546Y118D02*
X1548Y158D01*
D02*
X1646Y118D02*
X1648Y158D01*
D02*
X1746Y118D02*
X1748Y158D01*
D02*
X1846Y118D02*
X1848Y158D01*
D02*
X1946Y118D02*
X1948Y158D01*
G54D17*
X428Y1031D02*
X433Y1031D01*
X504Y1031D02*
X553Y1031D01*
X612Y1031D02*
X633Y1031D01*
X650Y1031D02*
X656Y1031D01*
X693Y1031D02*
X698Y1031D01*
X721Y1031D02*
X726Y1031D01*
X749Y1031D02*
X754Y1031D01*
X792Y1031D02*
X829Y1031D01*
X427Y1030D02*
X435Y1030D01*
X502Y1030D02*
X555Y1030D01*
X610Y1030D02*
X636Y1030D01*
X649Y1030D02*
X657Y1030D01*
X692Y1030D02*
X700Y1030D01*
X720Y1030D02*
X728Y1030D01*
X747Y1030D02*
X756Y1030D01*
X790Y1030D02*
X831Y1030D01*
X426Y1029D02*
X436Y1029D01*
X501Y1029D02*
X556Y1029D01*
X608Y1029D02*
X638Y1029D01*
X648Y1029D02*
X658Y1029D01*
X691Y1029D02*
X701Y1029D01*
X719Y1029D02*
X729Y1029D01*
X747Y1029D02*
X757Y1029D01*
X790Y1029D02*
X833Y1029D01*
X425Y1028D02*
X436Y1028D01*
X499Y1028D02*
X557Y1028D01*
X606Y1028D02*
X639Y1028D01*
X647Y1028D02*
X658Y1028D01*
X690Y1028D02*
X701Y1028D01*
X718Y1028D02*
X729Y1028D01*
X746Y1028D02*
X757Y1028D01*
X789Y1028D02*
X835Y1028D01*
X425Y1027D02*
X437Y1027D01*
X498Y1027D02*
X558Y1027D01*
X605Y1027D02*
X641Y1027D01*
X647Y1027D02*
X659Y1027D01*
X690Y1027D02*
X702Y1027D01*
X718Y1027D02*
X730Y1027D01*
X746Y1027D02*
X758Y1027D01*
X789Y1027D02*
X836Y1027D01*
X424Y1026D02*
X437Y1026D01*
X498Y1026D02*
X559Y1026D01*
X604Y1026D02*
X642Y1026D01*
X647Y1026D02*
X659Y1026D01*
X690Y1026D02*
X702Y1026D01*
X717Y1026D02*
X730Y1026D01*
X745Y1026D02*
X758Y1026D01*
X788Y1026D02*
X837Y1026D01*
X424Y1025D02*
X437Y1025D01*
X497Y1025D02*
X560Y1025D01*
X603Y1025D02*
X643Y1025D01*
X646Y1025D02*
X659Y1025D01*
X690Y1025D02*
X702Y1025D01*
X717Y1025D02*
X730Y1025D01*
X745Y1025D02*
X758Y1025D01*
X788Y1025D02*
X838Y1025D01*
X424Y1024D02*
X437Y1024D01*
X496Y1024D02*
X560Y1024D01*
X601Y1024D02*
X644Y1024D01*
X646Y1024D02*
X659Y1024D01*
X690Y1024D02*
X702Y1024D01*
X717Y1024D02*
X730Y1024D01*
X745Y1024D02*
X758Y1024D01*
X788Y1024D02*
X839Y1024D01*
X424Y1023D02*
X437Y1023D01*
X496Y1023D02*
X561Y1023D01*
X600Y1023D02*
X659Y1023D01*
X690Y1023D02*
X702Y1023D01*
X717Y1023D02*
X730Y1023D01*
X745Y1023D02*
X758Y1023D01*
X789Y1023D02*
X841Y1023D01*
X424Y1022D02*
X437Y1022D01*
X496Y1022D02*
X561Y1022D01*
X599Y1022D02*
X659Y1022D01*
X690Y1022D02*
X702Y1022D01*
X717Y1022D02*
X730Y1022D01*
X745Y1022D02*
X758Y1022D01*
X789Y1022D02*
X842Y1022D01*
X424Y1021D02*
X437Y1021D01*
X495Y1021D02*
X561Y1021D01*
X598Y1021D02*
X659Y1021D01*
X690Y1021D02*
X702Y1021D01*
X717Y1021D02*
X730Y1021D01*
X745Y1021D02*
X758Y1021D01*
X790Y1021D02*
X843Y1021D01*
X424Y1020D02*
X437Y1020D01*
X495Y1020D02*
X561Y1020D01*
X597Y1020D02*
X659Y1020D01*
X690Y1020D02*
X702Y1020D01*
X717Y1020D02*
X730Y1020D01*
X745Y1020D02*
X758Y1020D01*
X791Y1020D02*
X844Y1020D01*
X424Y1019D02*
X437Y1019D01*
X495Y1019D02*
X561Y1019D01*
X597Y1019D02*
X659Y1019D01*
X690Y1019D02*
X702Y1019D01*
X717Y1019D02*
X730Y1019D01*
X745Y1019D02*
X758Y1019D01*
X792Y1019D02*
X845Y1019D01*
X424Y1018D02*
X437Y1018D01*
X495Y1018D02*
X508Y1018D01*
X549Y1018D02*
X561Y1018D01*
X596Y1018D02*
X615Y1018D01*
X630Y1018D02*
X659Y1018D01*
X690Y1018D02*
X702Y1018D01*
X717Y1018D02*
X730Y1018D01*
X745Y1018D02*
X758Y1018D01*
X825Y1018D02*
X846Y1018D01*
X424Y1017D02*
X437Y1017D01*
X495Y1017D02*
X508Y1017D01*
X549Y1017D02*
X561Y1017D01*
X595Y1017D02*
X613Y1017D01*
X632Y1017D02*
X659Y1017D01*
X690Y1017D02*
X702Y1017D01*
X717Y1017D02*
X730Y1017D01*
X745Y1017D02*
X758Y1017D01*
X827Y1017D02*
X847Y1017D01*
X424Y1016D02*
X437Y1016D01*
X495Y1016D02*
X508Y1016D01*
X549Y1016D02*
X561Y1016D01*
X595Y1016D02*
X612Y1016D01*
X633Y1016D02*
X659Y1016D01*
X690Y1016D02*
X703Y1016D01*
X717Y1016D02*
X730Y1016D01*
X745Y1016D02*
X758Y1016D01*
X829Y1016D02*
X848Y1016D01*
X424Y1015D02*
X437Y1015D01*
X495Y1015D02*
X508Y1015D01*
X549Y1015D02*
X561Y1015D01*
X594Y1015D02*
X611Y1015D01*
X634Y1015D02*
X659Y1015D01*
X690Y1015D02*
X703Y1015D01*
X717Y1015D02*
X730Y1015D01*
X745Y1015D02*
X758Y1015D01*
X830Y1015D02*
X849Y1015D01*
X424Y1014D02*
X437Y1014D01*
X495Y1014D02*
X508Y1014D01*
X549Y1014D02*
X561Y1014D01*
X594Y1014D02*
X610Y1014D01*
X636Y1014D02*
X659Y1014D01*
X690Y1014D02*
X703Y1014D01*
X717Y1014D02*
X730Y1014D01*
X745Y1014D02*
X758Y1014D01*
X831Y1014D02*
X850Y1014D01*
X424Y1013D02*
X437Y1013D01*
X495Y1013D02*
X508Y1013D01*
X549Y1013D02*
X561Y1013D01*
X593Y1013D02*
X608Y1013D01*
X637Y1013D02*
X659Y1013D01*
X690Y1013D02*
X703Y1013D01*
X717Y1013D02*
X730Y1013D01*
X745Y1013D02*
X758Y1013D01*
X832Y1013D02*
X851Y1013D01*
X424Y1012D02*
X437Y1012D01*
X495Y1012D02*
X508Y1012D01*
X549Y1012D02*
X561Y1012D01*
X593Y1012D02*
X607Y1012D01*
X638Y1012D02*
X659Y1012D01*
X690Y1012D02*
X703Y1012D01*
X717Y1012D02*
X730Y1012D01*
X745Y1012D02*
X758Y1012D01*
X833Y1012D02*
X852Y1012D01*
X424Y1011D02*
X437Y1011D01*
X495Y1011D02*
X508Y1011D01*
X549Y1011D02*
X561Y1011D01*
X593Y1011D02*
X607Y1011D01*
X639Y1011D02*
X659Y1011D01*
X690Y1011D02*
X703Y1011D01*
X717Y1011D02*
X730Y1011D01*
X745Y1011D02*
X758Y1011D01*
X835Y1011D02*
X852Y1011D01*
X424Y1010D02*
X437Y1010D01*
X495Y1010D02*
X508Y1010D01*
X549Y1010D02*
X561Y1010D01*
X593Y1010D02*
X606Y1010D01*
X640Y1010D02*
X659Y1010D01*
X690Y1010D02*
X703Y1010D01*
X717Y1010D02*
X730Y1010D01*
X745Y1010D02*
X758Y1010D01*
X836Y1010D02*
X853Y1010D01*
X424Y1009D02*
X437Y1009D01*
X495Y1009D02*
X508Y1009D01*
X549Y1009D02*
X561Y1009D01*
X593Y1009D02*
X606Y1009D01*
X641Y1009D02*
X659Y1009D01*
X690Y1009D02*
X703Y1009D01*
X717Y1009D02*
X730Y1009D01*
X745Y1009D02*
X758Y1009D01*
X837Y1009D02*
X853Y1009D01*
X424Y1008D02*
X437Y1008D01*
X495Y1008D02*
X508Y1008D01*
X549Y1008D02*
X561Y1008D01*
X593Y1008D02*
X606Y1008D01*
X643Y1008D02*
X659Y1008D01*
X690Y1008D02*
X703Y1008D01*
X717Y1008D02*
X730Y1008D01*
X745Y1008D02*
X758Y1008D01*
X838Y1008D02*
X854Y1008D01*
X424Y1007D02*
X437Y1007D01*
X495Y1007D02*
X508Y1007D01*
X549Y1007D02*
X561Y1007D01*
X593Y1007D02*
X605Y1007D01*
X644Y1007D02*
X659Y1007D01*
X690Y1007D02*
X703Y1007D01*
X717Y1007D02*
X730Y1007D01*
X745Y1007D02*
X758Y1007D01*
X839Y1007D02*
X854Y1007D01*
X424Y1006D02*
X437Y1006D01*
X495Y1006D02*
X508Y1006D01*
X549Y1006D02*
X561Y1006D01*
X593Y1006D02*
X605Y1006D01*
X645Y1006D02*
X659Y1006D01*
X690Y1006D02*
X703Y1006D01*
X717Y1006D02*
X730Y1006D01*
X745Y1006D02*
X758Y1006D01*
X840Y1006D02*
X854Y1006D01*
X424Y1005D02*
X437Y1005D01*
X495Y1005D02*
X508Y1005D01*
X549Y1005D02*
X561Y1005D01*
X593Y1005D02*
X605Y1005D01*
X646Y1005D02*
X659Y1005D01*
X690Y1005D02*
X703Y1005D01*
X717Y1005D02*
X730Y1005D01*
X745Y1005D02*
X758Y1005D01*
X841Y1005D02*
X854Y1005D01*
X424Y1004D02*
X437Y1004D01*
X495Y1004D02*
X508Y1004D01*
X549Y1004D02*
X561Y1004D01*
X593Y1004D02*
X605Y1004D01*
X646Y1004D02*
X659Y1004D01*
X690Y1004D02*
X703Y1004D01*
X717Y1004D02*
X730Y1004D01*
X745Y1004D02*
X758Y1004D01*
X841Y1004D02*
X854Y1004D01*
X424Y1003D02*
X437Y1003D01*
X495Y1003D02*
X508Y1003D01*
X549Y1003D02*
X561Y1003D01*
X593Y1003D02*
X605Y1003D01*
X646Y1003D02*
X659Y1003D01*
X690Y1003D02*
X703Y1003D01*
X717Y1003D02*
X730Y1003D01*
X745Y1003D02*
X758Y1003D01*
X842Y1003D02*
X854Y1003D01*
X424Y1002D02*
X437Y1002D01*
X495Y1002D02*
X508Y1002D01*
X549Y1002D02*
X561Y1002D01*
X593Y1002D02*
X605Y1002D01*
X646Y1002D02*
X659Y1002D01*
X690Y1002D02*
X703Y1002D01*
X717Y1002D02*
X730Y1002D01*
X745Y1002D02*
X758Y1002D01*
X842Y1002D02*
X855Y1002D01*
X424Y1001D02*
X437Y1001D01*
X495Y1001D02*
X508Y1001D01*
X549Y1001D02*
X561Y1001D01*
X593Y1001D02*
X605Y1001D01*
X646Y1001D02*
X659Y1001D01*
X690Y1001D02*
X703Y1001D01*
X717Y1001D02*
X730Y1001D01*
X745Y1001D02*
X758Y1001D01*
X842Y1001D02*
X855Y1001D01*
X424Y1000D02*
X437Y1000D01*
X495Y1000D02*
X508Y1000D01*
X549Y1000D02*
X561Y1000D01*
X593Y1000D02*
X605Y1000D01*
X646Y1000D02*
X659Y1000D01*
X690Y1000D02*
X703Y1000D01*
X717Y1000D02*
X730Y1000D01*
X745Y1000D02*
X758Y1000D01*
X842Y1000D02*
X855Y1000D01*
X424Y999D02*
X437Y999D01*
X495Y999D02*
X508Y999D01*
X549Y999D02*
X561Y999D01*
X593Y999D02*
X605Y999D01*
X646Y999D02*
X659Y999D01*
X691Y999D02*
X703Y999D01*
X717Y999D02*
X730Y999D01*
X745Y999D02*
X758Y999D01*
X842Y999D02*
X855Y999D01*
X424Y998D02*
X437Y998D01*
X495Y998D02*
X508Y998D01*
X549Y998D02*
X561Y998D01*
X593Y998D02*
X605Y998D01*
X646Y998D02*
X659Y998D01*
X691Y998D02*
X703Y998D01*
X717Y998D02*
X730Y998D01*
X745Y998D02*
X758Y998D01*
X842Y998D02*
X855Y998D01*
X424Y997D02*
X437Y997D01*
X495Y997D02*
X508Y997D01*
X549Y997D02*
X561Y997D01*
X593Y997D02*
X605Y997D01*
X646Y997D02*
X659Y997D01*
X691Y997D02*
X703Y997D01*
X717Y997D02*
X730Y997D01*
X745Y997D02*
X758Y997D01*
X842Y997D02*
X855Y997D01*
X424Y996D02*
X437Y996D01*
X495Y996D02*
X508Y996D01*
X549Y996D02*
X561Y996D01*
X593Y996D02*
X605Y996D01*
X646Y996D02*
X659Y996D01*
X691Y996D02*
X703Y996D01*
X717Y996D02*
X730Y996D01*
X745Y996D02*
X758Y996D01*
X842Y996D02*
X855Y996D01*
X424Y995D02*
X437Y995D01*
X495Y995D02*
X508Y995D01*
X549Y995D02*
X561Y995D01*
X593Y995D02*
X605Y995D01*
X646Y995D02*
X659Y995D01*
X691Y995D02*
X703Y995D01*
X717Y995D02*
X730Y995D01*
X745Y995D02*
X758Y995D01*
X842Y995D02*
X855Y995D01*
X424Y994D02*
X437Y994D01*
X495Y994D02*
X508Y994D01*
X549Y994D02*
X561Y994D01*
X593Y994D02*
X605Y994D01*
X646Y994D02*
X659Y994D01*
X691Y994D02*
X703Y994D01*
X717Y994D02*
X730Y994D01*
X745Y994D02*
X758Y994D01*
X842Y994D02*
X855Y994D01*
X423Y993D02*
X437Y993D01*
X495Y993D02*
X508Y993D01*
X549Y993D02*
X561Y993D01*
X593Y993D02*
X605Y993D01*
X646Y993D02*
X659Y993D01*
X691Y993D02*
X703Y993D01*
X717Y993D02*
X730Y993D01*
X745Y993D02*
X758Y993D01*
X842Y993D02*
X855Y993D01*
X422Y992D02*
X437Y992D01*
X495Y992D02*
X508Y992D01*
X549Y992D02*
X561Y992D01*
X593Y992D02*
X605Y992D01*
X646Y992D02*
X659Y992D01*
X691Y992D02*
X703Y992D01*
X717Y992D02*
X730Y992D01*
X745Y992D02*
X758Y992D01*
X842Y992D02*
X855Y992D01*
X421Y991D02*
X437Y991D01*
X495Y991D02*
X508Y991D01*
X549Y991D02*
X561Y991D01*
X593Y991D02*
X605Y991D01*
X646Y991D02*
X659Y991D01*
X691Y991D02*
X703Y991D01*
X717Y991D02*
X730Y991D01*
X745Y991D02*
X758Y991D01*
X842Y991D02*
X855Y991D01*
X420Y990D02*
X437Y990D01*
X495Y990D02*
X508Y990D01*
X549Y990D02*
X561Y990D01*
X593Y990D02*
X605Y990D01*
X646Y990D02*
X659Y990D01*
X691Y990D02*
X703Y990D01*
X717Y990D02*
X730Y990D01*
X745Y990D02*
X758Y990D01*
X842Y990D02*
X855Y990D01*
X419Y989D02*
X437Y989D01*
X495Y989D02*
X508Y989D01*
X549Y989D02*
X561Y989D01*
X593Y989D02*
X605Y989D01*
X646Y989D02*
X659Y989D01*
X691Y989D02*
X703Y989D01*
X717Y989D02*
X730Y989D01*
X745Y989D02*
X758Y989D01*
X842Y989D02*
X855Y989D01*
X418Y988D02*
X436Y988D01*
X495Y988D02*
X508Y988D01*
X549Y988D02*
X561Y988D01*
X593Y988D02*
X605Y988D01*
X646Y988D02*
X659Y988D01*
X691Y988D02*
X704Y988D01*
X717Y988D02*
X730Y988D01*
X745Y988D02*
X758Y988D01*
X842Y988D02*
X855Y988D01*
X416Y987D02*
X436Y987D01*
X495Y987D02*
X508Y987D01*
X549Y987D02*
X561Y987D01*
X593Y987D02*
X605Y987D01*
X646Y987D02*
X659Y987D01*
X691Y987D02*
X704Y987D01*
X717Y987D02*
X730Y987D01*
X745Y987D02*
X758Y987D01*
X842Y987D02*
X855Y987D01*
X415Y986D02*
X435Y986D01*
X495Y986D02*
X508Y986D01*
X548Y986D02*
X561Y986D01*
X593Y986D02*
X605Y986D01*
X646Y986D02*
X659Y986D01*
X691Y986D02*
X704Y986D01*
X717Y986D02*
X730Y986D01*
X745Y986D02*
X758Y986D01*
X842Y986D02*
X855Y986D01*
X414Y985D02*
X434Y985D01*
X495Y985D02*
X561Y985D01*
X593Y985D02*
X605Y985D01*
X646Y985D02*
X659Y985D01*
X691Y985D02*
X704Y985D01*
X717Y985D02*
X730Y985D01*
X745Y985D02*
X758Y985D01*
X842Y985D02*
X855Y985D01*
X413Y984D02*
X433Y984D01*
X495Y984D02*
X561Y984D01*
X593Y984D02*
X605Y984D01*
X646Y984D02*
X659Y984D01*
X691Y984D02*
X704Y984D01*
X717Y984D02*
X730Y984D01*
X745Y984D02*
X758Y984D01*
X842Y984D02*
X854Y984D01*
X412Y983D02*
X432Y983D01*
X495Y983D02*
X561Y983D01*
X593Y983D02*
X605Y983D01*
X646Y983D02*
X659Y983D01*
X691Y983D02*
X704Y983D01*
X717Y983D02*
X730Y983D01*
X745Y983D02*
X758Y983D01*
X841Y983D02*
X854Y983D01*
X410Y982D02*
X430Y982D01*
X496Y982D02*
X561Y982D01*
X593Y982D02*
X605Y982D01*
X646Y982D02*
X659Y982D01*
X691Y982D02*
X704Y982D01*
X717Y982D02*
X730Y982D01*
X745Y982D02*
X758Y982D01*
X841Y982D02*
X854Y982D01*
X409Y981D02*
X429Y981D01*
X496Y981D02*
X560Y981D01*
X593Y981D02*
X605Y981D01*
X645Y981D02*
X659Y981D01*
X691Y981D02*
X704Y981D01*
X717Y981D02*
X730Y981D01*
X745Y981D02*
X758Y981D01*
X840Y981D02*
X854Y981D01*
X408Y980D02*
X428Y980D01*
X497Y980D02*
X560Y980D01*
X593Y980D02*
X605Y980D01*
X644Y980D02*
X659Y980D01*
X691Y980D02*
X704Y980D01*
X717Y980D02*
X730Y980D01*
X745Y980D02*
X758Y980D01*
X839Y980D02*
X854Y980D01*
X407Y979D02*
X427Y979D01*
X497Y979D02*
X559Y979D01*
X593Y979D02*
X606Y979D01*
X643Y979D02*
X659Y979D01*
X691Y979D02*
X704Y979D01*
X717Y979D02*
X730Y979D01*
X745Y979D02*
X758Y979D01*
X838Y979D02*
X854Y979D01*
X406Y978D02*
X426Y978D01*
X498Y978D02*
X559Y978D01*
X593Y978D02*
X606Y978D01*
X641Y978D02*
X659Y978D01*
X691Y978D02*
X704Y978D01*
X717Y978D02*
X730Y978D01*
X745Y978D02*
X758Y978D01*
X837Y978D02*
X853Y978D01*
X405Y977D02*
X425Y977D01*
X499Y977D02*
X558Y977D01*
X593Y977D02*
X606Y977D01*
X640Y977D02*
X659Y977D01*
X691Y977D02*
X704Y977D01*
X717Y977D02*
X730Y977D01*
X745Y977D02*
X758Y977D01*
X836Y977D02*
X853Y977D01*
X403Y976D02*
X423Y976D01*
X500Y976D02*
X557Y976D01*
X593Y976D02*
X607Y976D01*
X639Y976D02*
X659Y976D01*
X691Y976D02*
X704Y976D01*
X717Y976D02*
X730Y976D01*
X743Y976D02*
X758Y976D01*
X834Y976D02*
X852Y976D01*
X402Y975D02*
X422Y975D01*
X501Y975D02*
X556Y975D01*
X593Y975D02*
X607Y975D01*
X638Y975D02*
X659Y975D01*
X691Y975D02*
X704Y975D01*
X716Y975D02*
X730Y975D01*
X742Y975D02*
X758Y975D01*
X833Y975D02*
X852Y975D01*
X401Y974D02*
X421Y974D01*
X502Y974D02*
X554Y974D01*
X594Y974D02*
X608Y974D01*
X637Y974D02*
X659Y974D01*
X691Y974D02*
X704Y974D01*
X714Y974D02*
X730Y974D01*
X741Y974D02*
X758Y974D01*
X832Y974D02*
X851Y974D01*
X400Y973D02*
X420Y973D01*
X505Y973D02*
X552Y973D01*
X594Y973D02*
X610Y973D01*
X636Y973D02*
X659Y973D01*
X692Y973D02*
X704Y973D01*
X713Y973D02*
X730Y973D01*
X740Y973D02*
X758Y973D01*
X831Y973D02*
X850Y973D01*
X399Y972D02*
X419Y972D01*
X509Y972D02*
X521Y972D01*
X535Y972D02*
X548Y972D01*
X594Y972D02*
X611Y972D01*
X634Y972D02*
X659Y972D01*
X692Y972D02*
X704Y972D01*
X712Y972D02*
X730Y972D01*
X739Y972D02*
X758Y972D01*
X830Y972D02*
X849Y972D01*
X398Y971D02*
X418Y971D01*
X509Y971D02*
X521Y971D01*
X535Y971D02*
X548Y971D01*
X595Y971D02*
X612Y971D01*
X633Y971D02*
X659Y971D01*
X692Y971D02*
X704Y971D01*
X711Y971D02*
X730Y971D01*
X738Y971D02*
X758Y971D01*
X829Y971D02*
X848Y971D01*
X398Y970D02*
X416Y970D01*
X509Y970D02*
X521Y970D01*
X535Y970D02*
X548Y970D01*
X595Y970D02*
X613Y970D01*
X632Y970D02*
X659Y970D01*
X692Y970D02*
X704Y970D01*
X710Y970D02*
X730Y970D01*
X737Y970D02*
X758Y970D01*
X827Y970D02*
X847Y970D01*
X398Y969D02*
X415Y969D01*
X509Y969D02*
X521Y969D01*
X535Y969D02*
X548Y969D01*
X596Y969D02*
X616Y969D01*
X630Y969D02*
X659Y969D01*
X692Y969D02*
X705Y969D01*
X708Y969D02*
X732Y969D01*
X735Y969D02*
X758Y969D01*
X825Y969D02*
X846Y969D01*
X397Y968D02*
X414Y968D01*
X509Y968D02*
X521Y968D01*
X535Y968D02*
X548Y968D01*
X596Y968D02*
X659Y968D01*
X692Y968D02*
X758Y968D01*
X792Y968D02*
X845Y968D01*
X397Y967D02*
X413Y967D01*
X509Y967D02*
X521Y967D01*
X535Y967D02*
X548Y967D01*
X597Y967D02*
X659Y967D01*
X692Y967D02*
X758Y967D01*
X790Y967D02*
X844Y967D01*
X397Y966D02*
X412Y966D01*
X509Y966D02*
X521Y966D01*
X535Y966D02*
X548Y966D01*
X598Y966D02*
X659Y966D01*
X693Y966D02*
X758Y966D01*
X790Y966D02*
X843Y966D01*
X397Y965D02*
X411Y965D01*
X509Y965D02*
X521Y965D01*
X535Y965D02*
X548Y965D01*
X599Y965D02*
X659Y965D01*
X693Y965D02*
X758Y965D01*
X789Y965D02*
X842Y965D01*
X397Y964D02*
X410Y964D01*
X509Y964D02*
X521Y964D01*
X535Y964D02*
X548Y964D01*
X600Y964D02*
X659Y964D01*
X693Y964D02*
X758Y964D01*
X789Y964D02*
X841Y964D01*
X397Y963D02*
X410Y963D01*
X509Y963D02*
X521Y963D01*
X535Y963D02*
X548Y963D01*
X601Y963D02*
X659Y963D01*
X694Y963D02*
X758Y963D01*
X788Y963D02*
X840Y963D01*
X397Y962D02*
X410Y962D01*
X509Y962D02*
X521Y962D01*
X535Y962D02*
X548Y962D01*
X603Y962D02*
X643Y962D01*
X646Y962D02*
X659Y962D01*
X695Y962D02*
X758Y962D01*
X788Y962D02*
X839Y962D01*
X397Y961D02*
X410Y961D01*
X509Y961D02*
X521Y961D01*
X535Y961D02*
X548Y961D01*
X604Y961D02*
X642Y961D01*
X646Y961D02*
X659Y961D01*
X696Y961D02*
X719Y961D01*
X721Y961D02*
X758Y961D01*
X788Y961D02*
X838Y961D01*
X397Y960D02*
X410Y960D01*
X509Y960D02*
X521Y960D01*
X535Y960D02*
X548Y960D01*
X605Y960D02*
X641Y960D01*
X646Y960D02*
X659Y960D01*
X697Y960D02*
X718Y960D01*
X722Y960D02*
X758Y960D01*
X789Y960D02*
X836Y960D01*
X397Y959D02*
X410Y959D01*
X509Y959D02*
X521Y959D01*
X535Y959D02*
X548Y959D01*
X606Y959D02*
X639Y959D01*
X646Y959D02*
X659Y959D01*
X698Y959D02*
X717Y959D01*
X723Y959D02*
X743Y959D01*
X746Y959D02*
X757Y959D01*
X789Y959D02*
X835Y959D01*
X397Y958D02*
X410Y958D01*
X509Y958D02*
X521Y958D01*
X535Y958D02*
X548Y958D01*
X608Y958D02*
X637Y958D01*
X646Y958D02*
X659Y958D01*
X699Y958D02*
X715Y958D01*
X725Y958D02*
X742Y958D01*
X747Y958D02*
X757Y958D01*
X790Y958D02*
X833Y958D01*
X397Y957D02*
X410Y957D01*
X509Y957D02*
X521Y957D01*
X535Y957D02*
X548Y957D01*
X610Y957D02*
X636Y957D01*
X646Y957D02*
X659Y957D01*
X701Y957D02*
X713Y957D01*
X726Y957D02*
X740Y957D01*
X748Y957D02*
X756Y957D01*
X790Y957D02*
X831Y957D01*
X397Y956D02*
X410Y956D01*
X509Y956D02*
X521Y956D01*
X535Y956D02*
X548Y956D01*
X612Y956D02*
X633Y956D01*
X646Y956D02*
X659Y956D01*
X704Y956D02*
X711Y956D01*
X729Y956D02*
X738Y956D01*
X749Y956D02*
X754Y956D01*
X792Y956D02*
X828Y956D01*
X397Y955D02*
X410Y955D01*
X509Y955D02*
X521Y955D01*
X535Y955D02*
X548Y955D01*
X646Y955D02*
X659Y955D01*
X397Y954D02*
X410Y954D01*
X509Y954D02*
X521Y954D01*
X535Y954D02*
X548Y954D01*
X646Y954D02*
X659Y954D01*
X397Y953D02*
X410Y953D01*
X509Y953D02*
X521Y953D01*
X535Y953D02*
X548Y953D01*
X646Y953D02*
X659Y953D01*
X397Y952D02*
X410Y952D01*
X509Y952D02*
X521Y952D01*
X535Y952D02*
X548Y952D01*
X646Y952D02*
X659Y952D01*
X397Y951D02*
X410Y951D01*
X509Y951D02*
X521Y951D01*
X535Y951D02*
X548Y951D01*
X646Y951D02*
X659Y951D01*
X397Y950D02*
X410Y950D01*
X509Y950D02*
X521Y950D01*
X535Y950D02*
X548Y950D01*
X646Y950D02*
X659Y950D01*
X397Y949D02*
X410Y949D01*
X509Y949D02*
X521Y949D01*
X535Y949D02*
X548Y949D01*
X646Y949D02*
X659Y949D01*
X397Y948D02*
X410Y948D01*
X509Y948D02*
X521Y948D01*
X535Y948D02*
X548Y948D01*
X646Y948D02*
X659Y948D01*
X397Y947D02*
X410Y947D01*
X509Y947D02*
X521Y947D01*
X535Y947D02*
X548Y947D01*
X646Y947D02*
X659Y947D01*
X397Y946D02*
X410Y946D01*
X509Y946D02*
X521Y946D01*
X535Y946D02*
X548Y946D01*
X646Y946D02*
X659Y946D01*
X397Y945D02*
X410Y945D01*
X455Y945D02*
X460Y945D01*
X509Y945D02*
X521Y945D01*
X535Y945D02*
X548Y945D01*
X646Y945D02*
X659Y945D01*
X397Y944D02*
X410Y944D01*
X453Y944D02*
X461Y944D01*
X509Y944D02*
X521Y944D01*
X535Y944D02*
X548Y944D01*
X646Y944D02*
X659Y944D01*
X397Y943D02*
X410Y943D01*
X453Y943D02*
X462Y943D01*
X509Y943D02*
X521Y943D01*
X535Y943D02*
X548Y943D01*
X646Y943D02*
X659Y943D01*
X397Y942D02*
X410Y942D01*
X452Y942D02*
X463Y942D01*
X509Y942D02*
X521Y942D01*
X535Y942D02*
X548Y942D01*
X646Y942D02*
X659Y942D01*
X397Y941D02*
X410Y941D01*
X451Y941D02*
X463Y941D01*
X509Y941D02*
X521Y941D01*
X535Y941D02*
X548Y941D01*
X646Y941D02*
X659Y941D01*
X397Y940D02*
X464Y940D01*
X509Y940D02*
X548Y940D01*
X646Y940D02*
X659Y940D01*
X397Y939D02*
X464Y939D01*
X509Y939D02*
X548Y939D01*
X646Y939D02*
X659Y939D01*
X397Y938D02*
X464Y938D01*
X509Y938D02*
X548Y938D01*
X646Y938D02*
X659Y938D01*
X397Y937D02*
X464Y937D01*
X509Y937D02*
X548Y937D01*
X646Y937D02*
X659Y937D01*
X397Y936D02*
X464Y936D01*
X509Y936D02*
X548Y936D01*
X646Y936D02*
X659Y936D01*
X397Y935D02*
X464Y935D01*
X509Y935D02*
X548Y935D01*
X646Y935D02*
X659Y935D01*
X397Y934D02*
X464Y934D01*
X509Y934D02*
X548Y934D01*
X646Y934D02*
X659Y934D01*
X397Y933D02*
X464Y933D01*
X509Y933D02*
X548Y933D01*
X646Y933D02*
X659Y933D01*
X397Y932D02*
X464Y932D01*
X509Y932D02*
X548Y932D01*
X647Y932D02*
X659Y932D01*
X397Y931D02*
X463Y931D01*
X509Y931D02*
X548Y931D01*
X647Y931D02*
X659Y931D01*
X397Y930D02*
X463Y930D01*
X510Y930D02*
X547Y930D01*
X647Y930D02*
X658Y930D01*
X397Y929D02*
X462Y929D01*
X510Y929D02*
X546Y929D01*
X648Y929D02*
X657Y929D01*
X397Y928D02*
X461Y928D01*
X511Y928D02*
X546Y928D01*
X649Y928D02*
X657Y928D01*
X397Y927D02*
X460Y927D01*
X513Y927D02*
X544Y927D01*
X651Y927D02*
X655Y927D01*
X2590Y709D02*
X2599Y709D01*
X2549Y708D02*
X2553Y708D01*
X2587Y708D02*
X2603Y708D01*
X2548Y707D02*
X2555Y707D01*
X2585Y707D02*
X2604Y707D01*
X2546Y706D02*
X2556Y706D01*
X2584Y706D02*
X2606Y706D01*
X2545Y705D02*
X2557Y705D01*
X2582Y705D02*
X2607Y705D01*
X2544Y704D02*
X2557Y704D01*
X2581Y704D02*
X2608Y704D01*
X2543Y703D02*
X2557Y703D01*
X2580Y703D02*
X2609Y703D01*
X2543Y702D02*
X2558Y702D01*
X2579Y702D02*
X2610Y702D01*
X2542Y701D02*
X2557Y701D01*
X2578Y701D02*
X2611Y701D01*
X2541Y700D02*
X2557Y700D01*
X2578Y700D02*
X2612Y700D01*
X2541Y699D02*
X2557Y699D01*
X2577Y699D02*
X2612Y699D01*
X2541Y698D02*
X2556Y698D01*
X2576Y698D02*
X2613Y698D01*
X2540Y697D02*
X2555Y697D01*
X2576Y697D02*
X2613Y697D01*
X2540Y696D02*
X2555Y696D01*
X2576Y696D02*
X2614Y696D01*
X2540Y695D02*
X2554Y695D01*
X2575Y695D02*
X2590Y695D01*
X2598Y695D02*
X2614Y695D01*
X2539Y694D02*
X2553Y694D01*
X2575Y694D02*
X2589Y694D01*
X2600Y694D02*
X2614Y694D01*
X2539Y693D02*
X2552Y693D01*
X2574Y693D02*
X2588Y693D01*
X2601Y693D02*
X2615Y693D01*
X2539Y692D02*
X2552Y692D01*
X2574Y692D02*
X2588Y692D01*
X2602Y692D02*
X2615Y692D01*
X2539Y691D02*
X2552Y691D01*
X2573Y691D02*
X2587Y691D01*
X2602Y691D02*
X2615Y691D01*
X2539Y690D02*
X2552Y690D01*
X2573Y690D02*
X2587Y690D01*
X2602Y690D02*
X2615Y690D01*
X2539Y689D02*
X2552Y689D01*
X2572Y689D02*
X2586Y689D01*
X2602Y689D02*
X2615Y689D01*
X2539Y688D02*
X2552Y688D01*
X2572Y688D02*
X2586Y688D01*
X2602Y688D02*
X2615Y688D01*
X2539Y687D02*
X2552Y687D01*
X2572Y687D02*
X2585Y687D01*
X2602Y687D02*
X2615Y687D01*
X2539Y686D02*
X2552Y686D01*
X2571Y686D02*
X2585Y686D01*
X2602Y686D02*
X2615Y686D01*
X2539Y685D02*
X2552Y685D01*
X2571Y685D02*
X2585Y685D01*
X2602Y685D02*
X2615Y685D01*
X2539Y684D02*
X2552Y684D01*
X2570Y684D02*
X2584Y684D01*
X2602Y684D02*
X2615Y684D01*
X2539Y683D02*
X2552Y683D01*
X2570Y683D02*
X2584Y683D01*
X2602Y683D02*
X2615Y683D01*
X2539Y682D02*
X2552Y682D01*
X2569Y682D02*
X2583Y682D01*
X2602Y682D02*
X2615Y682D01*
X2539Y681D02*
X2552Y681D01*
X2569Y681D02*
X2583Y681D01*
X2602Y681D02*
X2615Y681D01*
X2539Y680D02*
X2552Y680D01*
X2569Y680D02*
X2582Y680D01*
X2602Y680D02*
X2615Y680D01*
X2539Y679D02*
X2552Y679D01*
X2568Y679D02*
X2582Y679D01*
X2602Y679D02*
X2615Y679D01*
X2539Y678D02*
X2552Y678D01*
X2568Y678D02*
X2582Y678D01*
X2602Y678D02*
X2615Y678D01*
X2539Y677D02*
X2552Y677D01*
X2567Y677D02*
X2581Y677D01*
X2602Y677D02*
X2615Y677D01*
X2539Y676D02*
X2552Y676D01*
X2567Y676D02*
X2581Y676D01*
X2602Y676D02*
X2615Y676D01*
X2539Y675D02*
X2552Y675D01*
X2566Y675D02*
X2580Y675D01*
X2602Y675D02*
X2615Y675D01*
X2539Y674D02*
X2552Y674D01*
X2566Y674D02*
X2580Y674D01*
X2602Y674D02*
X2615Y674D01*
X2539Y673D02*
X2552Y673D01*
X2566Y673D02*
X2579Y673D01*
X2602Y673D02*
X2615Y673D01*
X2539Y672D02*
X2552Y672D01*
X2565Y672D02*
X2579Y672D01*
X2602Y672D02*
X2615Y672D01*
X2539Y671D02*
X2552Y671D01*
X2565Y671D02*
X2578Y671D01*
X2602Y671D02*
X2615Y671D01*
X2539Y670D02*
X2552Y670D01*
X2564Y670D02*
X2578Y670D01*
X2602Y670D02*
X2615Y670D01*
X1742Y669D02*
X1799Y669D01*
X2539Y669D02*
X2552Y669D01*
X2564Y669D02*
X2578Y669D01*
X2602Y669D02*
X2615Y669D01*
X1740Y668D02*
X1801Y668D01*
X2539Y668D02*
X2552Y668D01*
X2563Y668D02*
X2577Y668D01*
X2602Y668D02*
X2615Y668D01*
X1739Y667D02*
X1802Y667D01*
X2539Y667D02*
X2552Y667D01*
X2563Y667D02*
X2577Y667D01*
X2602Y667D02*
X2615Y667D01*
X1738Y666D02*
X1803Y666D01*
X2539Y666D02*
X2552Y666D01*
X2563Y666D02*
X2576Y666D01*
X2602Y666D02*
X2615Y666D01*
X1738Y665D02*
X1803Y665D01*
X2539Y665D02*
X2552Y665D01*
X2562Y665D02*
X2576Y665D01*
X2602Y665D02*
X2615Y665D01*
X1738Y664D02*
X1803Y664D01*
X2539Y664D02*
X2552Y664D01*
X2562Y664D02*
X2575Y664D01*
X2602Y664D02*
X2615Y664D01*
X1737Y663D02*
X1804Y663D01*
X2539Y663D02*
X2552Y663D01*
X2561Y663D02*
X2575Y663D01*
X2602Y663D02*
X2615Y663D01*
X1737Y662D02*
X1804Y662D01*
X2539Y662D02*
X2552Y662D01*
X2561Y662D02*
X2575Y662D01*
X2602Y662D02*
X2615Y662D01*
X1737Y661D02*
X1804Y661D01*
X2539Y661D02*
X2552Y661D01*
X2560Y661D02*
X2574Y661D01*
X2602Y661D02*
X2615Y661D01*
X1737Y660D02*
X1804Y660D01*
X2539Y660D02*
X2552Y660D01*
X2560Y660D02*
X2574Y660D01*
X2602Y660D02*
X2615Y660D01*
X1737Y659D02*
X1804Y659D01*
X2539Y659D02*
X2553Y659D01*
X2559Y659D02*
X2573Y659D01*
X2601Y659D02*
X2614Y659D01*
X1737Y658D02*
X1804Y658D01*
X2539Y658D02*
X2555Y658D01*
X2558Y658D02*
X2573Y658D01*
X2601Y658D02*
X2614Y658D01*
X1737Y657D02*
X1804Y657D01*
X2540Y657D02*
X2572Y657D01*
X2600Y657D02*
X2614Y657D01*
X1737Y656D02*
X1804Y656D01*
X2540Y656D02*
X2572Y656D01*
X2600Y656D02*
X2614Y656D01*
X1738Y655D02*
X1803Y655D01*
X2540Y655D02*
X2572Y655D01*
X2599Y655D02*
X2613Y655D01*
X1738Y654D02*
X1803Y654D01*
X2541Y654D02*
X2571Y654D01*
X2598Y654D02*
X2613Y654D01*
X1738Y653D02*
X1803Y653D01*
X2541Y653D02*
X2571Y653D01*
X2598Y653D02*
X2613Y653D01*
X1739Y652D02*
X1802Y652D01*
X2542Y652D02*
X2570Y652D01*
X2597Y652D02*
X2612Y652D01*
X1740Y651D02*
X1801Y651D01*
X2543Y651D02*
X2569Y651D01*
X2597Y651D02*
X2612Y651D01*
X1742Y650D02*
X1799Y650D01*
X2544Y650D02*
X2568Y650D01*
X2597Y650D02*
X2611Y650D01*
X2545Y649D02*
X2567Y649D01*
X2597Y649D02*
X2611Y649D01*
X2546Y648D02*
X2566Y648D01*
X2597Y648D02*
X2610Y648D01*
X2547Y647D02*
X2565Y647D01*
X2597Y647D02*
X2609Y647D01*
X2549Y646D02*
X2563Y646D01*
X2597Y646D02*
X2608Y646D01*
X795Y645D02*
X854Y645D01*
X2551Y645D02*
X2560Y645D01*
X2598Y645D02*
X2608Y645D01*
X794Y644D02*
X855Y644D01*
X2599Y644D02*
X2606Y644D01*
X793Y643D02*
X856Y643D01*
X2601Y643D02*
X2605Y643D01*
X792Y642D02*
X857Y642D01*
X792Y641D02*
X857Y641D01*
X791Y640D02*
X858Y640D01*
X791Y639D02*
X858Y639D01*
X791Y638D02*
X858Y638D01*
X791Y637D02*
X858Y637D01*
X791Y636D02*
X858Y636D01*
X791Y635D02*
X858Y635D01*
X791Y634D02*
X858Y634D01*
X791Y633D02*
X858Y633D01*
X791Y632D02*
X857Y632D01*
X792Y631D02*
X857Y631D01*
X792Y630D02*
X857Y630D01*
X793Y629D02*
X856Y629D01*
X794Y628D02*
X855Y628D01*
X795Y627D02*
X854Y627D01*
X2563Y612D02*
X2591Y612D01*
X2560Y611D02*
X2594Y611D01*
X2558Y610D02*
X2597Y610D01*
X2556Y609D02*
X2598Y609D01*
X2555Y608D02*
X2600Y608D01*
X2553Y607D02*
X2601Y607D01*
X2552Y606D02*
X2602Y606D01*
X2551Y605D02*
X2603Y605D01*
X2550Y604D02*
X2604Y604D01*
X2549Y603D02*
X2605Y603D01*
X2548Y602D02*
X2605Y602D01*
X2548Y601D02*
X2606Y601D01*
X2547Y600D02*
X2607Y600D01*
X2546Y599D02*
X2608Y599D01*
X2545Y598D02*
X2563Y598D01*
X2591Y598D02*
X2609Y598D01*
X2544Y597D02*
X2561Y597D01*
X2593Y597D02*
X2610Y597D01*
X2543Y596D02*
X2560Y596D01*
X2594Y596D02*
X2611Y596D01*
X2542Y595D02*
X2560Y595D01*
X2595Y595D02*
X2612Y595D01*
X2541Y594D02*
X2559Y594D01*
X2595Y594D02*
X2612Y594D01*
X2541Y593D02*
X2558Y593D01*
X2596Y593D02*
X2613Y593D01*
X2540Y592D02*
X2557Y592D01*
X2597Y592D02*
X2614Y592D01*
X2539Y591D02*
X2556Y591D01*
X2598Y591D02*
X2615Y591D01*
X2539Y590D02*
X2555Y590D01*
X2599Y590D02*
X2615Y590D01*
X2538Y589D02*
X2554Y589D01*
X2600Y589D02*
X2616Y589D01*
X1075Y588D02*
X1121Y588D01*
X1473Y588D02*
X1518Y588D01*
X2538Y588D02*
X2554Y588D01*
X2600Y588D02*
X2616Y588D01*
X1071Y587D02*
X1126Y587D01*
X1169Y587D02*
X1175Y587D01*
X1223Y587D02*
X1229Y587D01*
X1472Y587D02*
X1522Y587D01*
X1560Y587D02*
X1566Y587D01*
X1614Y587D02*
X1620Y587D01*
X2538Y587D02*
X2553Y587D01*
X2601Y587D02*
X2617Y587D01*
X1070Y586D02*
X1128Y586D01*
X1168Y586D02*
X1176Y586D01*
X1222Y586D02*
X1230Y586D01*
X1472Y586D02*
X1523Y586D01*
X1559Y586D02*
X1567Y586D01*
X1612Y586D02*
X1621Y586D01*
X2537Y586D02*
X2552Y586D01*
X2602Y586D02*
X2617Y586D01*
X1069Y585D02*
X1129Y585D01*
X1167Y585D02*
X1177Y585D01*
X1221Y585D02*
X1231Y585D01*
X1472Y585D02*
X1524Y585D01*
X1558Y585D02*
X1568Y585D01*
X1612Y585D02*
X1622Y585D01*
X2537Y585D02*
X2551Y585D01*
X2603Y585D02*
X2617Y585D01*
X1069Y584D02*
X1130Y584D01*
X1166Y584D02*
X1178Y584D01*
X1220Y584D02*
X1231Y584D01*
X1472Y584D02*
X1525Y584D01*
X1557Y584D02*
X1569Y584D01*
X1611Y584D02*
X1622Y584D01*
X2537Y584D02*
X2550Y584D01*
X2604Y584D02*
X2617Y584D01*
X1068Y583D02*
X1131Y583D01*
X1166Y583D02*
X1178Y583D01*
X1220Y583D02*
X1232Y583D01*
X1472Y583D02*
X1525Y583D01*
X1557Y583D02*
X1569Y583D01*
X1611Y583D02*
X1623Y583D01*
X2537Y583D02*
X2550Y583D01*
X2604Y583D02*
X2617Y583D01*
X1068Y582D02*
X1132Y582D01*
X1166Y582D02*
X1178Y582D01*
X1220Y582D02*
X1232Y582D01*
X1472Y582D02*
X1525Y582D01*
X1557Y582D02*
X1569Y582D01*
X1610Y582D02*
X1623Y582D01*
X2536Y582D02*
X2549Y582D01*
X2605Y582D02*
X2618Y582D01*
X1068Y581D02*
X1133Y581D01*
X1166Y581D02*
X1178Y581D01*
X1219Y581D02*
X1232Y581D01*
X1472Y581D02*
X1525Y581D01*
X1557Y581D02*
X1569Y581D01*
X1610Y581D02*
X1623Y581D01*
X2536Y581D02*
X2549Y581D01*
X2605Y581D02*
X2618Y581D01*
X1068Y580D02*
X1133Y580D01*
X1166Y580D02*
X1178Y580D01*
X1219Y580D02*
X1232Y580D01*
X1472Y580D02*
X1525Y580D01*
X1557Y580D02*
X1569Y580D01*
X1610Y580D02*
X1623Y580D01*
X2536Y580D02*
X2549Y580D01*
X2605Y580D02*
X2618Y580D01*
X1068Y579D02*
X1134Y579D01*
X1166Y579D02*
X1178Y579D01*
X1219Y579D02*
X1232Y579D01*
X1472Y579D02*
X1525Y579D01*
X1557Y579D02*
X1569Y579D01*
X1610Y579D02*
X1623Y579D01*
X2536Y579D02*
X2549Y579D01*
X2605Y579D02*
X2618Y579D01*
X1069Y578D02*
X1134Y578D01*
X1166Y578D02*
X1178Y578D01*
X1219Y578D02*
X1232Y578D01*
X1472Y578D02*
X1524Y578D01*
X1557Y578D02*
X1569Y578D01*
X1610Y578D02*
X1623Y578D01*
X2536Y578D02*
X2549Y578D01*
X2605Y578D02*
X2618Y578D01*
X1070Y577D02*
X1134Y577D01*
X1166Y577D02*
X1178Y577D01*
X1219Y577D02*
X1232Y577D01*
X1472Y577D02*
X1524Y577D01*
X1557Y577D02*
X1569Y577D01*
X1610Y577D02*
X1623Y577D01*
X2536Y577D02*
X2549Y577D01*
X2605Y577D02*
X2618Y577D01*
X1071Y576D02*
X1134Y576D01*
X1166Y576D02*
X1178Y576D01*
X1219Y576D02*
X1232Y576D01*
X1472Y576D02*
X1523Y576D01*
X1557Y576D02*
X1569Y576D01*
X1610Y576D02*
X1623Y576D01*
X2536Y576D02*
X2549Y576D01*
X2605Y576D02*
X2618Y576D01*
X1072Y575D02*
X1134Y575D01*
X1166Y575D02*
X1178Y575D01*
X1219Y575D02*
X1232Y575D01*
X1472Y575D02*
X1521Y575D01*
X1557Y575D02*
X1569Y575D01*
X1610Y575D02*
X1623Y575D01*
X2536Y575D02*
X2549Y575D01*
X2605Y575D02*
X2618Y575D01*
X1122Y574D02*
X1134Y574D01*
X1166Y574D02*
X1178Y574D01*
X1219Y574D02*
X1232Y574D01*
X1472Y574D02*
X1485Y574D01*
X1557Y574D02*
X1569Y574D01*
X1610Y574D02*
X1623Y574D01*
X2537Y574D02*
X2550Y574D01*
X2604Y574D02*
X2617Y574D01*
X1122Y573D02*
X1134Y573D01*
X1166Y573D02*
X1178Y573D01*
X1219Y573D02*
X1232Y573D01*
X1472Y573D02*
X1485Y573D01*
X1557Y573D02*
X1569Y573D01*
X1610Y573D02*
X1623Y573D01*
X2537Y573D02*
X2551Y573D01*
X2603Y573D02*
X2617Y573D01*
X1122Y572D02*
X1134Y572D01*
X1166Y572D02*
X1178Y572D01*
X1219Y572D02*
X1232Y572D01*
X1472Y572D02*
X1485Y572D01*
X1557Y572D02*
X1569Y572D01*
X1610Y572D02*
X1623Y572D01*
X2537Y572D02*
X2551Y572D01*
X2603Y572D02*
X2617Y572D01*
X1122Y571D02*
X1134Y571D01*
X1166Y571D02*
X1178Y571D01*
X1219Y571D02*
X1232Y571D01*
X1472Y571D02*
X1485Y571D01*
X1557Y571D02*
X1569Y571D01*
X1610Y571D02*
X1623Y571D01*
X2537Y571D02*
X2552Y571D01*
X2602Y571D02*
X2617Y571D01*
X1122Y570D02*
X1134Y570D01*
X1166Y570D02*
X1178Y570D01*
X1219Y570D02*
X1232Y570D01*
X1472Y570D02*
X1485Y570D01*
X1557Y570D02*
X1569Y570D01*
X1610Y570D02*
X1623Y570D01*
X2538Y570D02*
X2553Y570D01*
X2601Y570D02*
X2616Y570D01*
X1122Y569D02*
X1134Y569D01*
X1166Y569D02*
X1178Y569D01*
X1219Y569D02*
X1232Y569D01*
X1472Y569D02*
X1485Y569D01*
X1557Y569D02*
X1569Y569D01*
X1610Y569D02*
X1623Y569D01*
X2538Y569D02*
X2554Y569D01*
X2600Y569D02*
X2616Y569D01*
X1122Y568D02*
X1134Y568D01*
X1166Y568D02*
X1178Y568D01*
X1219Y568D02*
X1232Y568D01*
X1472Y568D02*
X1485Y568D01*
X1557Y568D02*
X1569Y568D01*
X1610Y568D02*
X1623Y568D01*
X2539Y568D02*
X2555Y568D01*
X2599Y568D02*
X2615Y568D01*
X1122Y567D02*
X1134Y567D01*
X1166Y567D02*
X1178Y567D01*
X1219Y567D02*
X1232Y567D01*
X1472Y567D02*
X1485Y567D01*
X1557Y567D02*
X1569Y567D01*
X1610Y567D02*
X1623Y567D01*
X2539Y567D02*
X2556Y567D01*
X2598Y567D02*
X2615Y567D01*
X1122Y566D02*
X1134Y566D01*
X1166Y566D02*
X1178Y566D01*
X1219Y566D02*
X1232Y566D01*
X1472Y566D02*
X1485Y566D01*
X1557Y566D02*
X1569Y566D01*
X1610Y566D02*
X1623Y566D01*
X2540Y566D02*
X2558Y566D01*
X2597Y566D02*
X2614Y566D01*
X1122Y565D02*
X1134Y565D01*
X1166Y565D02*
X1178Y565D01*
X1219Y565D02*
X1232Y565D01*
X1472Y565D02*
X1485Y565D01*
X1557Y565D02*
X1569Y565D01*
X1610Y565D02*
X1623Y565D01*
X2541Y565D02*
X2559Y565D01*
X2596Y565D02*
X2614Y565D01*
X1122Y564D02*
X1134Y564D01*
X1166Y564D02*
X1178Y564D01*
X1219Y564D02*
X1232Y564D01*
X1472Y564D02*
X1485Y564D01*
X1557Y564D02*
X1569Y564D01*
X1610Y564D02*
X1623Y564D01*
X2541Y564D02*
X2560Y564D01*
X2595Y564D02*
X2613Y564D01*
X1122Y563D02*
X1134Y563D01*
X1166Y563D02*
X1178Y563D01*
X1219Y563D02*
X1232Y563D01*
X1472Y563D02*
X1485Y563D01*
X1557Y563D02*
X1569Y563D01*
X1610Y563D02*
X1623Y563D01*
X2542Y563D02*
X2561Y563D01*
X2594Y563D02*
X2612Y563D01*
X1122Y562D02*
X1134Y562D01*
X1166Y562D02*
X1178Y562D01*
X1219Y562D02*
X1232Y562D01*
X1472Y562D02*
X1485Y562D01*
X1557Y562D02*
X1569Y562D01*
X1610Y562D02*
X1623Y562D01*
X2543Y562D02*
X2562Y562D01*
X2593Y562D02*
X2611Y562D01*
X1122Y561D02*
X1134Y561D01*
X1166Y561D02*
X1178Y561D01*
X1219Y561D02*
X1232Y561D01*
X1472Y561D02*
X1485Y561D01*
X1557Y561D02*
X1569Y561D01*
X1610Y561D02*
X1623Y561D01*
X2544Y561D02*
X2563Y561D01*
X2592Y561D02*
X2610Y561D01*
X1122Y560D02*
X1134Y560D01*
X1166Y560D02*
X1178Y560D01*
X1219Y560D02*
X1232Y560D01*
X1472Y560D02*
X1485Y560D01*
X1557Y560D02*
X1569Y560D01*
X1610Y560D02*
X1623Y560D01*
X2545Y560D02*
X2564Y560D01*
X2591Y560D02*
X2609Y560D01*
X1122Y559D02*
X1134Y559D01*
X1166Y559D02*
X1179Y559D01*
X1219Y559D02*
X1232Y559D01*
X1472Y559D02*
X1485Y559D01*
X1557Y559D02*
X1569Y559D01*
X1610Y559D02*
X1623Y559D01*
X2546Y559D02*
X2565Y559D01*
X2589Y559D02*
X2608Y559D01*
X1122Y558D02*
X1134Y558D01*
X1166Y558D02*
X1179Y558D01*
X1219Y558D02*
X1232Y558D01*
X1472Y558D02*
X1485Y558D01*
X1557Y558D02*
X1570Y558D01*
X1610Y558D02*
X1623Y558D01*
X2540Y558D02*
X2639Y558D01*
X1122Y557D02*
X1134Y557D01*
X1166Y557D02*
X1179Y557D01*
X1218Y557D02*
X1232Y557D01*
X1472Y557D02*
X1485Y557D01*
X1557Y557D02*
X1570Y557D01*
X1609Y557D02*
X1623Y557D01*
X2539Y557D02*
X2641Y557D01*
X1122Y556D02*
X1134Y556D01*
X1166Y556D02*
X1180Y556D01*
X1218Y556D02*
X1232Y556D01*
X1472Y556D02*
X1485Y556D01*
X1557Y556D02*
X1571Y556D01*
X1609Y556D02*
X1623Y556D01*
X2538Y556D02*
X2642Y556D01*
X1122Y555D02*
X1134Y555D01*
X1167Y555D02*
X1180Y555D01*
X1218Y555D02*
X1231Y555D01*
X1472Y555D02*
X1485Y555D01*
X1557Y555D02*
X1571Y555D01*
X1609Y555D02*
X1622Y555D01*
X2537Y555D02*
X2643Y555D01*
X1122Y554D02*
X1134Y554D01*
X1167Y554D02*
X1181Y554D01*
X1217Y554D02*
X1231Y554D01*
X1472Y554D02*
X1485Y554D01*
X1558Y554D02*
X1571Y554D01*
X1608Y554D02*
X1622Y554D01*
X2537Y554D02*
X2643Y554D01*
X1122Y553D02*
X1134Y553D01*
X1167Y553D02*
X1181Y553D01*
X1217Y553D02*
X1231Y553D01*
X1472Y553D02*
X1485Y553D01*
X1558Y553D02*
X1572Y553D01*
X1608Y553D02*
X1621Y553D01*
X2536Y553D02*
X2643Y553D01*
X1122Y552D02*
X1134Y552D01*
X1168Y552D02*
X1181Y552D01*
X1217Y552D02*
X1230Y552D01*
X1472Y552D02*
X1485Y552D01*
X1558Y552D02*
X1572Y552D01*
X1607Y552D02*
X1621Y552D01*
X2536Y552D02*
X2644Y552D01*
X1122Y551D02*
X1134Y551D01*
X1168Y551D02*
X1182Y551D01*
X1216Y551D02*
X1230Y551D01*
X1472Y551D02*
X1485Y551D01*
X1559Y551D02*
X1573Y551D01*
X1607Y551D02*
X1621Y551D01*
X2536Y551D02*
X2643Y551D01*
X1122Y550D02*
X1134Y550D01*
X1168Y550D02*
X1182Y550D01*
X1216Y550D02*
X1229Y550D01*
X1472Y550D02*
X1485Y550D01*
X1559Y550D02*
X1573Y550D01*
X1607Y550D02*
X1620Y550D01*
X2536Y550D02*
X2643Y550D01*
X1122Y549D02*
X1134Y549D01*
X1169Y549D02*
X1183Y549D01*
X1215Y549D02*
X1229Y549D01*
X1472Y549D02*
X1485Y549D01*
X1560Y549D02*
X1573Y549D01*
X1606Y549D02*
X1620Y549D01*
X2537Y549D02*
X2643Y549D01*
X1122Y548D02*
X1134Y548D01*
X1169Y548D02*
X1183Y548D01*
X1215Y548D02*
X1229Y548D01*
X1472Y548D02*
X1485Y548D01*
X1560Y548D02*
X1574Y548D01*
X1606Y548D02*
X1619Y548D01*
X2537Y548D02*
X2642Y548D01*
X1121Y547D02*
X1134Y547D01*
X1170Y547D02*
X1183Y547D01*
X1215Y547D02*
X1228Y547D01*
X1472Y547D02*
X1485Y547D01*
X1560Y547D02*
X1574Y547D01*
X1605Y547D02*
X1619Y547D01*
X2538Y547D02*
X2642Y547D01*
X1121Y546D02*
X1134Y546D01*
X1170Y546D02*
X1184Y546D01*
X1214Y546D02*
X1228Y546D01*
X1472Y546D02*
X1485Y546D01*
X1561Y546D02*
X1575Y546D01*
X1605Y546D02*
X1619Y546D01*
X2540Y546D02*
X2640Y546D01*
X1120Y545D02*
X1134Y545D01*
X1170Y545D02*
X1184Y545D01*
X1214Y545D02*
X1227Y545D01*
X1472Y545D02*
X1485Y545D01*
X1561Y545D02*
X1575Y545D01*
X1605Y545D02*
X1618Y545D01*
X2542Y545D02*
X2638Y545D01*
X1119Y544D02*
X1134Y544D01*
X1171Y544D02*
X1185Y544D01*
X1213Y544D02*
X1227Y544D01*
X1472Y544D02*
X1485Y544D01*
X1562Y544D02*
X1575Y544D01*
X1604Y544D02*
X1618Y544D01*
X1118Y543D02*
X1133Y543D01*
X1171Y543D02*
X1185Y543D01*
X1213Y543D02*
X1227Y543D01*
X1472Y543D02*
X1485Y543D01*
X1562Y543D02*
X1576Y543D01*
X1604Y543D02*
X1618Y543D01*
X1087Y542D02*
X1133Y542D01*
X1172Y542D02*
X1185Y542D01*
X1213Y542D02*
X1226Y542D01*
X1472Y542D02*
X1513Y542D01*
X1562Y542D02*
X1576Y542D01*
X1603Y542D02*
X1617Y542D01*
X1084Y541D02*
X1133Y541D01*
X1172Y541D02*
X1186Y541D01*
X1212Y541D02*
X1226Y541D01*
X1472Y541D02*
X1517Y541D01*
X1563Y541D02*
X1577Y541D01*
X1603Y541D02*
X1617Y541D01*
X1083Y540D02*
X1132Y540D01*
X1172Y540D02*
X1186Y540D01*
X1212Y540D02*
X1226Y540D01*
X1472Y540D02*
X1519Y540D01*
X1563Y540D02*
X1577Y540D01*
X1603Y540D02*
X1616Y540D01*
X1083Y539D02*
X1132Y539D01*
X1173Y539D02*
X1186Y539D01*
X1211Y539D02*
X1225Y539D01*
X1472Y539D02*
X1520Y539D01*
X1564Y539D02*
X1577Y539D01*
X1602Y539D02*
X1616Y539D01*
X1082Y538D02*
X1131Y538D01*
X1173Y538D02*
X1187Y538D01*
X1211Y538D02*
X1225Y538D01*
X1472Y538D02*
X1521Y538D01*
X1564Y538D02*
X1578Y538D01*
X1602Y538D02*
X1616Y538D01*
X1082Y537D02*
X1130Y537D01*
X1173Y537D02*
X1187Y537D01*
X1211Y537D02*
X1224Y537D01*
X1472Y537D02*
X1522Y537D01*
X1564Y537D02*
X1578Y537D01*
X1601Y537D02*
X1615Y537D01*
X1082Y536D02*
X1130Y536D01*
X1174Y536D02*
X1188Y536D01*
X1210Y536D02*
X1224Y536D01*
X1472Y536D02*
X1523Y536D01*
X1565Y536D02*
X1578Y536D01*
X1601Y536D02*
X1615Y536D01*
X1082Y535D02*
X1129Y535D01*
X1174Y535D02*
X1188Y535D01*
X1210Y535D02*
X1224Y535D01*
X1472Y535D02*
X1523Y535D01*
X1565Y535D02*
X1579Y535D01*
X1601Y535D02*
X1614Y535D01*
X1082Y534D02*
X1130Y534D01*
X1175Y534D02*
X1188Y534D01*
X1209Y534D02*
X1223Y534D01*
X1472Y534D02*
X1524Y534D01*
X1565Y534D02*
X1579Y534D01*
X1600Y534D02*
X1614Y534D01*
X1082Y533D02*
X1131Y533D01*
X1175Y533D02*
X1189Y533D01*
X1209Y533D02*
X1223Y533D01*
X1472Y533D02*
X1524Y533D01*
X1566Y533D02*
X1580Y533D01*
X1600Y533D02*
X1614Y533D01*
X1082Y532D02*
X1132Y532D01*
X1175Y532D02*
X1189Y532D01*
X1209Y532D02*
X1222Y532D01*
X1472Y532D02*
X1525Y532D01*
X1566Y532D02*
X1580Y532D01*
X1600Y532D02*
X1613Y532D01*
X1083Y531D02*
X1132Y531D01*
X1176Y531D02*
X1190Y531D01*
X1208Y531D02*
X1222Y531D01*
X1472Y531D02*
X1525Y531D01*
X1567Y531D02*
X1580Y531D01*
X1599Y531D02*
X1613Y531D01*
X1084Y530D02*
X1133Y530D01*
X1176Y530D02*
X1190Y530D01*
X1208Y530D02*
X1222Y530D01*
X1472Y530D02*
X1525Y530D01*
X1567Y530D02*
X1581Y530D01*
X1599Y530D02*
X1612Y530D01*
X1086Y529D02*
X1133Y529D01*
X1177Y529D02*
X1190Y529D01*
X1208Y529D02*
X1221Y529D01*
X1472Y529D02*
X1525Y529D01*
X1567Y529D02*
X1581Y529D01*
X1598Y529D02*
X1612Y529D01*
X1117Y528D02*
X1133Y528D01*
X1177Y528D02*
X1191Y528D01*
X1207Y528D02*
X1221Y528D01*
X1513Y528D02*
X1525Y528D01*
X1568Y528D02*
X1582Y528D01*
X1598Y528D02*
X1612Y528D01*
X1119Y527D02*
X1134Y527D01*
X1177Y527D02*
X1191Y527D01*
X1207Y527D02*
X1220Y527D01*
X1513Y527D02*
X1525Y527D01*
X1568Y527D02*
X1582Y527D01*
X1598Y527D02*
X1611Y527D01*
X1120Y526D02*
X1134Y526D01*
X1178Y526D02*
X1192Y526D01*
X1206Y526D02*
X1220Y526D01*
X1513Y526D02*
X1525Y526D01*
X1569Y526D02*
X1582Y526D01*
X1597Y526D02*
X1611Y526D01*
X1121Y525D02*
X1134Y525D01*
X1178Y525D02*
X1192Y525D01*
X1206Y525D02*
X1220Y525D01*
X1513Y525D02*
X1525Y525D01*
X1569Y525D02*
X1583Y525D01*
X1597Y525D02*
X1611Y525D01*
X1121Y524D02*
X1134Y524D01*
X1179Y524D02*
X1192Y524D01*
X1206Y524D02*
X1219Y524D01*
X1513Y524D02*
X1525Y524D01*
X1569Y524D02*
X1583Y524D01*
X1596Y524D02*
X1610Y524D01*
X1122Y523D02*
X1134Y523D01*
X1179Y523D02*
X1193Y523D01*
X1205Y523D02*
X1219Y523D01*
X1513Y523D02*
X1525Y523D01*
X1570Y523D02*
X1584Y523D01*
X1596Y523D02*
X1610Y523D01*
X1122Y522D02*
X1134Y522D01*
X1179Y522D02*
X1193Y522D01*
X1205Y522D02*
X1219Y522D01*
X1513Y522D02*
X1525Y522D01*
X1570Y522D02*
X1584Y522D01*
X1596Y522D02*
X1609Y522D01*
X1122Y521D02*
X1134Y521D01*
X1180Y521D02*
X1194Y521D01*
X1204Y521D02*
X1218Y521D01*
X1513Y521D02*
X1525Y521D01*
X1571Y521D02*
X1584Y521D01*
X1595Y521D02*
X1609Y521D01*
X1122Y520D02*
X1134Y520D01*
X1180Y520D02*
X1194Y520D01*
X1204Y520D02*
X1218Y520D01*
X1513Y520D02*
X1525Y520D01*
X1571Y520D02*
X1585Y520D01*
X1595Y520D02*
X1609Y520D01*
X1122Y519D02*
X1134Y519D01*
X1180Y519D02*
X1194Y519D01*
X1204Y519D02*
X1217Y519D01*
X1513Y519D02*
X1525Y519D01*
X1571Y519D02*
X1585Y519D01*
X1594Y519D02*
X1608Y519D01*
X1122Y518D02*
X1134Y518D01*
X1181Y518D02*
X1195Y518D01*
X1203Y518D02*
X1217Y518D01*
X1513Y518D02*
X1525Y518D01*
X1572Y518D02*
X1586Y518D01*
X1594Y518D02*
X1608Y518D01*
X1122Y517D02*
X1134Y517D01*
X1181Y517D02*
X1195Y517D01*
X1203Y517D02*
X1217Y517D01*
X1513Y517D02*
X1525Y517D01*
X1572Y517D02*
X1586Y517D01*
X1594Y517D02*
X1607Y517D01*
X1122Y516D02*
X1134Y516D01*
X1182Y516D02*
X1195Y516D01*
X1202Y516D02*
X1216Y516D01*
X1513Y516D02*
X1525Y516D01*
X1572Y516D02*
X1586Y516D01*
X1593Y516D02*
X1607Y516D01*
X1122Y515D02*
X1134Y515D01*
X1182Y515D02*
X1196Y515D01*
X1202Y515D02*
X1216Y515D01*
X1513Y515D02*
X1525Y515D01*
X1573Y515D02*
X1587Y515D01*
X1593Y515D02*
X1607Y515D01*
X1122Y514D02*
X1134Y514D01*
X1182Y514D02*
X1196Y514D01*
X1202Y514D02*
X1215Y514D01*
X1513Y514D02*
X1525Y514D01*
X1573Y514D02*
X1587Y514D01*
X1592Y514D02*
X1606Y514D01*
X2543Y514D02*
X2624Y514D01*
X1122Y513D02*
X1134Y513D01*
X1183Y513D02*
X1197Y513D01*
X1201Y513D02*
X1215Y513D01*
X1513Y513D02*
X1525Y513D01*
X1574Y513D02*
X1587Y513D01*
X1592Y513D02*
X1606Y513D01*
X2542Y513D02*
X2627Y513D01*
X1122Y512D02*
X1134Y512D01*
X1183Y512D02*
X1197Y512D01*
X1201Y512D02*
X1215Y512D01*
X1513Y512D02*
X1525Y512D01*
X1574Y512D02*
X1588Y512D01*
X1592Y512D02*
X1605Y512D01*
X2541Y512D02*
X2629Y512D01*
X1122Y511D02*
X1134Y511D01*
X1184Y511D02*
X1197Y511D01*
X1200Y511D02*
X1214Y511D01*
X1513Y511D02*
X1525Y511D01*
X1574Y511D02*
X1588Y511D01*
X1591Y511D02*
X1605Y511D01*
X2540Y511D02*
X2630Y511D01*
X1122Y510D02*
X1134Y510D01*
X1184Y510D02*
X1198Y510D01*
X1200Y510D02*
X1214Y510D01*
X1513Y510D02*
X1525Y510D01*
X1575Y510D02*
X1589Y510D01*
X1591Y510D02*
X1605Y510D01*
X2540Y510D02*
X2631Y510D01*
X1122Y509D02*
X1134Y509D01*
X1184Y509D02*
X1198Y509D01*
X1200Y509D02*
X1213Y509D01*
X1513Y509D02*
X1525Y509D01*
X1575Y509D02*
X1604Y509D01*
X2539Y509D02*
X2633Y509D01*
X1122Y508D02*
X1134Y508D01*
X1185Y508D02*
X1213Y508D01*
X1513Y508D02*
X1525Y508D01*
X1576Y508D02*
X1604Y508D01*
X2539Y508D02*
X2634Y508D01*
X1122Y507D02*
X1134Y507D01*
X1185Y507D02*
X1213Y507D01*
X1513Y507D02*
X1525Y507D01*
X1576Y507D02*
X1603Y507D01*
X2539Y507D02*
X2635Y507D01*
X1122Y506D02*
X1134Y506D01*
X1186Y506D02*
X1212Y506D01*
X1513Y506D02*
X1525Y506D01*
X1576Y506D02*
X1603Y506D01*
X2539Y506D02*
X2636Y506D01*
X1122Y505D02*
X1134Y505D01*
X1186Y505D02*
X1212Y505D01*
X1513Y505D02*
X1525Y505D01*
X1577Y505D02*
X1603Y505D01*
X2540Y505D02*
X2636Y505D01*
X1122Y504D02*
X1134Y504D01*
X1186Y504D02*
X1211Y504D01*
X1513Y504D02*
X1525Y504D01*
X1577Y504D02*
X1602Y504D01*
X2540Y504D02*
X2637Y504D01*
X1122Y503D02*
X1134Y503D01*
X1187Y503D02*
X1211Y503D01*
X1513Y503D02*
X1525Y503D01*
X1578Y503D02*
X1602Y503D01*
X2541Y503D02*
X2638Y503D01*
X1122Y502D02*
X1134Y502D01*
X1187Y502D02*
X1211Y502D01*
X1513Y502D02*
X1525Y502D01*
X1578Y502D02*
X1602Y502D01*
X2542Y502D02*
X2639Y502D01*
X1122Y501D02*
X1134Y501D01*
X1187Y501D02*
X1210Y501D01*
X1462Y501D02*
X1468Y501D01*
X1513Y501D02*
X1525Y501D01*
X1578Y501D02*
X1601Y501D01*
X2545Y501D02*
X2640Y501D01*
X1122Y500D02*
X1134Y500D01*
X1188Y500D02*
X1210Y500D01*
X1461Y500D02*
X1471Y500D01*
X1513Y500D02*
X1525Y500D01*
X1579Y500D02*
X1601Y500D01*
X2548Y500D02*
X2565Y500D01*
X2583Y500D02*
X2601Y500D01*
X2623Y500D02*
X2640Y500D01*
X1122Y499D02*
X1134Y499D01*
X1188Y499D02*
X1210Y499D01*
X1460Y499D02*
X1473Y499D01*
X1513Y499D02*
X1525Y499D01*
X1579Y499D02*
X1600Y499D01*
X2547Y499D02*
X2564Y499D01*
X2584Y499D02*
X2602Y499D01*
X2624Y499D02*
X2641Y499D01*
X1122Y498D02*
X1134Y498D01*
X1189Y498D02*
X1209Y498D01*
X1460Y498D02*
X1475Y498D01*
X1513Y498D02*
X1525Y498D01*
X1579Y498D02*
X1600Y498D01*
X2546Y498D02*
X2563Y498D01*
X2585Y498D02*
X2602Y498D01*
X2625Y498D02*
X2641Y498D01*
X1122Y497D02*
X1134Y497D01*
X1189Y497D02*
X1209Y497D01*
X1459Y497D02*
X1478Y497D01*
X1513Y497D02*
X1525Y497D01*
X1580Y497D02*
X1600Y497D01*
X2545Y497D02*
X2562Y497D01*
X2586Y497D02*
X2603Y497D01*
X2626Y497D02*
X2642Y497D01*
X1073Y496D02*
X1134Y496D01*
X1189Y496D02*
X1208Y496D01*
X1459Y496D02*
X1525Y496D01*
X1580Y496D02*
X1599Y496D01*
X2544Y496D02*
X2561Y496D01*
X2587Y496D02*
X2604Y496D01*
X2627Y496D02*
X2642Y496D01*
X1071Y495D02*
X1134Y495D01*
X1190Y495D02*
X1208Y495D01*
X1459Y495D02*
X1525Y495D01*
X1581Y495D02*
X1599Y495D01*
X2544Y495D02*
X2560Y495D01*
X2588Y495D02*
X2605Y495D01*
X2628Y495D02*
X2643Y495D01*
X1070Y494D02*
X1134Y494D01*
X1190Y494D02*
X1208Y494D01*
X1459Y494D02*
X1525Y494D01*
X1581Y494D02*
X1598Y494D01*
X2543Y494D02*
X2560Y494D01*
X2589Y494D02*
X2606Y494D01*
X2629Y494D02*
X2643Y494D01*
X1069Y493D02*
X1134Y493D01*
X1191Y493D02*
X1207Y493D01*
X1459Y493D02*
X1525Y493D01*
X1581Y493D02*
X1598Y493D01*
X2542Y493D02*
X2559Y493D01*
X2590Y493D02*
X2606Y493D01*
X2630Y493D02*
X2643Y493D01*
X1069Y492D02*
X1134Y492D01*
X1191Y492D02*
X1207Y492D01*
X1460Y492D02*
X1525Y492D01*
X1582Y492D02*
X1598Y492D01*
X2542Y492D02*
X2558Y492D01*
X2590Y492D02*
X2607Y492D01*
X2630Y492D02*
X2643Y492D01*
X1068Y491D02*
X1133Y491D01*
X1191Y491D02*
X1206Y491D01*
X1460Y491D02*
X1524Y491D01*
X1582Y491D02*
X1597Y491D01*
X2541Y491D02*
X2557Y491D01*
X2591Y491D02*
X2607Y491D01*
X2631Y491D02*
X2643Y491D01*
X1068Y490D02*
X1133Y490D01*
X1192Y490D02*
X1206Y490D01*
X1461Y490D02*
X1524Y490D01*
X1583Y490D02*
X1597Y490D01*
X2541Y490D02*
X2556Y490D01*
X2592Y490D02*
X2608Y490D01*
X2631Y490D02*
X2643Y490D01*
X1068Y489D02*
X1132Y489D01*
X1192Y489D02*
X1206Y489D01*
X1463Y489D02*
X1523Y489D01*
X1583Y489D02*
X1596Y489D01*
X2540Y489D02*
X2555Y489D01*
X2593Y489D02*
X2608Y489D01*
X2631Y489D02*
X2644Y489D01*
X1068Y488D02*
X1131Y488D01*
X1193Y488D02*
X1205Y488D01*
X1465Y488D02*
X1522Y488D01*
X1583Y488D02*
X1596Y488D01*
X2540Y488D02*
X2554Y488D01*
X2594Y488D02*
X2608Y488D01*
X2631Y488D02*
X2644Y488D01*
X1069Y487D02*
X1131Y487D01*
X1193Y487D02*
X1205Y487D01*
X1467Y487D02*
X1521Y487D01*
X1584Y487D02*
X1596Y487D01*
X2540Y487D02*
X2554Y487D01*
X2595Y487D02*
X2609Y487D01*
X2631Y487D02*
X2644Y487D01*
X1069Y486D02*
X1130Y486D01*
X1193Y486D02*
X1204Y486D01*
X1469Y486D02*
X1520Y486D01*
X1584Y486D02*
X1595Y486D01*
X2539Y486D02*
X2553Y486D01*
X2595Y486D02*
X2609Y486D01*
X2631Y486D02*
X2644Y486D01*
X1070Y485D02*
X1128Y485D01*
X1194Y485D02*
X1204Y485D01*
X1471Y485D02*
X1519Y485D01*
X1585Y485D02*
X1595Y485D01*
X2539Y485D02*
X2552Y485D01*
X2596Y485D02*
X2609Y485D01*
X2631Y485D02*
X2644Y485D01*
X1071Y484D02*
X1127Y484D01*
X1195Y484D02*
X1203Y484D01*
X1474Y484D02*
X1517Y484D01*
X1586Y484D02*
X1594Y484D01*
X2539Y484D02*
X2552Y484D01*
X2596Y484D02*
X2609Y484D01*
X2631Y484D02*
X2644Y484D01*
X1072Y483D02*
X1124Y483D01*
X1197Y483D02*
X1201Y483D01*
X1478Y483D02*
X1515Y483D01*
X1588Y483D02*
X1592Y483D01*
X2539Y483D02*
X2552Y483D01*
X2597Y483D02*
X2609Y483D01*
X2631Y483D02*
X2644Y483D01*
X2539Y482D02*
X2552Y482D01*
X2597Y482D02*
X2609Y482D01*
X2631Y482D02*
X2644Y482D01*
X2539Y481D02*
X2552Y481D01*
X2597Y481D02*
X2609Y481D01*
X2631Y481D02*
X2644Y481D01*
X2539Y480D02*
X2552Y480D01*
X2597Y480D02*
X2609Y480D01*
X2631Y480D02*
X2644Y480D01*
X2539Y479D02*
X2552Y479D01*
X2597Y479D02*
X2609Y479D01*
X2631Y479D02*
X2644Y479D01*
X2539Y478D02*
X2552Y478D01*
X2597Y478D02*
X2609Y478D01*
X2631Y478D02*
X2644Y478D01*
X2539Y477D02*
X2552Y477D01*
X2597Y477D02*
X2609Y477D01*
X2631Y477D02*
X2644Y477D01*
X2539Y476D02*
X2552Y476D01*
X2597Y476D02*
X2609Y476D01*
X2631Y476D02*
X2644Y476D01*
X2539Y475D02*
X2552Y475D01*
X2597Y475D02*
X2609Y475D01*
X2631Y475D02*
X2644Y475D01*
X2539Y474D02*
X2552Y474D01*
X2597Y474D02*
X2609Y474D01*
X2631Y474D02*
X2644Y474D01*
X2539Y473D02*
X2552Y473D01*
X2597Y473D02*
X2609Y473D01*
X2631Y473D02*
X2644Y473D01*
X2539Y472D02*
X2552Y472D01*
X2597Y472D02*
X2609Y472D01*
X2631Y472D02*
X2644Y472D01*
X2539Y471D02*
X2552Y471D01*
X2596Y471D02*
X2609Y471D01*
X2631Y471D02*
X2644Y471D01*
X2539Y470D02*
X2552Y470D01*
X2596Y470D02*
X2609Y470D01*
X2631Y470D02*
X2644Y470D01*
X2539Y469D02*
X2553Y469D01*
X2596Y469D02*
X2609Y469D01*
X2631Y469D02*
X2644Y469D01*
X2540Y468D02*
X2553Y468D01*
X2595Y468D02*
X2609Y468D01*
X2631Y468D02*
X2644Y468D01*
X2540Y467D02*
X2554Y467D01*
X2595Y467D02*
X2608Y467D01*
X2631Y467D02*
X2644Y467D01*
X2540Y466D02*
X2555Y466D01*
X2594Y466D02*
X2608Y466D01*
X2631Y466D02*
X2644Y466D01*
X2540Y465D02*
X2556Y465D01*
X2593Y465D02*
X2608Y465D01*
X2631Y465D02*
X2644Y465D01*
X2541Y464D02*
X2557Y464D01*
X2592Y464D02*
X2607Y464D01*
X2631Y464D02*
X2644Y464D01*
X2541Y463D02*
X2558Y463D01*
X2591Y463D02*
X2607Y463D01*
X2631Y463D02*
X2644Y463D01*
X2542Y462D02*
X2559Y462D01*
X2590Y462D02*
X2606Y462D01*
X2631Y462D02*
X2644Y462D01*
X2543Y461D02*
X2561Y461D01*
X2588Y461D02*
X2606Y461D01*
X2631Y461D02*
X2644Y461D01*
X2543Y460D02*
X2605Y460D01*
X2631Y460D02*
X2643Y460D01*
X2544Y459D02*
X2604Y459D01*
X2631Y459D02*
X2643Y459D01*
X2545Y458D02*
X2603Y458D01*
X2631Y458D02*
X2643Y458D01*
X2546Y457D02*
X2602Y457D01*
X2632Y457D02*
X2642Y457D01*
X2547Y456D02*
X2602Y456D01*
X2633Y456D02*
X2642Y456D01*
X2548Y455D02*
X2601Y455D01*
X2634Y455D02*
X2641Y455D01*
X2548Y454D02*
X2600Y454D01*
X2636Y454D02*
X2638Y454D01*
X2549Y453D02*
X2599Y453D01*
X2550Y452D02*
X2598Y452D01*
X2552Y451D02*
X2597Y451D01*
X2553Y450D02*
X2595Y450D01*
X2555Y449D02*
X2593Y449D01*
X2557Y448D02*
X2591Y448D01*
X2615Y420D02*
X2671Y420D01*
X2613Y419D02*
X2673Y419D01*
X2612Y418D02*
X2675Y418D01*
X2611Y417D02*
X2675Y417D01*
X2611Y416D02*
X2676Y416D01*
X2610Y415D02*
X2676Y415D01*
X2610Y414D02*
X2676Y414D01*
X2610Y413D02*
X2676Y413D01*
X2610Y412D02*
X2676Y412D01*
X2610Y411D02*
X2676Y411D01*
X2610Y410D02*
X2676Y410D01*
X2610Y409D02*
X2676Y409D01*
X2610Y408D02*
X2676Y408D01*
X2610Y407D02*
X2676Y407D01*
X2610Y406D02*
X2676Y406D01*
X2611Y405D02*
X2676Y405D01*
X2611Y404D02*
X2675Y404D01*
X2612Y403D02*
X2675Y403D01*
X2613Y402D02*
X2673Y402D01*
X2615Y401D02*
X2671Y401D01*
X832Y362D02*
X834Y362D01*
X830Y361D02*
X837Y361D01*
X829Y360D02*
X838Y360D01*
X828Y359D02*
X839Y359D01*
X828Y358D02*
X839Y358D01*
X827Y357D02*
X839Y357D01*
X827Y356D02*
X840Y356D01*
X827Y355D02*
X840Y355D01*
X827Y354D02*
X840Y354D01*
X827Y353D02*
X840Y353D01*
X827Y352D02*
X840Y352D01*
X827Y351D02*
X840Y351D01*
X827Y350D02*
X840Y350D01*
X1757Y350D02*
X1761Y350D01*
X827Y349D02*
X840Y349D01*
X1755Y349D02*
X1762Y349D01*
X827Y348D02*
X840Y348D01*
X1754Y348D02*
X1764Y348D01*
X827Y347D02*
X840Y347D01*
X1753Y347D02*
X1764Y347D01*
X827Y346D02*
X840Y346D01*
X1753Y346D02*
X1765Y346D01*
X827Y345D02*
X840Y345D01*
X1753Y345D02*
X1765Y345D01*
X827Y344D02*
X840Y344D01*
X1753Y344D02*
X1765Y344D01*
X827Y343D02*
X840Y343D01*
X1752Y343D02*
X1765Y343D01*
X827Y342D02*
X840Y342D01*
X1752Y342D02*
X1765Y342D01*
X827Y341D02*
X840Y341D01*
X1752Y341D02*
X1765Y341D01*
X827Y340D02*
X840Y340D01*
X1752Y340D02*
X1765Y340D01*
X827Y339D02*
X840Y339D01*
X1752Y339D02*
X1765Y339D01*
X827Y338D02*
X840Y338D01*
X1752Y338D02*
X1765Y338D01*
X827Y337D02*
X840Y337D01*
X1752Y337D02*
X1765Y337D01*
X827Y336D02*
X840Y336D01*
X1752Y336D02*
X1765Y336D01*
X805Y335D02*
X862Y335D01*
X1752Y335D02*
X1765Y335D01*
X803Y334D02*
X864Y334D01*
X1752Y334D02*
X1765Y334D01*
X802Y333D02*
X865Y333D01*
X1752Y333D02*
X1765Y333D01*
X801Y332D02*
X865Y332D01*
X1752Y332D02*
X1765Y332D01*
X801Y331D02*
X866Y331D01*
X1752Y331D02*
X1765Y331D01*
X800Y330D02*
X866Y330D01*
X1752Y330D02*
X1765Y330D01*
X800Y329D02*
X866Y329D01*
X1752Y329D02*
X1765Y329D01*
X800Y328D02*
X866Y328D01*
X1752Y328D02*
X1765Y328D01*
X800Y327D02*
X866Y327D01*
X1752Y327D02*
X1765Y327D01*
X801Y326D02*
X866Y326D01*
X1752Y326D02*
X1765Y326D01*
X801Y325D02*
X865Y325D01*
X1752Y325D02*
X1765Y325D01*
X802Y324D02*
X865Y324D01*
X1752Y324D02*
X1765Y324D01*
X803Y323D02*
X864Y323D01*
X1730Y323D02*
X1788Y323D01*
X805Y322D02*
X862Y322D01*
X1728Y322D02*
X1790Y322D01*
X827Y321D02*
X840Y321D01*
X1727Y321D02*
X1790Y321D01*
X827Y320D02*
X840Y320D01*
X1726Y320D02*
X1791Y320D01*
X827Y319D02*
X840Y319D01*
X1726Y319D02*
X1792Y319D01*
X827Y318D02*
X840Y318D01*
X1726Y318D02*
X1792Y318D01*
X827Y317D02*
X840Y317D01*
X1726Y317D02*
X1792Y317D01*
X827Y316D02*
X840Y316D01*
X1726Y316D02*
X1792Y316D01*
X827Y315D02*
X840Y315D01*
X1726Y315D02*
X1792Y315D01*
X827Y314D02*
X840Y314D01*
X1726Y314D02*
X1791Y314D01*
X827Y313D02*
X840Y313D01*
X1727Y313D02*
X1791Y313D01*
X827Y312D02*
X840Y312D01*
X1728Y312D02*
X1790Y312D01*
X827Y311D02*
X840Y311D01*
X1729Y311D02*
X1789Y311D01*
X827Y310D02*
X840Y310D01*
X1732Y310D02*
X1786Y310D01*
X827Y309D02*
X840Y309D01*
X1752Y309D02*
X1765Y309D01*
X827Y308D02*
X840Y308D01*
X1752Y308D02*
X1765Y308D01*
X827Y307D02*
X840Y307D01*
X1752Y307D02*
X1765Y307D01*
X827Y306D02*
X840Y306D01*
X1752Y306D02*
X1765Y306D01*
X827Y305D02*
X840Y305D01*
X1752Y305D02*
X1765Y305D01*
X827Y304D02*
X840Y304D01*
X1752Y304D02*
X1765Y304D01*
X827Y303D02*
X840Y303D01*
X1752Y303D02*
X1765Y303D01*
X827Y302D02*
X840Y302D01*
X1752Y302D02*
X1765Y302D01*
X827Y301D02*
X840Y301D01*
X1752Y301D02*
X1765Y301D01*
X827Y300D02*
X839Y300D01*
X1752Y300D02*
X1765Y300D01*
X828Y299D02*
X839Y299D01*
X1752Y299D02*
X1765Y299D01*
X828Y298D02*
X838Y298D01*
X1752Y298D02*
X1765Y298D01*
X829Y297D02*
X838Y297D01*
X1752Y297D02*
X1765Y297D01*
X830Y296D02*
X836Y296D01*
X1752Y296D02*
X1765Y296D01*
X833Y295D02*
X834Y295D01*
X1752Y295D02*
X1765Y295D01*
X1752Y294D02*
X1765Y294D01*
X1752Y293D02*
X1765Y293D01*
X1752Y292D02*
X1765Y292D01*
X1752Y291D02*
X1765Y291D01*
X1752Y290D02*
X1765Y290D01*
X1753Y289D02*
X1765Y289D01*
X1753Y288D02*
X1765Y288D01*
X1753Y287D02*
X1764Y287D01*
X1754Y286D02*
X1764Y286D01*
X1755Y285D02*
X1763Y285D01*
X1756Y284D02*
X1761Y284D01*
X421Y230D02*
X441Y230D01*
X416Y229D02*
X443Y229D01*
X414Y228D02*
X444Y228D01*
X412Y227D02*
X445Y227D01*
X411Y226D02*
X446Y226D01*
X409Y225D02*
X446Y225D01*
X408Y224D02*
X446Y224D01*
X407Y223D02*
X446Y223D01*
X406Y222D02*
X446Y222D01*
X405Y221D02*
X446Y221D01*
X404Y220D02*
X445Y220D01*
X404Y219D02*
X445Y219D01*
X403Y218D02*
X444Y218D01*
X403Y217D02*
X442Y217D01*
X402Y216D02*
X420Y216D01*
X402Y215D02*
X418Y215D01*
X401Y214D02*
X416Y214D01*
X401Y213D02*
X415Y213D01*
X401Y212D02*
X415Y212D01*
X401Y211D02*
X414Y211D01*
X400Y210D02*
X413Y210D01*
X400Y209D02*
X413Y209D01*
X400Y208D02*
X413Y208D01*
X400Y207D02*
X413Y207D01*
X400Y206D02*
X413Y206D01*
X400Y205D02*
X413Y205D01*
X400Y204D02*
X413Y204D01*
X400Y203D02*
X413Y203D01*
X400Y202D02*
X413Y202D01*
X192Y201D02*
X196Y201D01*
X221Y201D02*
X237Y201D01*
X290Y201D02*
X294Y201D01*
X317Y201D02*
X336Y201D01*
X391Y201D02*
X429Y201D01*
X191Y200D02*
X198Y200D01*
X218Y200D02*
X240Y200D01*
X288Y200D02*
X296Y200D01*
X315Y200D02*
X339Y200D01*
X389Y200D02*
X430Y200D01*
X190Y199D02*
X199Y199D01*
X216Y199D02*
X242Y199D01*
X287Y199D02*
X297Y199D01*
X314Y199D02*
X341Y199D01*
X388Y199D02*
X431Y199D01*
X189Y198D02*
X200Y198D01*
X214Y198D02*
X244Y198D01*
X287Y198D02*
X297Y198D01*
X313Y198D02*
X343Y198D01*
X388Y198D02*
X432Y198D01*
X188Y197D02*
X200Y197D01*
X213Y197D02*
X245Y197D01*
X286Y197D02*
X298Y197D01*
X311Y197D02*
X344Y197D01*
X387Y197D02*
X432Y197D01*
X188Y196D02*
X201Y196D01*
X211Y196D02*
X246Y196D01*
X286Y196D02*
X298Y196D01*
X310Y196D02*
X345Y196D01*
X387Y196D02*
X433Y196D01*
X188Y195D02*
X201Y195D01*
X209Y195D02*
X247Y195D01*
X286Y195D02*
X298Y195D01*
X309Y195D02*
X346Y195D01*
X387Y195D02*
X433Y195D01*
X188Y194D02*
X201Y194D01*
X208Y194D02*
X248Y194D01*
X286Y194D02*
X298Y194D01*
X308Y194D02*
X347Y194D01*
X387Y194D02*
X433Y194D01*
X188Y193D02*
X201Y193D01*
X206Y193D02*
X249Y193D01*
X286Y193D02*
X298Y193D01*
X307Y193D02*
X348Y193D01*
X387Y193D02*
X433Y193D01*
X188Y192D02*
X201Y192D01*
X205Y192D02*
X249Y192D01*
X286Y192D02*
X298Y192D01*
X306Y192D02*
X349Y192D01*
X387Y192D02*
X432Y192D01*
X188Y191D02*
X201Y191D01*
X203Y191D02*
X250Y191D01*
X286Y191D02*
X298Y191D01*
X304Y191D02*
X349Y191D01*
X388Y191D02*
X432Y191D01*
X188Y190D02*
X251Y190D01*
X286Y190D02*
X298Y190D01*
X303Y190D02*
X350Y190D01*
X389Y190D02*
X431Y190D01*
X188Y189D02*
X251Y189D01*
X286Y189D02*
X298Y189D01*
X302Y189D02*
X350Y189D01*
X390Y189D02*
X430Y189D01*
X188Y188D02*
X251Y188D01*
X286Y188D02*
X298Y188D01*
X301Y188D02*
X351Y188D01*
X392Y188D02*
X427Y188D01*
X188Y187D02*
X221Y187D01*
X236Y187D02*
X252Y187D01*
X286Y187D02*
X320Y187D01*
X336Y187D02*
X351Y187D01*
X400Y187D02*
X413Y187D01*
X188Y186D02*
X220Y186D01*
X238Y186D02*
X252Y186D01*
X286Y186D02*
X319Y186D01*
X337Y186D02*
X351Y186D01*
X400Y186D02*
X413Y186D01*
X188Y185D02*
X218Y185D01*
X238Y185D02*
X252Y185D01*
X286Y185D02*
X318Y185D01*
X338Y185D02*
X352Y185D01*
X400Y185D02*
X413Y185D01*
X188Y184D02*
X217Y184D01*
X239Y184D02*
X252Y184D01*
X286Y184D02*
X316Y184D01*
X339Y184D02*
X352Y184D01*
X400Y184D02*
X413Y184D01*
X188Y183D02*
X215Y183D01*
X240Y183D02*
X252Y183D01*
X286Y183D02*
X315Y183D01*
X339Y183D02*
X352Y183D01*
X400Y183D02*
X413Y183D01*
X188Y182D02*
X214Y182D01*
X240Y182D02*
X253Y182D01*
X286Y182D02*
X314Y182D01*
X339Y182D02*
X352Y182D01*
X400Y182D02*
X413Y182D01*
X188Y181D02*
X212Y181D01*
X240Y181D02*
X253Y181D01*
X286Y181D02*
X313Y181D01*
X339Y181D02*
X352Y181D01*
X400Y181D02*
X413Y181D01*
X188Y180D02*
X211Y180D01*
X240Y180D02*
X253Y180D01*
X286Y180D02*
X312Y180D01*
X339Y180D02*
X352Y180D01*
X400Y180D02*
X413Y180D01*
X188Y179D02*
X209Y179D01*
X240Y179D02*
X253Y179D01*
X286Y179D02*
X311Y179D01*
X339Y179D02*
X352Y179D01*
X400Y179D02*
X413Y179D01*
X188Y178D02*
X207Y178D01*
X240Y178D02*
X253Y178D01*
X286Y178D02*
X309Y178D01*
X339Y178D02*
X352Y178D01*
X400Y178D02*
X413Y178D01*
X188Y177D02*
X206Y177D01*
X240Y177D02*
X253Y177D01*
X286Y177D02*
X308Y177D01*
X339Y177D02*
X352Y177D01*
X400Y177D02*
X413Y177D01*
X188Y176D02*
X204Y176D01*
X240Y176D02*
X253Y176D01*
X286Y176D02*
X307Y176D01*
X340Y176D02*
X352Y176D01*
X400Y176D02*
X413Y176D01*
X188Y175D02*
X203Y175D01*
X240Y175D02*
X253Y175D01*
X286Y175D02*
X306Y175D01*
X340Y175D02*
X352Y175D01*
X400Y175D02*
X413Y175D01*
X188Y174D02*
X201Y174D01*
X240Y174D02*
X253Y174D01*
X286Y174D02*
X305Y174D01*
X340Y174D02*
X351Y174D01*
X400Y174D02*
X413Y174D01*
X188Y173D02*
X201Y173D01*
X240Y173D02*
X253Y173D01*
X286Y173D02*
X304Y173D01*
X341Y173D02*
X350Y173D01*
X400Y173D02*
X413Y173D01*
X188Y172D02*
X201Y172D01*
X240Y172D02*
X253Y172D01*
X286Y172D02*
X302Y172D01*
X342Y172D02*
X349Y172D01*
X400Y172D02*
X413Y172D01*
X188Y171D02*
X201Y171D01*
X240Y171D02*
X253Y171D01*
X286Y171D02*
X301Y171D01*
X344Y171D02*
X347Y171D01*
X400Y171D02*
X413Y171D01*
X188Y170D02*
X201Y170D01*
X240Y170D02*
X253Y170D01*
X286Y170D02*
X300Y170D01*
X400Y170D02*
X413Y170D01*
X188Y169D02*
X201Y169D01*
X240Y169D02*
X253Y169D01*
X286Y169D02*
X299Y169D01*
X400Y169D02*
X413Y169D01*
X188Y168D02*
X201Y168D01*
X240Y168D02*
X253Y168D01*
X286Y168D02*
X298Y168D01*
X400Y168D02*
X413Y168D01*
X188Y167D02*
X201Y167D01*
X240Y167D02*
X253Y167D01*
X286Y167D02*
X298Y167D01*
X400Y167D02*
X413Y167D01*
X188Y166D02*
X201Y166D01*
X240Y166D02*
X253Y166D01*
X286Y166D02*
X298Y166D01*
X400Y166D02*
X413Y166D01*
X188Y165D02*
X201Y165D01*
X241Y165D02*
X253Y165D01*
X286Y165D02*
X298Y165D01*
X400Y165D02*
X413Y165D01*
X188Y164D02*
X201Y164D01*
X241Y164D02*
X253Y164D01*
X286Y164D02*
X298Y164D01*
X400Y164D02*
X413Y164D01*
X188Y163D02*
X201Y163D01*
X241Y163D02*
X253Y163D01*
X286Y163D02*
X298Y163D01*
X400Y163D02*
X413Y163D01*
X188Y162D02*
X201Y162D01*
X241Y162D02*
X253Y162D01*
X286Y162D02*
X298Y162D01*
X400Y162D02*
X413Y162D01*
X188Y161D02*
X201Y161D01*
X241Y161D02*
X253Y161D01*
X286Y161D02*
X298Y161D01*
X400Y161D02*
X413Y161D01*
X188Y160D02*
X201Y160D01*
X241Y160D02*
X253Y160D01*
X286Y160D02*
X298Y160D01*
X400Y160D02*
X413Y160D01*
X188Y159D02*
X201Y159D01*
X241Y159D02*
X253Y159D01*
X286Y159D02*
X298Y159D01*
X400Y159D02*
X413Y159D01*
X188Y158D02*
X201Y158D01*
X241Y158D02*
X253Y158D01*
X286Y158D02*
X298Y158D01*
X400Y158D02*
X413Y158D01*
X188Y157D02*
X201Y157D01*
X241Y157D02*
X253Y157D01*
X286Y157D02*
X298Y157D01*
X400Y157D02*
X413Y157D01*
X188Y156D02*
X201Y156D01*
X241Y156D02*
X253Y156D01*
X286Y156D02*
X298Y156D01*
X400Y156D02*
X413Y156D01*
X188Y155D02*
X201Y155D01*
X241Y155D02*
X253Y155D01*
X286Y155D02*
X298Y155D01*
X400Y155D02*
X413Y155D01*
X188Y154D02*
X201Y154D01*
X241Y154D02*
X253Y154D01*
X286Y154D02*
X298Y154D01*
X400Y154D02*
X413Y154D01*
X188Y153D02*
X201Y153D01*
X241Y153D02*
X254Y153D01*
X286Y153D02*
X298Y153D01*
X400Y153D02*
X413Y153D01*
X188Y152D02*
X201Y152D01*
X241Y152D02*
X254Y152D01*
X286Y152D02*
X298Y152D01*
X400Y152D02*
X413Y152D01*
X188Y151D02*
X201Y151D01*
X241Y151D02*
X254Y151D01*
X286Y151D02*
X298Y151D01*
X400Y151D02*
X413Y151D01*
X188Y150D02*
X201Y150D01*
X241Y150D02*
X254Y150D01*
X286Y150D02*
X298Y150D01*
X400Y150D02*
X413Y150D01*
X188Y149D02*
X201Y149D01*
X241Y149D02*
X254Y149D01*
X286Y149D02*
X298Y149D01*
X400Y149D02*
X413Y149D01*
X188Y148D02*
X201Y148D01*
X241Y148D02*
X254Y148D01*
X286Y148D02*
X298Y148D01*
X400Y148D02*
X413Y148D01*
X188Y147D02*
X201Y147D01*
X241Y147D02*
X254Y147D01*
X286Y147D02*
X298Y147D01*
X400Y147D02*
X413Y147D01*
X188Y146D02*
X201Y146D01*
X241Y146D02*
X254Y146D01*
X286Y146D02*
X298Y146D01*
X400Y146D02*
X413Y146D01*
X188Y145D02*
X201Y145D01*
X241Y145D02*
X254Y145D01*
X286Y145D02*
X298Y145D01*
X400Y145D02*
X413Y145D01*
X188Y144D02*
X201Y144D01*
X241Y144D02*
X254Y144D01*
X286Y144D02*
X298Y144D01*
X400Y144D02*
X413Y144D01*
X188Y143D02*
X201Y143D01*
X241Y143D02*
X254Y143D01*
X286Y143D02*
X298Y143D01*
X400Y143D02*
X413Y143D01*
X188Y142D02*
X201Y142D01*
X241Y142D02*
X254Y142D01*
X286Y142D02*
X298Y142D01*
X400Y142D02*
X413Y142D01*
X188Y141D02*
X201Y141D01*
X241Y141D02*
X254Y141D01*
X286Y141D02*
X298Y141D01*
X400Y141D02*
X413Y141D01*
X188Y140D02*
X201Y140D01*
X241Y140D02*
X254Y140D01*
X286Y140D02*
X298Y140D01*
X400Y140D02*
X413Y140D01*
X188Y139D02*
X201Y139D01*
X241Y139D02*
X254Y139D01*
X286Y139D02*
X298Y139D01*
X400Y139D02*
X413Y139D01*
X188Y138D02*
X201Y138D01*
X241Y138D02*
X254Y138D01*
X286Y138D02*
X298Y138D01*
X400Y138D02*
X413Y138D01*
X188Y137D02*
X201Y137D01*
X241Y137D02*
X254Y137D01*
X286Y137D02*
X298Y137D01*
X400Y137D02*
X413Y137D01*
X188Y136D02*
X201Y136D01*
X242Y136D02*
X254Y136D01*
X286Y136D02*
X298Y136D01*
X400Y136D02*
X413Y136D01*
X188Y135D02*
X201Y135D01*
X242Y135D02*
X254Y135D01*
X286Y135D02*
X298Y135D01*
X400Y135D02*
X413Y135D01*
X188Y134D02*
X201Y134D01*
X242Y134D02*
X254Y134D01*
X286Y134D02*
X298Y134D01*
X400Y134D02*
X413Y134D01*
X188Y133D02*
X201Y133D01*
X242Y133D02*
X254Y133D01*
X286Y133D02*
X298Y133D01*
X400Y133D02*
X413Y133D01*
X188Y132D02*
X201Y132D01*
X242Y132D02*
X254Y132D01*
X286Y132D02*
X298Y132D01*
X400Y132D02*
X413Y132D01*
X188Y131D02*
X201Y131D01*
X242Y131D02*
X254Y131D01*
X286Y131D02*
X298Y131D01*
X400Y131D02*
X413Y131D01*
X188Y130D02*
X200Y130D01*
X242Y130D02*
X254Y130D01*
X286Y130D02*
X298Y130D01*
X400Y130D02*
X413Y130D01*
X189Y129D02*
X200Y129D01*
X242Y129D02*
X254Y129D01*
X286Y129D02*
X298Y129D01*
X401Y129D02*
X412Y129D01*
X189Y128D02*
X200Y128D01*
X243Y128D02*
X253Y128D01*
X287Y128D02*
X297Y128D01*
X401Y128D02*
X412Y128D01*
X190Y127D02*
X199Y127D01*
X244Y127D02*
X252Y127D01*
X288Y127D02*
X297Y127D01*
X402Y127D02*
X411Y127D01*
X191Y126D02*
X198Y126D01*
X245Y126D02*
X251Y126D01*
X289Y126D02*
X295Y126D01*
X403Y126D02*
X410Y126D01*
X193Y125D02*
X196Y125D01*
X247Y125D02*
X249Y125D01*
X291Y125D02*
X293Y125D01*
X405Y125D02*
X408Y125D01*
X2643Y113D02*
X2645Y113D01*
X2641Y112D02*
X2647Y112D01*
X2640Y111D02*
X2649Y111D01*
X2639Y110D02*
X2649Y110D01*
X2638Y109D02*
X2650Y109D01*
X2638Y108D02*
X2650Y108D01*
X2638Y107D02*
X2650Y107D01*
X2638Y106D02*
X2650Y106D01*
X2638Y105D02*
X2650Y105D01*
X2638Y104D02*
X2650Y104D01*
X2638Y103D02*
X2650Y103D01*
X2638Y102D02*
X2650Y102D01*
X2638Y101D02*
X2650Y101D01*
X2638Y100D02*
X2650Y100D01*
X2638Y99D02*
X2650Y99D01*
X2638Y98D02*
X2650Y98D01*
X2638Y97D02*
X2650Y97D01*
X2638Y96D02*
X2650Y96D01*
X2638Y95D02*
X2650Y95D01*
X2638Y94D02*
X2650Y94D01*
X2638Y93D02*
X2650Y93D01*
X2638Y92D02*
X2650Y92D01*
X2638Y91D02*
X2650Y91D01*
X2638Y90D02*
X2650Y90D01*
X2638Y89D02*
X2650Y89D01*
X2638Y88D02*
X2650Y88D01*
X2638Y87D02*
X2650Y87D01*
X2616Y86D02*
X2673Y86D01*
X2614Y85D02*
X2674Y85D01*
X2613Y84D02*
X2676Y84D01*
X2612Y83D02*
X2676Y83D01*
X2611Y82D02*
X2677Y82D01*
X2611Y81D02*
X2677Y81D01*
X2611Y80D02*
X2677Y80D01*
X2611Y79D02*
X2677Y79D01*
X2611Y78D02*
X2677Y78D01*
X2611Y77D02*
X2677Y77D01*
X2612Y76D02*
X2676Y76D01*
X2613Y75D02*
X2676Y75D01*
X2614Y74D02*
X2674Y74D01*
X2616Y73D02*
X2673Y73D01*
X2638Y72D02*
X2650Y72D01*
X2638Y71D02*
X2650Y71D01*
X2638Y70D02*
X2650Y70D01*
X2638Y69D02*
X2650Y69D01*
X2638Y68D02*
X2650Y68D01*
X2638Y67D02*
X2650Y67D01*
X2638Y66D02*
X2650Y66D01*
X2638Y65D02*
X2650Y65D01*
X2638Y64D02*
X2650Y64D01*
X2638Y63D02*
X2650Y63D01*
X2638Y62D02*
X2650Y62D01*
X2638Y61D02*
X2650Y61D01*
X2638Y60D02*
X2650Y60D01*
X2638Y59D02*
X2650Y59D01*
X2638Y58D02*
X2650Y58D01*
X2638Y57D02*
X2650Y57D01*
X2638Y56D02*
X2650Y56D01*
X2638Y55D02*
X2650Y55D01*
X2638Y54D02*
X2650Y54D01*
X2638Y53D02*
X2650Y53D01*
X2638Y52D02*
X2650Y52D01*
X2638Y51D02*
X2650Y51D01*
X2638Y50D02*
X2650Y50D01*
X2639Y49D02*
X2649Y49D01*
X2640Y48D02*
X2648Y48D01*
X2641Y47D02*
X2647Y47D01*
X2643Y46D02*
X2645Y46D01*
D02*
G04 End of Copper1*
M02*