; NON-PLATED HOLES START AT T1
; THROUGH (PLATED) HOLES START AT T100
M48
INCH
T1C0.086614
T100C0.038000
T101C0.036111
%
T1
X026816Y011044
X000729Y011049
X000772Y000721
X026816Y000748
T100
X006444Y008699
X026944Y005699
X019444Y003699
X012444Y011199
X019444Y002699
X023444Y005699
X026944Y008699
X001944Y002199
X024444Y009699
X008444Y011199
X024444Y007699
X002944Y005199
X024444Y008699
X024444Y000699
X011444Y011199
X024444Y003699
X009444Y002199
X024444Y004699
X007444Y011199
X024444Y002699
X018444Y002699
X026944Y004699
X019444Y000699
X026944Y007699
X002444Y011199
X018444Y008699
X023444Y004699
X018444Y009699
X000944Y007699
X009944Y006199
X001944Y004199
X018444Y001699
X001944Y003199
X017444Y008699
X023444Y000699
X010444Y011199
X024444Y001699
X017444Y009699
X001944Y005199
X023444Y003699
X006444Y005199
X023444Y007699
X009444Y011199
X010444Y002199
X018444Y004699
X024444Y005699
X023444Y001699
X023444Y009699
X018444Y005699
X002944Y004199
X018444Y007699
X018444Y000699
X003444Y011199
X024444Y006699
X007444Y004199
X011444Y002199
X008444Y002199
X009944Y005199
X023444Y002699
X018444Y006699
X006444Y011199
X004444Y011199
X026944Y006699
X018444Y003699
X013444Y011199
X026944Y009699
X023444Y008699
X023444Y006699
X002944Y003199
X002944Y002199
X019444Y001699
X000944Y008699
T101
X012444Y010199
X013444Y010199
X008444Y001199
X007444Y001199
X006444Y001199
X008444Y010199
X010444Y010199
X011444Y010199
X011444Y001199
X009444Y001199
X012444Y001199
X009444Y010199
X013444Y001199
X006444Y010199
X010444Y001199
X007444Y010199
T00
M30
