G04 MADE WITH FRITZING*
G04 WWW.FRITZING.ORG*
G04 DOUBLE SIDED*
G04 HOLES PLATED*
G04 CONTOUR ON CENTER OF CONTOUR VECTOR*
%ASAXBY*%
%FSLAX23Y23*%
%MOIN*%
%OFA0B0*%
%SFA1.0B1.0*%
%ADD10C,0.077778*%
%ADD11C,0.078000*%
%ADD12C,0.024000*%
%ADD13R,0.001000X0.001000*%
%LNCOPPER0*%
G90*
G70*
G54D10*
X1344Y1020D03*
X1244Y1020D03*
X1144Y1020D03*
X1044Y1020D03*
X944Y1020D03*
X844Y1020D03*
X744Y1020D03*
X644Y1020D03*
X644Y120D03*
X744Y120D03*
X844Y120D03*
X944Y120D03*
X1044Y120D03*
X1144Y120D03*
X1244Y120D03*
X1344Y120D03*
G54D11*
X644Y1120D03*
X744Y1120D03*
X844Y1120D03*
X944Y1120D03*
X1044Y1120D03*
X1144Y1120D03*
X1244Y1120D03*
X1344Y1120D03*
X2694Y470D03*
X2694Y570D03*
X2694Y670D03*
X2694Y770D03*
X2694Y870D03*
X2694Y970D03*
X2444Y470D03*
X2444Y570D03*
X2444Y670D03*
X2444Y770D03*
X2444Y870D03*
X2444Y970D03*
X2344Y470D03*
X2344Y570D03*
X2344Y670D03*
X2344Y770D03*
X2344Y870D03*
X2344Y970D03*
X244Y1120D03*
X344Y1120D03*
X444Y1120D03*
X294Y220D03*
X294Y320D03*
X294Y420D03*
X294Y520D03*
X194Y220D03*
X194Y320D03*
X194Y420D03*
X194Y520D03*
X744Y420D03*
X2344Y70D03*
X2344Y170D03*
X2344Y270D03*
X2344Y370D03*
X1944Y70D03*
X1944Y170D03*
X1944Y270D03*
X1944Y370D03*
X2444Y70D03*
X2444Y170D03*
X2444Y270D03*
X2444Y370D03*
X1844Y70D03*
X1844Y170D03*
X1844Y270D03*
X1844Y370D03*
X994Y620D03*
X994Y520D03*
X644Y520D03*
X844Y220D03*
X944Y220D03*
X1044Y220D03*
X1144Y220D03*
X1744Y970D03*
X1744Y870D03*
X1844Y970D03*
X1844Y870D03*
X1844Y770D03*
X1844Y670D03*
X1844Y570D03*
X1844Y470D03*
X644Y870D03*
X94Y870D03*
X94Y770D03*
G54D12*
X745Y421D02*
X744Y149D01*
D02*
X745Y720D02*
X745Y421D01*
D02*
X244Y720D02*
X745Y720D01*
D02*
X125Y870D02*
X244Y870D01*
D02*
X244Y870D02*
X244Y720D01*
D02*
X644Y520D02*
X644Y149D01*
D02*
X644Y621D02*
X644Y520D01*
D02*
X294Y621D02*
X644Y621D01*
D02*
X94Y740D02*
X94Y621D01*
D02*
X94Y621D02*
X294Y621D01*
D02*
X2664Y670D02*
X2375Y670D01*
D02*
X2375Y770D02*
X2664Y770D01*
D02*
X2375Y970D02*
X2664Y970D01*
D02*
X1344Y1090D02*
X1344Y1049D01*
D02*
X1244Y1090D02*
X1244Y1049D01*
D02*
X1144Y1090D02*
X1144Y1049D01*
D02*
X1044Y1090D02*
X1044Y1049D01*
D02*
X944Y1090D02*
X944Y1049D01*
D02*
X844Y1090D02*
X844Y1049D01*
D02*
X744Y1090D02*
X744Y1049D01*
D02*
X644Y1090D02*
X644Y1049D01*
D02*
X1775Y870D02*
X1814Y870D01*
D02*
X1775Y970D02*
X1814Y970D01*
D02*
X1495Y769D02*
X1814Y770D01*
D02*
X794Y769D02*
X1495Y769D01*
D02*
X745Y720D02*
X794Y769D01*
D02*
X644Y900D02*
X644Y991D01*
D02*
X1643Y670D02*
X1814Y670D01*
D02*
X1495Y621D02*
X1643Y670D01*
D02*
X1025Y620D02*
X1495Y621D01*
D02*
X1144Y190D02*
X1144Y149D01*
D02*
X1044Y190D02*
X1044Y149D01*
D02*
X944Y190D02*
X944Y149D01*
D02*
X844Y190D02*
X844Y149D01*
D02*
X1545Y71D02*
X1394Y221D01*
D02*
X1814Y70D02*
X1545Y71D01*
D02*
X1394Y221D02*
X1175Y220D01*
D02*
X1545Y169D02*
X1394Y320D01*
D02*
X1394Y320D02*
X1044Y320D01*
D02*
X1044Y320D02*
X1044Y250D01*
D02*
X1814Y170D02*
X1545Y169D01*
D02*
X1594Y270D02*
X1814Y270D01*
D02*
X1444Y421D02*
X1594Y270D01*
D02*
X745Y421D02*
X1444Y421D01*
D02*
X1643Y369D02*
X1814Y370D01*
D02*
X1025Y520D02*
X1495Y520D01*
D02*
X1495Y520D02*
X1643Y369D01*
D02*
X1875Y370D02*
X2414Y370D01*
D02*
X2414Y270D02*
X1875Y270D01*
D02*
X1875Y170D02*
X2414Y170D01*
D02*
X1875Y70D02*
X2414Y70D01*
D02*
X264Y220D02*
X225Y220D01*
D02*
X225Y320D02*
X264Y320D01*
D02*
X264Y420D02*
X225Y420D01*
D02*
X264Y520D02*
X225Y520D01*
D02*
X294Y621D02*
X294Y550D01*
D02*
X244Y870D02*
X244Y1090D01*
D02*
X375Y1120D02*
X414Y1120D01*
D02*
X275Y1120D02*
X314Y1120D01*
G54D13*
X2341Y882D02*
X2696Y882D01*
X2338Y881D02*
X2698Y881D01*
X2337Y880D02*
X2700Y880D01*
X2335Y879D02*
X2701Y879D01*
X2334Y878D02*
X2702Y878D01*
X2334Y877D02*
X2703Y877D01*
X2333Y876D02*
X2703Y876D01*
X2333Y875D02*
X2704Y875D01*
X2332Y874D02*
X2704Y874D01*
X2332Y873D02*
X2704Y873D01*
X2332Y872D02*
X2704Y872D01*
X2332Y871D02*
X2704Y871D01*
X2332Y870D02*
X2705Y870D01*
X2332Y869D02*
X2704Y869D01*
X2332Y868D02*
X2704Y868D01*
X2332Y867D02*
X2704Y867D01*
X2333Y866D02*
X2704Y866D01*
X2333Y865D02*
X2703Y865D01*
X2334Y864D02*
X2703Y864D01*
X2334Y863D02*
X2702Y863D01*
X2335Y862D02*
X2701Y862D01*
X2336Y861D02*
X2700Y861D01*
X2338Y860D02*
X2698Y860D01*
X2340Y859D02*
X2696Y859D01*
D02*
G04 End of Copper0*
M02*