G04 MADE WITH FRITZING*
G04 WWW.FRITZING.ORG*
G04 DOUBLE SIDED*
G04 HOLES PLATED*
G04 CONTOUR ON CENTER OF CONTOUR VECTOR*
%ASAXBY*%
%FSLAX23Y23*%
%MOIN*%
%OFA0B0*%
%SFA1.0B1.0*%
%ADD10C,0.077778*%
%ADD11C,0.078000*%
%ADD12C,0.024000*%
%ADD13R,0.001000X0.001000*%
%LNCOPPER1*%
G90*
G70*
G54D10*
X1344Y1020D03*
X1244Y1020D03*
X1144Y1020D03*
X1044Y1020D03*
X944Y1020D03*
X844Y1020D03*
X744Y1020D03*
X644Y1020D03*
X644Y120D03*
X744Y120D03*
X844Y120D03*
X944Y120D03*
X1044Y120D03*
X1144Y120D03*
X1244Y120D03*
X1344Y120D03*
G54D11*
X644Y1120D03*
X744Y1120D03*
X844Y1120D03*
X944Y1120D03*
X1044Y1120D03*
X1144Y1120D03*
X1244Y1120D03*
X1344Y1120D03*
X2694Y470D03*
X2694Y570D03*
X2694Y670D03*
X2694Y770D03*
X2694Y870D03*
X2694Y970D03*
X2344Y470D03*
X2344Y570D03*
X2344Y670D03*
X2344Y770D03*
X2344Y870D03*
X2344Y970D03*
X1844Y970D03*
X1844Y870D03*
X1844Y770D03*
X1844Y670D03*
X1844Y570D03*
X1844Y470D03*
X94Y870D03*
X94Y770D03*
X1744Y970D03*
X1744Y870D03*
X644Y870D03*
X2444Y470D03*
X2444Y570D03*
X2444Y670D03*
X2444Y770D03*
X2444Y870D03*
X2444Y970D03*
X844Y220D03*
X944Y220D03*
X1044Y220D03*
X1144Y220D03*
X1844Y70D03*
X1844Y170D03*
X1844Y270D03*
X1844Y370D03*
X994Y620D03*
X994Y520D03*
X644Y520D03*
X2344Y70D03*
X2344Y170D03*
X2344Y270D03*
X2344Y370D03*
X2444Y70D03*
X2444Y170D03*
X2444Y270D03*
X2444Y370D03*
X1944Y70D03*
X1944Y170D03*
X1944Y270D03*
X1944Y370D03*
X194Y220D03*
X194Y320D03*
X194Y420D03*
X194Y520D03*
X294Y220D03*
X294Y320D03*
X294Y420D03*
X294Y520D03*
X744Y420D03*
X244Y1120D03*
X344Y1120D03*
X444Y1120D03*
G54D12*
X1545Y969D02*
X1244Y769D01*
D02*
X1814Y970D02*
X1545Y969D01*
D02*
X1244Y769D02*
X1244Y149D01*
D02*
X1345Y720D02*
X1545Y870D01*
D02*
X1545Y870D02*
X1814Y870D01*
D02*
X1344Y149D02*
X1345Y720D01*
D02*
X1814Y970D02*
X1775Y970D01*
D02*
X1775Y870D02*
X1814Y870D01*
D02*
X970Y637D02*
X669Y852D01*
D02*
X964Y520D02*
X675Y520D01*
D02*
X325Y220D02*
X814Y220D01*
D02*
X945Y320D02*
X945Y250D01*
D02*
X325Y320D02*
X945Y320D01*
D02*
X325Y420D02*
X714Y420D01*
D02*
X264Y520D02*
X225Y520D01*
D02*
X225Y420D02*
X264Y420D01*
D02*
X225Y320D02*
X264Y320D01*
D02*
X264Y220D02*
X225Y220D01*
D02*
X1344Y1090D02*
X1344Y1049D01*
D02*
X1244Y1090D02*
X1244Y1049D01*
D02*
X1144Y1090D02*
X1144Y1049D01*
D02*
X1044Y1090D02*
X1044Y1049D01*
D02*
X944Y1090D02*
X944Y1049D01*
D02*
X844Y1090D02*
X844Y1049D01*
D02*
X744Y1090D02*
X744Y1049D01*
D02*
X644Y1090D02*
X644Y1049D01*
D02*
X844Y190D02*
X844Y149D01*
D02*
X944Y190D02*
X944Y149D01*
D02*
X1044Y190D02*
X1044Y149D01*
D02*
X1144Y190D02*
X1144Y149D01*
D02*
X314Y1120D02*
X275Y1120D01*
D02*
X375Y1120D02*
X414Y1120D01*
G54D13*
X2062Y1144D02*
X2067Y1144D01*
X2145Y1144D02*
X2169Y1144D01*
X2207Y1144D02*
X2254Y1144D01*
X2061Y1143D02*
X2068Y1143D01*
X2144Y1143D02*
X2170Y1143D01*
X2206Y1143D02*
X2254Y1143D01*
X2061Y1142D02*
X2069Y1142D01*
X2143Y1142D02*
X2171Y1142D01*
X2205Y1142D02*
X2254Y1142D01*
X2060Y1141D02*
X2069Y1141D01*
X2143Y1141D02*
X2171Y1141D01*
X2205Y1141D02*
X2254Y1141D01*
X2060Y1140D02*
X2069Y1140D01*
X2143Y1140D02*
X2171Y1140D01*
X2205Y1140D02*
X2254Y1140D01*
X2060Y1139D02*
X2069Y1139D01*
X2143Y1139D02*
X2171Y1139D01*
X2205Y1139D02*
X2254Y1139D01*
X2060Y1138D02*
X2069Y1138D01*
X2143Y1138D02*
X2171Y1138D01*
X2205Y1138D02*
X2254Y1138D01*
X2060Y1137D02*
X2069Y1137D01*
X2143Y1137D02*
X2171Y1137D01*
X2205Y1137D02*
X2254Y1137D01*
X2060Y1136D02*
X2069Y1136D01*
X2143Y1136D02*
X2171Y1136D01*
X2205Y1136D02*
X2254Y1136D01*
X2060Y1135D02*
X2069Y1135D01*
X2143Y1135D02*
X2171Y1135D01*
X2205Y1135D02*
X2254Y1135D01*
X2060Y1134D02*
X2069Y1134D01*
X2143Y1134D02*
X2152Y1134D01*
X2162Y1134D02*
X2171Y1134D01*
X2205Y1134D02*
X2214Y1134D01*
X2244Y1134D02*
X2254Y1134D01*
X2060Y1133D02*
X2069Y1133D01*
X2143Y1133D02*
X2152Y1133D01*
X2162Y1133D02*
X2171Y1133D01*
X2206Y1133D02*
X2213Y1133D01*
X2244Y1133D02*
X2254Y1133D01*
X2060Y1132D02*
X2069Y1132D01*
X2143Y1132D02*
X2152Y1132D01*
X2162Y1132D02*
X2171Y1132D01*
X2207Y1132D02*
X2212Y1132D01*
X2244Y1132D02*
X2254Y1132D01*
X2060Y1131D02*
X2069Y1131D01*
X2143Y1131D02*
X2152Y1131D01*
X2162Y1131D02*
X2171Y1131D01*
X2208Y1131D02*
X2210Y1131D01*
X2244Y1131D02*
X2254Y1131D01*
X2060Y1130D02*
X2069Y1130D01*
X2143Y1130D02*
X2152Y1130D01*
X2162Y1130D02*
X2171Y1130D01*
X2244Y1130D02*
X2254Y1130D01*
X2060Y1129D02*
X2069Y1129D01*
X2143Y1129D02*
X2152Y1129D01*
X2162Y1129D02*
X2171Y1129D01*
X2244Y1129D02*
X2254Y1129D01*
X2060Y1128D02*
X2069Y1128D01*
X2143Y1128D02*
X2152Y1128D01*
X2162Y1128D02*
X2171Y1128D01*
X2244Y1128D02*
X2254Y1128D01*
X2060Y1127D02*
X2069Y1127D01*
X2143Y1127D02*
X2152Y1127D01*
X2162Y1127D02*
X2171Y1127D01*
X2244Y1127D02*
X2254Y1127D01*
X2060Y1126D02*
X2069Y1126D01*
X2143Y1126D02*
X2152Y1126D01*
X2162Y1126D02*
X2171Y1126D01*
X2244Y1126D02*
X2254Y1126D01*
X2060Y1125D02*
X2069Y1125D01*
X2143Y1125D02*
X2152Y1125D01*
X2162Y1125D02*
X2171Y1125D01*
X2244Y1125D02*
X2254Y1125D01*
X2060Y1124D02*
X2069Y1124D01*
X2143Y1124D02*
X2152Y1124D01*
X2162Y1124D02*
X2171Y1124D01*
X2244Y1124D02*
X2254Y1124D01*
X1935Y1123D02*
X1962Y1123D01*
X1990Y1123D02*
X1994Y1123D01*
X2002Y1123D02*
X2009Y1123D01*
X2022Y1123D02*
X2027Y1123D01*
X2060Y1123D02*
X2069Y1123D01*
X2079Y1123D02*
X2095Y1123D01*
X2143Y1123D02*
X2152Y1123D01*
X2162Y1123D02*
X2171Y1123D01*
X2244Y1123D02*
X2254Y1123D01*
X1932Y1122D02*
X1963Y1122D01*
X1988Y1122D02*
X1995Y1122D01*
X1999Y1122D02*
X2011Y1122D01*
X2019Y1122D02*
X2030Y1122D01*
X2060Y1122D02*
X2069Y1122D01*
X2077Y1122D02*
X2097Y1122D01*
X2143Y1122D02*
X2152Y1122D01*
X2162Y1122D02*
X2171Y1122D01*
X2244Y1122D02*
X2254Y1122D01*
X1930Y1121D02*
X1964Y1121D01*
X1988Y1121D02*
X1996Y1121D01*
X1998Y1121D02*
X2012Y1121D01*
X2018Y1121D02*
X2031Y1121D01*
X2060Y1121D02*
X2069Y1121D01*
X2075Y1121D02*
X2099Y1121D01*
X2143Y1121D02*
X2152Y1121D01*
X2162Y1121D02*
X2171Y1121D01*
X2244Y1121D02*
X2254Y1121D01*
X1929Y1120D02*
X1964Y1120D01*
X1987Y1120D02*
X2013Y1120D01*
X2017Y1120D02*
X2032Y1120D01*
X2060Y1120D02*
X2069Y1120D01*
X2074Y1120D02*
X2100Y1120D01*
X2143Y1120D02*
X2152Y1120D01*
X2162Y1120D02*
X2171Y1120D01*
X2244Y1120D02*
X2254Y1120D01*
X1928Y1119D02*
X1964Y1119D01*
X1987Y1119D02*
X2033Y1119D01*
X2060Y1119D02*
X2069Y1119D01*
X2072Y1119D02*
X2102Y1119D01*
X2143Y1119D02*
X2152Y1119D01*
X2162Y1119D02*
X2171Y1119D01*
X2244Y1119D02*
X2254Y1119D01*
X1927Y1118D02*
X1964Y1118D01*
X1987Y1118D02*
X2034Y1118D01*
X2060Y1118D02*
X2069Y1118D01*
X2071Y1118D02*
X2103Y1118D01*
X2143Y1118D02*
X2152Y1118D01*
X2162Y1118D02*
X2171Y1118D01*
X2244Y1118D02*
X2254Y1118D01*
X1926Y1117D02*
X1964Y1117D01*
X1987Y1117D02*
X2035Y1117D01*
X2060Y1117D02*
X2104Y1117D01*
X2143Y1117D02*
X2152Y1117D01*
X2162Y1117D02*
X2171Y1117D01*
X2244Y1117D02*
X2254Y1117D01*
X1924Y1116D02*
X1964Y1116D01*
X1987Y1116D02*
X2035Y1116D01*
X2060Y1116D02*
X2105Y1116D01*
X2143Y1116D02*
X2152Y1116D01*
X2162Y1116D02*
X2171Y1116D01*
X2244Y1116D02*
X2254Y1116D01*
X1923Y1115D02*
X1963Y1115D01*
X1987Y1115D02*
X2036Y1115D01*
X2060Y1115D02*
X2106Y1115D01*
X2143Y1115D02*
X2152Y1115D01*
X2162Y1115D02*
X2171Y1115D01*
X2242Y1115D02*
X2254Y1115D01*
X1922Y1114D02*
X1961Y1114D01*
X1987Y1114D02*
X2036Y1114D01*
X2060Y1114D02*
X2106Y1114D01*
X2143Y1114D02*
X2152Y1114D01*
X2162Y1114D02*
X2171Y1114D01*
X2241Y1114D02*
X2254Y1114D01*
X1921Y1113D02*
X1936Y1113D01*
X1987Y1113D02*
X2003Y1113D01*
X2007Y1113D02*
X2023Y1113D01*
X2027Y1113D02*
X2036Y1113D01*
X2060Y1113D02*
X2080Y1113D01*
X2094Y1113D02*
X2107Y1113D01*
X2143Y1113D02*
X2152Y1113D01*
X2162Y1113D02*
X2171Y1113D01*
X2240Y1113D02*
X2253Y1113D01*
X1920Y1112D02*
X1935Y1112D01*
X1987Y1112D02*
X2002Y1112D01*
X2008Y1112D02*
X2022Y1112D01*
X2027Y1112D02*
X2036Y1112D01*
X2060Y1112D02*
X2079Y1112D01*
X2095Y1112D02*
X2108Y1112D01*
X2143Y1112D02*
X2152Y1112D01*
X2162Y1112D02*
X2171Y1112D01*
X2239Y1112D02*
X2253Y1112D01*
X1919Y1111D02*
X1933Y1111D01*
X1987Y1111D02*
X2001Y1111D01*
X2008Y1111D02*
X2021Y1111D01*
X2027Y1111D02*
X2036Y1111D01*
X2060Y1111D02*
X2078Y1111D01*
X2096Y1111D02*
X2108Y1111D01*
X2141Y1111D02*
X2172Y1111D01*
X2238Y1111D02*
X2252Y1111D01*
X1918Y1110D02*
X1932Y1110D01*
X1987Y1110D02*
X2000Y1110D01*
X2008Y1110D02*
X2019Y1110D01*
X2027Y1110D02*
X2036Y1110D01*
X2060Y1110D02*
X2077Y1110D01*
X2097Y1110D02*
X2108Y1110D01*
X2138Y1110D02*
X2176Y1110D01*
X2237Y1110D02*
X2251Y1110D01*
X1918Y1109D02*
X1931Y1109D01*
X1987Y1109D02*
X1998Y1109D01*
X2008Y1109D02*
X2018Y1109D01*
X2027Y1109D02*
X2036Y1109D01*
X2060Y1109D02*
X2076Y1109D01*
X2098Y1109D02*
X2109Y1109D01*
X2137Y1109D02*
X2177Y1109D01*
X2235Y1109D02*
X2250Y1109D01*
X1917Y1108D02*
X1930Y1108D01*
X1987Y1108D02*
X1997Y1108D01*
X2008Y1108D02*
X2017Y1108D01*
X2027Y1108D02*
X2036Y1108D01*
X2060Y1108D02*
X2074Y1108D01*
X2099Y1108D02*
X2109Y1108D01*
X2135Y1108D02*
X2178Y1108D01*
X2234Y1108D02*
X2249Y1108D01*
X1917Y1107D02*
X1929Y1107D01*
X1987Y1107D02*
X1996Y1107D01*
X2008Y1107D02*
X2017Y1107D01*
X2027Y1107D02*
X2036Y1107D01*
X2060Y1107D02*
X2073Y1107D01*
X2100Y1107D02*
X2109Y1107D01*
X2135Y1107D02*
X2179Y1107D01*
X2233Y1107D02*
X2248Y1107D01*
X1916Y1106D02*
X1928Y1106D01*
X1987Y1106D02*
X1996Y1106D01*
X2008Y1106D02*
X2017Y1106D01*
X2027Y1106D02*
X2036Y1106D01*
X2060Y1106D02*
X2072Y1106D01*
X2100Y1106D02*
X2109Y1106D01*
X2134Y1106D02*
X2180Y1106D01*
X2232Y1106D02*
X2246Y1106D01*
X1916Y1105D02*
X1926Y1105D01*
X1987Y1105D02*
X1996Y1105D01*
X2008Y1105D02*
X2017Y1105D01*
X2027Y1105D02*
X2036Y1105D01*
X2060Y1105D02*
X2071Y1105D01*
X2100Y1105D02*
X2109Y1105D01*
X2133Y1105D02*
X2180Y1105D01*
X2231Y1105D02*
X2245Y1105D01*
X1916Y1104D02*
X1926Y1104D01*
X1987Y1104D02*
X1996Y1104D01*
X2008Y1104D02*
X2017Y1104D01*
X2027Y1104D02*
X2036Y1104D01*
X2060Y1104D02*
X2070Y1104D01*
X2100Y1104D02*
X2109Y1104D01*
X2133Y1104D02*
X2181Y1104D01*
X2229Y1104D02*
X2244Y1104D01*
X1916Y1103D02*
X1925Y1103D01*
X1987Y1103D02*
X1996Y1103D01*
X2008Y1103D02*
X2017Y1103D01*
X2027Y1103D02*
X2036Y1103D01*
X2060Y1103D02*
X2070Y1103D01*
X2100Y1103D02*
X2109Y1103D01*
X2133Y1103D02*
X2181Y1103D01*
X2228Y1103D02*
X2243Y1103D01*
X1916Y1102D02*
X1925Y1102D01*
X1987Y1102D02*
X1996Y1102D01*
X2008Y1102D02*
X2017Y1102D01*
X2027Y1102D02*
X2036Y1102D01*
X2060Y1102D02*
X2069Y1102D01*
X2100Y1102D02*
X2109Y1102D01*
X2133Y1102D02*
X2181Y1102D01*
X2227Y1102D02*
X2242Y1102D01*
X1916Y1101D02*
X1925Y1101D01*
X1987Y1101D02*
X1996Y1101D01*
X2008Y1101D02*
X2017Y1101D01*
X2027Y1101D02*
X2036Y1101D01*
X2060Y1101D02*
X2069Y1101D01*
X2100Y1101D02*
X2109Y1101D01*
X2133Y1101D02*
X2181Y1101D01*
X2226Y1101D02*
X2241Y1101D01*
X1916Y1100D02*
X1925Y1100D01*
X1987Y1100D02*
X1996Y1100D01*
X2008Y1100D02*
X2017Y1100D01*
X2027Y1100D02*
X2036Y1100D01*
X2060Y1100D02*
X2069Y1100D01*
X2100Y1100D02*
X2109Y1100D01*
X2133Y1100D02*
X2142Y1100D01*
X2172Y1100D02*
X2181Y1100D01*
X2225Y1100D02*
X2239Y1100D01*
X1916Y1099D02*
X1925Y1099D01*
X1987Y1099D02*
X1996Y1099D01*
X2008Y1099D02*
X2017Y1099D01*
X2027Y1099D02*
X2036Y1099D01*
X2060Y1099D02*
X2069Y1099D01*
X2100Y1099D02*
X2109Y1099D01*
X2133Y1099D02*
X2142Y1099D01*
X2172Y1099D02*
X2181Y1099D01*
X2225Y1099D02*
X2238Y1099D01*
X1916Y1098D02*
X1925Y1098D01*
X1987Y1098D02*
X1996Y1098D01*
X2008Y1098D02*
X2017Y1098D01*
X2027Y1098D02*
X2037Y1098D01*
X2060Y1098D02*
X2069Y1098D01*
X2100Y1098D02*
X2109Y1098D01*
X2133Y1098D02*
X2142Y1098D01*
X2172Y1098D02*
X2181Y1098D01*
X2225Y1098D02*
X2237Y1098D01*
X1916Y1097D02*
X1925Y1097D01*
X1987Y1097D02*
X1996Y1097D01*
X2008Y1097D02*
X2017Y1097D01*
X2027Y1097D02*
X2037Y1097D01*
X2060Y1097D02*
X2069Y1097D01*
X2100Y1097D02*
X2109Y1097D01*
X2133Y1097D02*
X2142Y1097D01*
X2172Y1097D02*
X2181Y1097D01*
X2225Y1097D02*
X2236Y1097D01*
X1916Y1096D02*
X1925Y1096D01*
X1987Y1096D02*
X1996Y1096D01*
X2008Y1096D02*
X2017Y1096D01*
X2028Y1096D02*
X2037Y1096D01*
X2060Y1096D02*
X2069Y1096D01*
X2100Y1096D02*
X2109Y1096D01*
X2133Y1096D02*
X2142Y1096D01*
X2172Y1096D02*
X2181Y1096D01*
X2225Y1096D02*
X2235Y1096D01*
X1916Y1095D02*
X1925Y1095D01*
X1987Y1095D02*
X1996Y1095D01*
X2008Y1095D02*
X2017Y1095D01*
X2028Y1095D02*
X2037Y1095D01*
X2060Y1095D02*
X2069Y1095D01*
X2100Y1095D02*
X2109Y1095D01*
X2133Y1095D02*
X2142Y1095D01*
X2172Y1095D02*
X2181Y1095D01*
X2225Y1095D02*
X2234Y1095D01*
X1916Y1094D02*
X1925Y1094D01*
X1987Y1094D02*
X1996Y1094D01*
X2008Y1094D02*
X2017Y1094D01*
X2028Y1094D02*
X2037Y1094D01*
X2060Y1094D02*
X2069Y1094D01*
X2100Y1094D02*
X2109Y1094D01*
X2133Y1094D02*
X2142Y1094D01*
X2172Y1094D02*
X2181Y1094D01*
X2225Y1094D02*
X2234Y1094D01*
X1916Y1093D02*
X1925Y1093D01*
X1987Y1093D02*
X1996Y1093D01*
X2008Y1093D02*
X2017Y1093D01*
X2028Y1093D02*
X2037Y1093D01*
X2060Y1093D02*
X2069Y1093D01*
X2100Y1093D02*
X2109Y1093D01*
X2133Y1093D02*
X2142Y1093D01*
X2172Y1093D02*
X2181Y1093D01*
X2225Y1093D02*
X2234Y1093D01*
X1916Y1092D02*
X1925Y1092D01*
X1987Y1092D02*
X1996Y1092D01*
X2008Y1092D02*
X2017Y1092D01*
X2028Y1092D02*
X2037Y1092D01*
X2060Y1092D02*
X2069Y1092D01*
X2100Y1092D02*
X2109Y1092D01*
X2133Y1092D02*
X2142Y1092D01*
X2172Y1092D02*
X2181Y1092D01*
X2225Y1092D02*
X2234Y1092D01*
X1916Y1091D02*
X1925Y1091D01*
X1987Y1091D02*
X1996Y1091D01*
X2008Y1091D02*
X2017Y1091D01*
X2028Y1091D02*
X2037Y1091D01*
X2060Y1091D02*
X2069Y1091D01*
X2100Y1091D02*
X2109Y1091D01*
X2133Y1091D02*
X2142Y1091D01*
X2172Y1091D02*
X2181Y1091D01*
X2225Y1091D02*
X2234Y1091D01*
X1916Y1090D02*
X1925Y1090D01*
X1987Y1090D02*
X1996Y1090D01*
X2008Y1090D02*
X2017Y1090D01*
X2028Y1090D02*
X2037Y1090D01*
X2060Y1090D02*
X2069Y1090D01*
X2100Y1090D02*
X2109Y1090D01*
X2133Y1090D02*
X2142Y1090D01*
X2172Y1090D02*
X2181Y1090D01*
X2225Y1090D02*
X2234Y1090D01*
X1916Y1089D02*
X1925Y1089D01*
X1987Y1089D02*
X1996Y1089D01*
X2008Y1089D02*
X2017Y1089D01*
X2028Y1089D02*
X2037Y1089D01*
X2060Y1089D02*
X2069Y1089D01*
X2100Y1089D02*
X2109Y1089D01*
X2133Y1089D02*
X2142Y1089D01*
X2172Y1089D02*
X2181Y1089D01*
X2225Y1089D02*
X2234Y1089D01*
X1916Y1088D02*
X1925Y1088D01*
X1987Y1088D02*
X1996Y1088D01*
X2008Y1088D02*
X2017Y1088D01*
X2028Y1088D02*
X2037Y1088D01*
X2060Y1088D02*
X2070Y1088D01*
X2100Y1088D02*
X2109Y1088D01*
X2133Y1088D02*
X2142Y1088D01*
X2172Y1088D02*
X2181Y1088D01*
X2225Y1088D02*
X2234Y1088D01*
X1916Y1087D02*
X1925Y1087D01*
X1987Y1087D02*
X1996Y1087D01*
X2008Y1087D02*
X2017Y1087D01*
X2028Y1087D02*
X2037Y1087D01*
X2060Y1087D02*
X2070Y1087D01*
X2100Y1087D02*
X2109Y1087D01*
X2133Y1087D02*
X2142Y1087D01*
X2172Y1087D02*
X2181Y1087D01*
X2225Y1087D02*
X2234Y1087D01*
X1916Y1086D02*
X1926Y1086D01*
X1987Y1086D02*
X1996Y1086D01*
X2008Y1086D02*
X2017Y1086D01*
X2028Y1086D02*
X2037Y1086D01*
X2060Y1086D02*
X2071Y1086D01*
X2100Y1086D02*
X2109Y1086D01*
X2133Y1086D02*
X2142Y1086D01*
X2172Y1086D02*
X2181Y1086D01*
X2225Y1086D02*
X2234Y1086D01*
X1916Y1085D02*
X1927Y1085D01*
X1987Y1085D02*
X1996Y1085D01*
X2008Y1085D02*
X2017Y1085D01*
X2028Y1085D02*
X2037Y1085D01*
X2060Y1085D02*
X2072Y1085D01*
X2100Y1085D02*
X2109Y1085D01*
X2133Y1085D02*
X2142Y1085D01*
X2172Y1085D02*
X2181Y1085D01*
X2225Y1085D02*
X2234Y1085D01*
X1917Y1084D02*
X1928Y1084D01*
X1987Y1084D02*
X1996Y1084D01*
X2008Y1084D02*
X2017Y1084D01*
X2028Y1084D02*
X2037Y1084D01*
X2060Y1084D02*
X2073Y1084D01*
X2100Y1084D02*
X2109Y1084D01*
X2133Y1084D02*
X2142Y1084D01*
X2172Y1084D02*
X2181Y1084D01*
X2225Y1084D02*
X2234Y1084D01*
X1917Y1083D02*
X1930Y1083D01*
X1987Y1083D02*
X1996Y1083D01*
X2008Y1083D02*
X2017Y1083D01*
X2028Y1083D02*
X2037Y1083D01*
X2060Y1083D02*
X2074Y1083D01*
X2099Y1083D02*
X2109Y1083D01*
X2133Y1083D02*
X2142Y1083D01*
X2172Y1083D02*
X2181Y1083D01*
X2225Y1083D02*
X2234Y1083D01*
X1918Y1082D02*
X1931Y1082D01*
X1987Y1082D02*
X1996Y1082D01*
X2008Y1082D02*
X2017Y1082D01*
X2028Y1082D02*
X2037Y1082D01*
X2060Y1082D02*
X2075Y1082D01*
X2099Y1082D02*
X2109Y1082D01*
X2133Y1082D02*
X2142Y1082D01*
X2172Y1082D02*
X2181Y1082D01*
X2225Y1082D02*
X2234Y1082D01*
X1918Y1081D02*
X1932Y1081D01*
X1987Y1081D02*
X1996Y1081D01*
X2008Y1081D02*
X2017Y1081D01*
X2028Y1081D02*
X2037Y1081D01*
X2060Y1081D02*
X2077Y1081D01*
X2098Y1081D02*
X2109Y1081D01*
X2133Y1081D02*
X2142Y1081D01*
X2172Y1081D02*
X2181Y1081D01*
X2225Y1081D02*
X2234Y1081D01*
X1919Y1080D02*
X1933Y1080D01*
X1987Y1080D02*
X1996Y1080D01*
X2008Y1080D02*
X2017Y1080D01*
X2028Y1080D02*
X2037Y1080D01*
X2060Y1080D02*
X2078Y1080D01*
X2097Y1080D02*
X2108Y1080D01*
X2133Y1080D02*
X2142Y1080D01*
X2172Y1080D02*
X2181Y1080D01*
X2225Y1080D02*
X2234Y1080D01*
X1920Y1079D02*
X1934Y1079D01*
X1987Y1079D02*
X1996Y1079D01*
X2008Y1079D02*
X2017Y1079D01*
X2028Y1079D02*
X2037Y1079D01*
X2060Y1079D02*
X2079Y1079D01*
X2095Y1079D02*
X2108Y1079D01*
X2133Y1079D02*
X2142Y1079D01*
X2172Y1079D02*
X2181Y1079D01*
X2225Y1079D02*
X2234Y1079D01*
X1921Y1078D02*
X1936Y1078D01*
X1987Y1078D02*
X1996Y1078D01*
X2008Y1078D02*
X2017Y1078D01*
X2028Y1078D02*
X2037Y1078D01*
X2060Y1078D02*
X2080Y1078D01*
X2094Y1078D02*
X2107Y1078D01*
X2133Y1078D02*
X2142Y1078D01*
X2172Y1078D02*
X2181Y1078D01*
X2225Y1078D02*
X2234Y1078D01*
X1922Y1077D02*
X1960Y1077D01*
X1987Y1077D02*
X1996Y1077D01*
X2008Y1077D02*
X2017Y1077D01*
X2028Y1077D02*
X2037Y1077D01*
X2060Y1077D02*
X2107Y1077D01*
X2133Y1077D02*
X2181Y1077D01*
X2225Y1077D02*
X2234Y1077D01*
X1923Y1076D02*
X1962Y1076D01*
X1987Y1076D02*
X1996Y1076D01*
X2008Y1076D02*
X2017Y1076D01*
X2028Y1076D02*
X2037Y1076D01*
X2060Y1076D02*
X2106Y1076D01*
X2133Y1076D02*
X2181Y1076D01*
X2225Y1076D02*
X2234Y1076D01*
X1924Y1075D02*
X1963Y1075D01*
X1987Y1075D02*
X1996Y1075D01*
X2008Y1075D02*
X2017Y1075D01*
X2028Y1075D02*
X2037Y1075D01*
X2060Y1075D02*
X2105Y1075D01*
X2133Y1075D02*
X2181Y1075D01*
X2225Y1075D02*
X2234Y1075D01*
X1926Y1074D02*
X1964Y1074D01*
X1987Y1074D02*
X1996Y1074D01*
X2008Y1074D02*
X2017Y1074D01*
X2028Y1074D02*
X2037Y1074D01*
X2060Y1074D02*
X2104Y1074D01*
X2133Y1074D02*
X2181Y1074D01*
X2225Y1074D02*
X2234Y1074D01*
X1927Y1073D02*
X1964Y1073D01*
X1987Y1073D02*
X1996Y1073D01*
X2008Y1073D02*
X2017Y1073D01*
X2028Y1073D02*
X2037Y1073D01*
X2060Y1073D02*
X2103Y1073D01*
X2133Y1073D02*
X2180Y1073D01*
X2225Y1073D02*
X2234Y1073D01*
X1928Y1072D02*
X1964Y1072D01*
X1987Y1072D02*
X1996Y1072D01*
X2008Y1072D02*
X2017Y1072D01*
X2028Y1072D02*
X2037Y1072D01*
X2060Y1072D02*
X2069Y1072D01*
X2072Y1072D02*
X2102Y1072D01*
X2134Y1072D02*
X2180Y1072D01*
X2225Y1072D02*
X2234Y1072D01*
X1929Y1071D02*
X1964Y1071D01*
X1987Y1071D02*
X1996Y1071D01*
X2008Y1071D02*
X2017Y1071D01*
X2029Y1071D02*
X2037Y1071D01*
X2060Y1071D02*
X2069Y1071D01*
X2073Y1071D02*
X2101Y1071D01*
X2135Y1071D02*
X2179Y1071D01*
X2225Y1071D02*
X2233Y1071D01*
X1930Y1070D02*
X1964Y1070D01*
X1988Y1070D02*
X1996Y1070D01*
X2008Y1070D02*
X2016Y1070D01*
X2029Y1070D02*
X2037Y1070D01*
X2061Y1070D02*
X2069Y1070D01*
X2075Y1070D02*
X2099Y1070D01*
X2136Y1070D02*
X2178Y1070D01*
X2225Y1070D02*
X2233Y1070D01*
X1932Y1069D02*
X1963Y1069D01*
X1988Y1069D02*
X1995Y1069D01*
X2009Y1069D02*
X2016Y1069D01*
X2030Y1069D02*
X2036Y1069D01*
X2061Y1069D02*
X2068Y1069D01*
X2076Y1069D02*
X2098Y1069D01*
X2137Y1069D02*
X2177Y1069D01*
X2226Y1069D02*
X2233Y1069D01*
X1934Y1068D02*
X1962Y1068D01*
X1989Y1068D02*
X1994Y1068D01*
X2010Y1068D02*
X2015Y1068D01*
X2031Y1068D02*
X2035Y1068D01*
X2062Y1068D02*
X2067Y1068D01*
X2079Y1068D02*
X2096Y1068D01*
X2138Y1068D02*
X2175Y1068D01*
X2227Y1068D02*
X2232Y1068D01*
X1939Y1067D02*
X1959Y1067D01*
X2084Y1067D02*
X2091Y1067D01*
X2142Y1067D02*
X2171Y1067D01*
X332Y1016D02*
X375Y1016D01*
X330Y1015D02*
X376Y1015D01*
X330Y1014D02*
X377Y1014D01*
X329Y1013D02*
X377Y1013D01*
X329Y1012D02*
X377Y1012D01*
X329Y1011D02*
X378Y1011D01*
X329Y1010D02*
X378Y1010D01*
X329Y1009D02*
X378Y1009D01*
X329Y1008D02*
X378Y1008D01*
X2552Y1008D02*
X2557Y1008D01*
X329Y1007D02*
X378Y1007D01*
X2551Y1007D02*
X2558Y1007D01*
X329Y1006D02*
X377Y1006D01*
X2551Y1006D02*
X2559Y1006D01*
X329Y1005D02*
X377Y1005D01*
X2550Y1005D02*
X2559Y1005D01*
X330Y1004D02*
X376Y1004D01*
X2550Y1004D02*
X2559Y1004D01*
X331Y1003D02*
X375Y1003D01*
X2550Y1003D02*
X2559Y1003D01*
X2550Y1002D02*
X2559Y1002D01*
X2550Y1001D02*
X2559Y1001D01*
X2550Y1000D02*
X2559Y1000D01*
X2550Y999D02*
X2559Y999D01*
X2550Y998D02*
X2559Y998D01*
X2550Y997D02*
X2559Y997D01*
X2550Y996D02*
X2559Y996D01*
X2550Y995D02*
X2559Y995D01*
X2550Y994D02*
X2559Y994D01*
X2550Y993D02*
X2559Y993D01*
X2545Y992D02*
X2579Y992D01*
X2543Y991D02*
X2582Y991D01*
X2542Y990D02*
X2583Y990D01*
X2541Y989D02*
X2584Y989D01*
X67Y988D02*
X111Y988D01*
X2541Y988D02*
X2584Y988D01*
X66Y987D02*
X112Y987D01*
X2540Y987D02*
X2584Y987D01*
X65Y986D02*
X113Y986D01*
X2541Y986D02*
X2584Y986D01*
X65Y985D02*
X113Y985D01*
X2541Y985D02*
X2584Y985D01*
X65Y984D02*
X113Y984D01*
X2541Y984D02*
X2583Y984D01*
X64Y983D02*
X113Y983D01*
X2542Y983D02*
X2582Y983D01*
X64Y982D02*
X113Y982D01*
X2545Y982D02*
X2580Y982D01*
X64Y981D02*
X113Y981D01*
X2550Y981D02*
X2559Y981D01*
X64Y980D02*
X113Y980D01*
X2550Y980D02*
X2559Y980D01*
X65Y979D02*
X113Y979D01*
X2550Y979D02*
X2559Y979D01*
X65Y978D02*
X113Y978D01*
X2550Y978D02*
X2559Y978D01*
X65Y977D02*
X113Y977D01*
X2550Y977D02*
X2559Y977D01*
X66Y976D02*
X112Y976D01*
X2550Y976D02*
X2559Y976D01*
X67Y975D02*
X111Y975D01*
X2550Y975D02*
X2559Y975D01*
X2550Y974D02*
X2559Y974D01*
X2550Y973D02*
X2559Y973D01*
X2550Y972D02*
X2559Y972D01*
X2550Y971D02*
X2559Y971D01*
X2550Y970D02*
X2559Y970D01*
X2550Y969D02*
X2559Y969D01*
X2550Y968D02*
X2559Y968D01*
X2550Y967D02*
X2559Y967D01*
X2550Y966D02*
X2559Y966D01*
X2550Y965D02*
X2559Y965D01*
X2550Y964D02*
X2559Y964D01*
X2550Y963D02*
X2559Y963D01*
X2550Y962D02*
X2559Y962D01*
X2550Y961D02*
X2559Y961D01*
X2550Y960D02*
X2559Y960D01*
X2550Y959D02*
X2559Y959D01*
X2550Y958D02*
X2559Y958D01*
X2550Y957D02*
X2559Y957D01*
X2550Y956D02*
X2559Y956D01*
X2550Y955D02*
X2559Y955D01*
X2550Y954D02*
X2559Y954D01*
X2550Y953D02*
X2559Y953D01*
X2583Y953D02*
X2587Y953D01*
X2550Y952D02*
X2559Y952D01*
X2581Y952D02*
X2588Y952D01*
X2550Y951D02*
X2559Y951D01*
X2581Y951D02*
X2589Y951D01*
X2550Y950D02*
X2559Y950D01*
X2580Y950D02*
X2589Y950D01*
X2550Y949D02*
X2560Y949D01*
X2580Y949D02*
X2589Y949D01*
X2551Y948D02*
X2560Y948D01*
X2579Y948D02*
X2589Y948D01*
X2551Y947D02*
X2561Y947D01*
X2579Y947D02*
X2589Y947D01*
X2551Y946D02*
X2562Y946D01*
X2577Y946D02*
X2589Y946D01*
X2551Y945D02*
X2588Y945D01*
X2552Y944D02*
X2588Y944D01*
X2552Y943D02*
X2587Y943D01*
X2553Y942D02*
X2587Y942D01*
X2554Y941D02*
X2586Y941D01*
X2554Y940D02*
X2585Y940D01*
X2555Y939D02*
X2584Y939D01*
X2557Y938D02*
X2583Y938D01*
X2558Y937D02*
X2581Y937D01*
X2561Y936D02*
X2579Y936D01*
X2574Y892D02*
X2585Y892D01*
X2552Y891D02*
X2557Y891D01*
X2572Y891D02*
X2589Y891D01*
X2551Y890D02*
X2558Y890D01*
X2571Y890D02*
X2591Y890D01*
X2551Y889D02*
X2559Y889D01*
X2569Y889D02*
X2593Y889D01*
X2550Y888D02*
X2559Y888D01*
X2568Y888D02*
X2594Y888D01*
X2550Y887D02*
X2559Y887D01*
X2567Y887D02*
X2595Y887D01*
X2550Y886D02*
X2559Y886D01*
X2566Y886D02*
X2596Y886D01*
X2550Y885D02*
X2559Y885D01*
X2565Y885D02*
X2597Y885D01*
X2550Y884D02*
X2559Y884D01*
X2564Y884D02*
X2597Y884D01*
X2550Y883D02*
X2559Y883D01*
X2562Y883D02*
X2598Y883D01*
X2550Y882D02*
X2559Y882D01*
X2561Y882D02*
X2598Y882D01*
X2550Y881D02*
X2575Y881D01*
X2588Y881D02*
X2598Y881D01*
X2550Y880D02*
X2573Y880D01*
X2589Y880D02*
X2599Y880D01*
X2550Y879D02*
X2572Y879D01*
X2589Y879D02*
X2599Y879D01*
X2550Y878D02*
X2571Y878D01*
X2590Y878D02*
X2599Y878D01*
X2550Y877D02*
X2570Y877D01*
X2590Y877D02*
X2599Y877D01*
X2550Y876D02*
X2569Y876D01*
X2590Y876D02*
X2599Y876D01*
X2550Y875D02*
X2568Y875D01*
X2590Y875D02*
X2599Y875D01*
X2550Y874D02*
X2566Y874D01*
X2590Y874D02*
X2599Y874D01*
X2550Y873D02*
X2565Y873D01*
X2590Y873D02*
X2599Y873D01*
X2550Y872D02*
X2564Y872D01*
X2590Y872D02*
X2598Y872D01*
X2550Y871D02*
X2563Y871D01*
X2591Y871D02*
X2598Y871D01*
X2550Y870D02*
X2562Y870D01*
X2592Y870D02*
X2596Y870D01*
X2550Y869D02*
X2561Y869D01*
X2550Y868D02*
X2560Y868D01*
X2550Y867D02*
X2559Y867D01*
X2550Y866D02*
X2559Y866D01*
X2550Y865D02*
X2559Y865D01*
X2550Y864D02*
X2559Y864D01*
X2550Y863D02*
X2559Y863D01*
X2550Y862D02*
X2559Y862D01*
X2550Y861D02*
X2559Y861D01*
X2550Y860D02*
X2559Y860D01*
X2550Y859D02*
X2559Y859D01*
X2550Y858D02*
X2559Y858D01*
X2550Y857D02*
X2559Y857D01*
X2550Y856D02*
X2559Y856D01*
X2550Y855D02*
X2559Y855D01*
X2550Y854D02*
X2559Y854D01*
X2550Y853D02*
X2559Y853D01*
X2550Y852D02*
X2559Y852D01*
X2550Y851D02*
X2559Y851D01*
X2550Y850D02*
X2559Y850D01*
X2550Y849D02*
X2559Y849D01*
X2550Y848D02*
X2559Y848D01*
X2550Y847D02*
X2559Y847D01*
X2550Y846D02*
X2559Y846D01*
X2550Y845D02*
X2559Y845D01*
X2550Y844D02*
X2559Y844D01*
X2550Y843D02*
X2559Y843D01*
X2550Y842D02*
X2559Y842D01*
X2550Y841D02*
X2559Y841D01*
X2550Y840D02*
X2559Y840D01*
X2550Y839D02*
X2559Y839D01*
X2551Y838D02*
X2558Y838D01*
X2551Y837D02*
X2558Y837D01*
X2553Y836D02*
X2557Y836D01*
X2545Y780D02*
X2585Y780D01*
X2543Y779D02*
X2588Y779D01*
X2542Y778D02*
X2589Y778D01*
X2541Y777D02*
X2589Y777D01*
X2541Y776D02*
X2590Y776D01*
X2541Y775D02*
X2590Y775D01*
X2541Y774D02*
X2590Y774D01*
X2541Y773D02*
X2590Y773D01*
X2541Y772D02*
X2590Y772D01*
X2541Y771D02*
X2590Y771D01*
X2541Y770D02*
X2590Y770D01*
X2541Y769D02*
X2589Y769D01*
X2542Y768D02*
X2589Y768D01*
X2543Y767D02*
X2588Y767D01*
X2544Y766D02*
X2586Y766D01*
X2565Y693D02*
X2566Y693D01*
X2563Y692D02*
X2568Y692D01*
X2562Y691D02*
X2569Y691D01*
X2561Y690D02*
X2569Y690D01*
X2561Y689D02*
X2570Y689D01*
X2561Y688D02*
X2570Y688D01*
X2561Y687D02*
X2570Y687D01*
X2561Y686D02*
X2570Y686D01*
X2561Y685D02*
X2570Y685D01*
X2561Y684D02*
X2570Y684D01*
X2561Y683D02*
X2570Y683D01*
X2561Y682D02*
X2570Y682D01*
X2561Y681D02*
X2570Y681D01*
X2561Y680D02*
X2570Y680D01*
X2561Y679D02*
X2570Y679D01*
X2561Y678D02*
X2570Y678D01*
X2561Y677D02*
X2570Y677D01*
X2561Y676D02*
X2570Y676D01*
X91Y675D02*
X93Y675D01*
X2561Y675D02*
X2570Y675D01*
X89Y674D02*
X95Y674D01*
X2561Y674D02*
X2570Y674D01*
X88Y673D02*
X96Y673D01*
X2544Y673D02*
X2587Y673D01*
X88Y672D02*
X96Y672D01*
X2543Y672D02*
X2588Y672D01*
X88Y671D02*
X96Y671D01*
X2542Y671D02*
X2589Y671D01*
X87Y670D02*
X97Y670D01*
X2541Y670D02*
X2589Y670D01*
X87Y669D02*
X97Y669D01*
X2541Y669D02*
X2590Y669D01*
X87Y668D02*
X97Y668D01*
X2541Y668D02*
X2590Y668D01*
X87Y667D02*
X97Y667D01*
X2541Y667D02*
X2589Y667D01*
X87Y666D02*
X97Y666D01*
X2542Y666D02*
X2589Y666D01*
X87Y665D02*
X97Y665D01*
X2542Y665D02*
X2588Y665D01*
X87Y664D02*
X97Y664D01*
X2544Y664D02*
X2587Y664D01*
X87Y663D02*
X97Y663D01*
X2561Y663D02*
X2570Y663D01*
X87Y662D02*
X97Y662D01*
X2561Y662D02*
X2570Y662D01*
X87Y661D02*
X97Y661D01*
X2561Y661D02*
X2570Y661D01*
X87Y660D02*
X97Y660D01*
X2561Y660D02*
X2570Y660D01*
X87Y659D02*
X97Y659D01*
X2561Y659D02*
X2570Y659D01*
X87Y658D02*
X97Y658D01*
X2561Y658D02*
X2570Y658D01*
X87Y657D02*
X97Y657D01*
X2561Y657D02*
X2570Y657D01*
X87Y656D02*
X97Y656D01*
X2561Y656D02*
X2570Y656D01*
X71Y655D02*
X113Y655D01*
X2561Y655D02*
X2570Y655D01*
X69Y654D02*
X115Y654D01*
X2561Y654D02*
X2570Y654D01*
X68Y653D02*
X116Y653D01*
X2561Y653D02*
X2570Y653D01*
X68Y652D02*
X116Y652D01*
X2561Y652D02*
X2570Y652D01*
X68Y651D02*
X116Y651D01*
X2561Y651D02*
X2570Y651D01*
X68Y650D02*
X116Y650D01*
X2561Y650D02*
X2570Y650D01*
X68Y649D02*
X116Y649D01*
X2561Y649D02*
X2570Y649D01*
X68Y648D02*
X116Y648D01*
X2561Y648D02*
X2570Y648D01*
X69Y647D02*
X115Y647D01*
X2561Y647D02*
X2570Y647D01*
X70Y646D02*
X114Y646D01*
X2561Y646D02*
X2569Y646D01*
X87Y645D02*
X97Y645D01*
X2562Y645D02*
X2568Y645D01*
X87Y644D02*
X97Y644D01*
X2564Y644D02*
X2567Y644D01*
X87Y643D02*
X97Y643D01*
X87Y642D02*
X97Y642D01*
X87Y641D02*
X97Y641D01*
X87Y640D02*
X97Y640D01*
X87Y639D02*
X97Y639D01*
X87Y638D02*
X97Y638D01*
X87Y637D02*
X97Y637D01*
X87Y636D02*
X97Y636D01*
X87Y635D02*
X97Y635D01*
X87Y634D02*
X97Y634D01*
X87Y633D02*
X97Y633D01*
X87Y632D02*
X97Y632D01*
X87Y631D02*
X97Y631D01*
X88Y630D02*
X96Y630D01*
X88Y629D02*
X96Y629D01*
X88Y628D02*
X96Y628D01*
X89Y627D02*
X95Y627D01*
X90Y626D02*
X94Y626D01*
X66Y561D02*
X68Y561D01*
X65Y560D02*
X70Y560D01*
X64Y559D02*
X71Y559D01*
X63Y558D02*
X71Y558D01*
X63Y557D02*
X72Y557D01*
X63Y556D02*
X72Y556D01*
X63Y555D02*
X72Y555D01*
X63Y554D02*
X72Y554D01*
X63Y553D02*
X72Y553D01*
X63Y552D02*
X72Y552D01*
X63Y551D02*
X72Y551D01*
X63Y550D02*
X72Y550D01*
X63Y549D02*
X72Y549D01*
X63Y548D02*
X72Y548D01*
X63Y547D02*
X72Y547D01*
X63Y546D02*
X72Y546D01*
X63Y545D02*
X72Y545D01*
X63Y544D02*
X72Y544D01*
X63Y543D02*
X72Y543D01*
X63Y542D02*
X72Y542D01*
X46Y541D02*
X89Y541D01*
X44Y540D02*
X90Y540D01*
X44Y539D02*
X91Y539D01*
X43Y538D02*
X91Y538D01*
X43Y537D02*
X92Y537D01*
X43Y536D02*
X92Y536D01*
X43Y535D02*
X91Y535D01*
X44Y534D02*
X91Y534D01*
X44Y533D02*
X90Y533D01*
X46Y532D02*
X89Y532D01*
X63Y531D02*
X72Y531D01*
X63Y530D02*
X72Y530D01*
X63Y529D02*
X72Y529D01*
X63Y528D02*
X72Y528D01*
X63Y527D02*
X72Y527D01*
X63Y526D02*
X72Y526D01*
X63Y525D02*
X72Y525D01*
X63Y524D02*
X72Y524D01*
X63Y523D02*
X72Y523D01*
X63Y522D02*
X72Y522D01*
X63Y521D02*
X72Y521D01*
X63Y520D02*
X72Y520D01*
X63Y519D02*
X72Y519D01*
X63Y518D02*
X72Y518D01*
X63Y517D02*
X72Y517D01*
X63Y516D02*
X72Y516D01*
X63Y515D02*
X72Y515D01*
X64Y514D02*
X71Y514D01*
X64Y513D02*
X70Y513D01*
X66Y512D02*
X69Y512D01*
X46Y440D02*
X89Y440D01*
X45Y439D02*
X90Y439D01*
X44Y438D02*
X91Y438D01*
X43Y437D02*
X91Y437D01*
X43Y436D02*
X92Y436D01*
X43Y435D02*
X92Y435D01*
X43Y434D02*
X92Y434D01*
X43Y433D02*
X92Y433D01*
X43Y432D02*
X92Y432D01*
X43Y431D02*
X92Y431D01*
X43Y430D02*
X92Y430D01*
X43Y429D02*
X91Y429D01*
X44Y428D02*
X91Y428D01*
X45Y427D02*
X89Y427D01*
X2089Y427D02*
X2122Y427D01*
X2155Y427D02*
X2155Y427D01*
X2195Y427D02*
X2195Y427D01*
X2088Y426D02*
X2125Y426D01*
X2153Y426D02*
X2158Y426D01*
X2192Y426D02*
X2197Y426D01*
X2088Y425D02*
X2126Y425D01*
X2152Y425D02*
X2159Y425D01*
X2191Y425D02*
X2198Y425D01*
X2088Y424D02*
X2127Y424D01*
X2151Y424D02*
X2159Y424D01*
X2191Y424D02*
X2199Y424D01*
X2088Y423D02*
X2127Y423D01*
X2151Y423D02*
X2160Y423D01*
X2190Y423D02*
X2199Y423D01*
X2088Y422D02*
X2127Y422D01*
X2151Y422D02*
X2160Y422D01*
X2190Y422D02*
X2199Y422D01*
X2088Y421D02*
X2127Y421D01*
X2151Y421D02*
X2160Y421D01*
X2190Y421D02*
X2199Y421D01*
X2088Y420D02*
X2127Y420D01*
X2151Y420D02*
X2160Y420D01*
X2190Y420D02*
X2199Y420D01*
X2088Y419D02*
X2126Y419D01*
X2151Y419D02*
X2160Y419D01*
X2190Y419D02*
X2199Y419D01*
X2088Y418D02*
X2125Y418D01*
X2151Y418D02*
X2160Y418D01*
X2190Y418D02*
X2199Y418D01*
X2088Y417D02*
X2122Y417D01*
X2151Y417D02*
X2160Y417D01*
X2190Y417D02*
X2199Y417D01*
X2088Y416D02*
X2097Y416D01*
X2151Y416D02*
X2160Y416D01*
X2190Y416D02*
X2199Y416D01*
X2088Y415D02*
X2097Y415D01*
X2151Y415D02*
X2160Y415D01*
X2190Y415D02*
X2199Y415D01*
X2088Y414D02*
X2097Y414D01*
X2151Y414D02*
X2160Y414D01*
X2190Y414D02*
X2199Y414D01*
X2088Y413D02*
X2097Y413D01*
X2151Y413D02*
X2160Y413D01*
X2190Y413D02*
X2199Y413D01*
X2088Y412D02*
X2097Y412D01*
X2151Y412D02*
X2160Y412D01*
X2190Y412D02*
X2199Y412D01*
X2088Y411D02*
X2097Y411D01*
X2151Y411D02*
X2160Y411D01*
X2190Y411D02*
X2199Y411D01*
X2088Y410D02*
X2097Y410D01*
X2151Y410D02*
X2160Y410D01*
X2190Y410D02*
X2199Y410D01*
X2088Y409D02*
X2097Y409D01*
X2151Y409D02*
X2160Y409D01*
X2190Y409D02*
X2199Y409D01*
X2088Y408D02*
X2097Y408D01*
X2151Y408D02*
X2160Y408D01*
X2190Y408D02*
X2199Y408D01*
X2088Y407D02*
X2097Y407D01*
X2151Y407D02*
X2160Y407D01*
X2190Y407D02*
X2199Y407D01*
X2088Y406D02*
X2097Y406D01*
X2151Y406D02*
X2160Y406D01*
X2190Y406D02*
X2199Y406D01*
X2088Y405D02*
X2097Y405D01*
X2151Y405D02*
X2160Y405D01*
X2190Y405D02*
X2199Y405D01*
X2088Y404D02*
X2097Y404D01*
X2151Y404D02*
X2160Y404D01*
X2190Y404D02*
X2199Y404D01*
X2088Y403D02*
X2097Y403D01*
X2151Y403D02*
X2161Y403D01*
X2189Y403D02*
X2199Y403D01*
X2088Y402D02*
X2097Y402D01*
X2151Y402D02*
X2161Y402D01*
X2189Y402D02*
X2199Y402D01*
X2088Y401D02*
X2097Y401D01*
X2152Y401D02*
X2162Y401D01*
X2188Y401D02*
X2198Y401D01*
X2088Y400D02*
X2097Y400D01*
X2152Y400D02*
X2162Y400D01*
X2188Y400D02*
X2198Y400D01*
X2088Y399D02*
X2097Y399D01*
X2153Y399D02*
X2162Y399D01*
X2188Y399D02*
X2197Y399D01*
X2088Y398D02*
X2097Y398D01*
X2153Y398D02*
X2163Y398D01*
X2187Y398D02*
X2197Y398D01*
X2088Y397D02*
X2097Y397D01*
X2153Y397D02*
X2163Y397D01*
X2187Y397D02*
X2197Y397D01*
X2088Y396D02*
X2097Y396D01*
X2154Y396D02*
X2164Y396D01*
X2186Y396D02*
X2196Y396D01*
X2088Y395D02*
X2097Y395D01*
X2154Y395D02*
X2164Y395D01*
X2186Y395D02*
X2196Y395D01*
X2088Y394D02*
X2097Y394D01*
X2154Y394D02*
X2164Y394D01*
X2186Y394D02*
X2195Y394D01*
X2088Y393D02*
X2119Y393D01*
X2155Y393D02*
X2165Y393D01*
X2185Y393D02*
X2195Y393D01*
X2088Y392D02*
X2122Y392D01*
X2155Y392D02*
X2165Y392D01*
X2185Y392D02*
X2195Y392D01*
X2088Y391D02*
X2123Y391D01*
X2156Y391D02*
X2166Y391D01*
X2184Y391D02*
X2194Y391D01*
X2088Y390D02*
X2124Y390D01*
X2156Y390D02*
X2166Y390D01*
X2184Y390D02*
X2194Y390D01*
X2088Y389D02*
X2125Y389D01*
X2156Y389D02*
X2166Y389D01*
X2184Y389D02*
X2193Y389D01*
X2088Y388D02*
X2126Y388D01*
X2157Y388D02*
X2167Y388D01*
X2183Y388D02*
X2193Y388D01*
X2088Y387D02*
X2126Y387D01*
X2157Y387D02*
X2167Y387D01*
X2183Y387D02*
X2193Y387D01*
X2088Y386D02*
X2127Y386D01*
X2158Y386D02*
X2168Y386D01*
X2182Y386D02*
X2192Y386D01*
X2088Y385D02*
X2127Y385D01*
X2158Y385D02*
X2168Y385D01*
X2182Y385D02*
X2192Y385D01*
X2088Y384D02*
X2127Y384D01*
X2158Y384D02*
X2168Y384D01*
X2182Y384D02*
X2192Y384D01*
X2118Y383D02*
X2127Y383D01*
X2159Y383D02*
X2169Y383D01*
X2181Y383D02*
X2191Y383D01*
X2118Y382D02*
X2127Y382D01*
X2159Y382D02*
X2169Y382D01*
X2181Y382D02*
X2191Y382D01*
X2118Y381D02*
X2127Y381D01*
X2160Y381D02*
X2169Y381D01*
X2180Y381D02*
X2190Y381D01*
X2118Y380D02*
X2127Y380D01*
X2160Y380D02*
X2170Y380D01*
X2180Y380D02*
X2190Y380D01*
X2118Y379D02*
X2127Y379D01*
X2160Y379D02*
X2170Y379D01*
X2180Y379D02*
X2190Y379D01*
X2118Y378D02*
X2127Y378D01*
X2161Y378D02*
X2171Y378D01*
X2179Y378D02*
X2189Y378D01*
X2118Y377D02*
X2127Y377D01*
X2161Y377D02*
X2171Y377D01*
X2179Y377D02*
X2189Y377D01*
X2118Y376D02*
X2127Y376D01*
X2161Y376D02*
X2171Y376D01*
X2179Y376D02*
X2188Y376D01*
X2118Y375D02*
X2127Y375D01*
X2162Y375D02*
X2172Y375D01*
X2178Y375D02*
X2188Y375D01*
X2118Y374D02*
X2127Y374D01*
X2162Y374D02*
X2172Y374D01*
X2178Y374D02*
X2188Y374D01*
X44Y373D02*
X82Y373D01*
X2118Y373D02*
X2127Y373D01*
X2163Y373D02*
X2173Y373D01*
X2177Y373D02*
X2187Y373D01*
X43Y372D02*
X84Y372D01*
X2118Y372D02*
X2127Y372D01*
X2163Y372D02*
X2173Y372D01*
X2177Y372D02*
X2187Y372D01*
X42Y371D02*
X86Y371D01*
X2118Y371D02*
X2127Y371D01*
X2163Y371D02*
X2173Y371D01*
X2177Y371D02*
X2186Y371D01*
X41Y370D02*
X87Y370D01*
X2118Y370D02*
X2127Y370D01*
X2164Y370D02*
X2174Y370D01*
X2176Y370D02*
X2186Y370D01*
X41Y369D02*
X88Y369D01*
X2118Y369D02*
X2127Y369D01*
X2164Y369D02*
X2174Y369D01*
X2176Y369D02*
X2186Y369D01*
X41Y368D02*
X88Y368D01*
X2118Y368D02*
X2127Y368D01*
X2165Y368D02*
X2185Y368D01*
X41Y367D02*
X89Y367D01*
X2118Y367D02*
X2127Y367D01*
X2165Y367D02*
X2185Y367D01*
X41Y366D02*
X89Y366D01*
X2118Y366D02*
X2127Y366D01*
X2165Y366D02*
X2185Y366D01*
X42Y365D02*
X89Y365D01*
X2118Y365D02*
X2127Y365D01*
X2166Y365D02*
X2184Y365D01*
X43Y364D02*
X90Y364D01*
X2118Y364D02*
X2127Y364D01*
X2166Y364D02*
X2184Y364D01*
X80Y363D02*
X90Y363D01*
X2081Y363D02*
X2084Y363D01*
X2118Y363D02*
X2127Y363D01*
X2167Y363D02*
X2183Y363D01*
X80Y362D02*
X90Y362D01*
X2080Y362D02*
X2087Y362D01*
X2118Y362D02*
X2127Y362D01*
X2167Y362D02*
X2183Y362D01*
X80Y361D02*
X90Y361D01*
X2079Y361D02*
X2089Y361D01*
X2118Y361D02*
X2127Y361D01*
X2167Y361D02*
X2183Y361D01*
X80Y360D02*
X90Y360D01*
X2079Y360D02*
X2091Y360D01*
X2118Y360D02*
X2127Y360D01*
X2168Y360D02*
X2182Y360D01*
X80Y359D02*
X90Y359D01*
X2078Y359D02*
X2127Y359D01*
X2168Y359D02*
X2182Y359D01*
X80Y358D02*
X90Y358D01*
X2078Y358D02*
X2127Y358D01*
X2168Y358D02*
X2181Y358D01*
X80Y357D02*
X90Y357D01*
X2078Y357D02*
X2127Y357D01*
X2169Y357D02*
X2181Y357D01*
X80Y356D02*
X90Y356D01*
X2079Y356D02*
X2127Y356D01*
X2169Y356D02*
X2181Y356D01*
X80Y355D02*
X90Y355D01*
X2080Y355D02*
X2126Y355D01*
X2170Y355D02*
X2180Y355D01*
X80Y354D02*
X90Y354D01*
X2081Y354D02*
X2126Y354D01*
X2170Y354D02*
X2180Y354D01*
X80Y353D02*
X90Y353D01*
X2083Y353D02*
X2125Y353D01*
X2170Y353D02*
X2179Y353D01*
X80Y352D02*
X90Y352D01*
X2085Y352D02*
X2124Y352D01*
X2171Y352D02*
X2179Y352D01*
X80Y351D02*
X90Y351D01*
X2087Y351D02*
X2123Y351D01*
X2171Y351D02*
X2178Y351D01*
X80Y350D02*
X90Y350D01*
X2090Y350D02*
X2121Y350D01*
X2172Y350D02*
X2177Y350D01*
X80Y349D02*
X90Y349D01*
X80Y348D02*
X90Y348D01*
X80Y347D02*
X90Y347D01*
X80Y346D02*
X90Y346D01*
X80Y345D02*
X90Y345D01*
X80Y344D02*
X90Y344D01*
X80Y343D02*
X89Y343D01*
X80Y342D02*
X89Y342D01*
X79Y341D02*
X89Y341D01*
X78Y340D02*
X89Y340D01*
X54Y339D02*
X89Y339D01*
X52Y338D02*
X88Y338D01*
X52Y337D02*
X88Y337D01*
X51Y336D02*
X87Y336D01*
X51Y335D02*
X86Y335D01*
X51Y334D02*
X86Y334D01*
X51Y333D02*
X87Y333D01*
X51Y332D02*
X87Y332D01*
X2236Y332D02*
X2239Y332D01*
X52Y331D02*
X88Y331D01*
X2234Y331D02*
X2240Y331D01*
X53Y330D02*
X88Y330D01*
X2234Y330D02*
X2241Y330D01*
X77Y329D02*
X89Y329D01*
X2233Y329D02*
X2242Y329D01*
X79Y328D02*
X89Y328D01*
X2233Y328D02*
X2242Y328D01*
X80Y327D02*
X89Y327D01*
X2233Y327D02*
X2242Y327D01*
X80Y326D02*
X89Y326D01*
X2233Y326D02*
X2242Y326D01*
X80Y325D02*
X90Y325D01*
X2233Y325D02*
X2242Y325D01*
X80Y324D02*
X90Y324D01*
X2233Y324D02*
X2242Y324D01*
X80Y323D02*
X90Y323D01*
X2233Y323D02*
X2242Y323D01*
X80Y322D02*
X90Y322D01*
X2233Y322D02*
X2242Y322D01*
X80Y321D02*
X90Y321D01*
X2233Y321D02*
X2242Y321D01*
X80Y320D02*
X90Y320D01*
X2233Y320D02*
X2242Y320D01*
X80Y319D02*
X90Y319D01*
X2233Y319D02*
X2242Y319D01*
X80Y318D02*
X90Y318D01*
X2233Y318D02*
X2242Y318D01*
X80Y317D02*
X90Y317D01*
X2233Y317D02*
X2242Y317D01*
X80Y316D02*
X90Y316D01*
X2233Y316D02*
X2242Y316D01*
X80Y315D02*
X90Y315D01*
X2233Y315D02*
X2242Y315D01*
X80Y314D02*
X90Y314D01*
X2233Y314D02*
X2242Y314D01*
X80Y313D02*
X90Y313D01*
X2233Y313D02*
X2242Y313D01*
X80Y312D02*
X90Y312D01*
X2233Y312D02*
X2242Y312D01*
X80Y311D02*
X90Y311D01*
X2064Y311D02*
X2077Y311D01*
X2092Y311D02*
X2094Y311D01*
X2124Y311D02*
X2127Y311D01*
X2146Y311D02*
X2156Y311D01*
X2209Y311D02*
X2221Y311D01*
X2233Y311D02*
X2242Y311D01*
X80Y310D02*
X90Y310D01*
X2061Y310D02*
X2080Y310D01*
X2090Y310D02*
X2096Y310D01*
X2123Y310D02*
X2128Y310D01*
X2143Y310D02*
X2160Y310D01*
X2206Y310D02*
X2224Y310D01*
X2233Y310D02*
X2242Y310D01*
X80Y309D02*
X90Y309D01*
X2059Y309D02*
X2082Y309D01*
X2089Y309D02*
X2096Y309D01*
X2122Y309D02*
X2129Y309D01*
X2141Y309D02*
X2161Y309D01*
X2204Y309D02*
X2226Y309D01*
X2233Y309D02*
X2242Y309D01*
X80Y308D02*
X90Y308D01*
X2058Y308D02*
X2083Y308D01*
X2089Y308D02*
X2097Y308D01*
X2121Y308D02*
X2130Y308D01*
X2139Y308D02*
X2163Y308D01*
X2202Y308D02*
X2228Y308D01*
X2233Y308D02*
X2242Y308D01*
X80Y307D02*
X90Y307D01*
X2057Y307D02*
X2084Y307D01*
X2088Y307D02*
X2097Y307D01*
X2121Y307D02*
X2130Y307D01*
X2138Y307D02*
X2164Y307D01*
X2201Y307D02*
X2229Y307D01*
X2233Y307D02*
X2242Y307D01*
X80Y306D02*
X90Y306D01*
X2055Y306D02*
X2085Y306D01*
X2088Y306D02*
X2097Y306D01*
X2121Y306D02*
X2130Y306D01*
X2136Y306D02*
X2165Y306D01*
X2200Y306D02*
X2230Y306D01*
X2233Y306D02*
X2242Y306D01*
X44Y305D02*
X90Y305D01*
X2054Y305D02*
X2097Y305D01*
X2121Y305D02*
X2130Y305D01*
X2134Y305D02*
X2166Y305D01*
X2199Y305D02*
X2231Y305D01*
X2233Y305D02*
X2242Y305D01*
X42Y304D02*
X89Y304D01*
X2053Y304D02*
X2097Y304D01*
X2121Y304D02*
X2130Y304D01*
X2133Y304D02*
X2166Y304D01*
X2198Y304D02*
X2242Y304D01*
X42Y303D02*
X89Y303D01*
X2052Y303D02*
X2097Y303D01*
X2121Y303D02*
X2167Y303D01*
X2197Y303D02*
X2242Y303D01*
X41Y302D02*
X89Y302D01*
X2051Y302D02*
X2097Y302D01*
X2121Y302D02*
X2167Y302D01*
X2196Y302D02*
X2242Y302D01*
X41Y301D02*
X88Y301D01*
X2051Y301D02*
X2065Y301D01*
X2076Y301D02*
X2097Y301D01*
X2121Y301D02*
X2146Y301D01*
X2156Y301D02*
X2168Y301D01*
X2195Y301D02*
X2209Y301D01*
X2221Y301D02*
X2242Y301D01*
X41Y300D02*
X88Y300D01*
X2050Y300D02*
X2063Y300D01*
X2078Y300D02*
X2097Y300D01*
X2121Y300D02*
X2144Y300D01*
X2157Y300D02*
X2168Y300D01*
X2195Y300D02*
X2208Y300D01*
X2222Y300D02*
X2242Y300D01*
X41Y299D02*
X87Y299D01*
X2050Y299D02*
X2062Y299D01*
X2079Y299D02*
X2097Y299D01*
X2121Y299D02*
X2143Y299D01*
X2158Y299D02*
X2168Y299D01*
X2194Y299D02*
X2206Y299D01*
X2224Y299D02*
X2242Y299D01*
X42Y298D02*
X86Y298D01*
X2049Y298D02*
X2061Y298D01*
X2080Y298D02*
X2097Y298D01*
X2121Y298D02*
X2141Y298D01*
X2159Y298D02*
X2168Y298D01*
X2194Y298D02*
X2205Y298D01*
X2225Y298D02*
X2242Y298D01*
X42Y297D02*
X85Y297D01*
X2049Y297D02*
X2059Y297D01*
X2081Y297D02*
X2097Y297D01*
X2121Y297D02*
X2140Y297D01*
X2159Y297D02*
X2168Y297D01*
X2194Y297D02*
X2204Y297D01*
X2226Y297D02*
X2242Y297D01*
X43Y296D02*
X83Y296D01*
X2049Y296D02*
X2059Y296D01*
X2083Y296D02*
X2097Y296D01*
X2121Y296D02*
X2138Y296D01*
X2159Y296D02*
X2168Y296D01*
X2193Y296D02*
X2203Y296D01*
X2227Y296D02*
X2242Y296D01*
X2049Y295D02*
X2058Y295D01*
X2084Y295D02*
X2097Y295D01*
X2121Y295D02*
X2137Y295D01*
X2159Y295D02*
X2168Y295D01*
X2193Y295D02*
X2203Y295D01*
X2228Y295D02*
X2242Y295D01*
X2049Y294D02*
X2058Y294D01*
X2085Y294D02*
X2097Y294D01*
X2121Y294D02*
X2135Y294D01*
X2159Y294D02*
X2168Y294D01*
X2193Y294D02*
X2202Y294D01*
X2229Y294D02*
X2242Y294D01*
X2049Y293D02*
X2058Y293D01*
X2086Y293D02*
X2097Y293D01*
X2121Y293D02*
X2134Y293D01*
X2159Y293D02*
X2169Y293D01*
X2193Y293D02*
X2202Y293D01*
X2231Y293D02*
X2242Y293D01*
X2049Y292D02*
X2058Y292D01*
X2087Y292D02*
X2097Y292D01*
X2121Y292D02*
X2132Y292D01*
X2159Y292D02*
X2169Y292D01*
X2193Y292D02*
X2202Y292D01*
X2232Y292D02*
X2242Y292D01*
X2049Y291D02*
X2058Y291D01*
X2088Y291D02*
X2097Y291D01*
X2121Y291D02*
X2130Y291D01*
X2159Y291D02*
X2169Y291D01*
X2193Y291D02*
X2202Y291D01*
X2232Y291D02*
X2242Y291D01*
X2049Y290D02*
X2058Y290D01*
X2088Y290D02*
X2097Y290D01*
X2121Y290D02*
X2130Y290D01*
X2160Y290D02*
X2169Y290D01*
X2193Y290D02*
X2202Y290D01*
X2233Y290D02*
X2242Y290D01*
X2049Y289D02*
X2058Y289D01*
X2088Y289D02*
X2097Y289D01*
X2121Y289D02*
X2130Y289D01*
X2160Y289D02*
X2169Y289D01*
X2193Y289D02*
X2202Y289D01*
X2233Y289D02*
X2242Y289D01*
X2049Y288D02*
X2058Y288D01*
X2088Y288D02*
X2097Y288D01*
X2121Y288D02*
X2130Y288D01*
X2160Y288D02*
X2169Y288D01*
X2193Y288D02*
X2202Y288D01*
X2233Y288D02*
X2242Y288D01*
X2049Y287D02*
X2058Y287D01*
X2088Y287D02*
X2097Y287D01*
X2121Y287D02*
X2130Y287D01*
X2160Y287D02*
X2169Y287D01*
X2193Y287D02*
X2202Y287D01*
X2233Y287D02*
X2242Y287D01*
X2049Y286D02*
X2058Y286D01*
X2088Y286D02*
X2097Y286D01*
X2121Y286D02*
X2130Y286D01*
X2160Y286D02*
X2169Y286D01*
X2193Y286D02*
X2202Y286D01*
X2233Y286D02*
X2242Y286D01*
X2049Y285D02*
X2058Y285D01*
X2088Y285D02*
X2097Y285D01*
X2121Y285D02*
X2130Y285D01*
X2160Y285D02*
X2169Y285D01*
X2193Y285D02*
X2202Y285D01*
X2233Y285D02*
X2242Y285D01*
X2049Y284D02*
X2058Y284D01*
X2088Y284D02*
X2097Y284D01*
X2121Y284D02*
X2130Y284D01*
X2160Y284D02*
X2169Y284D01*
X2193Y284D02*
X2202Y284D01*
X2233Y284D02*
X2242Y284D01*
X2049Y283D02*
X2058Y283D01*
X2088Y283D02*
X2097Y283D01*
X2121Y283D02*
X2130Y283D01*
X2160Y283D02*
X2169Y283D01*
X2193Y283D02*
X2202Y283D01*
X2233Y283D02*
X2242Y283D01*
X2049Y282D02*
X2058Y282D01*
X2088Y282D02*
X2097Y282D01*
X2121Y282D02*
X2130Y282D01*
X2160Y282D02*
X2169Y282D01*
X2193Y282D02*
X2202Y282D01*
X2233Y282D02*
X2242Y282D01*
X2049Y281D02*
X2058Y281D01*
X2088Y281D02*
X2097Y281D01*
X2121Y281D02*
X2130Y281D01*
X2160Y281D02*
X2169Y281D01*
X2193Y281D02*
X2202Y281D01*
X2233Y281D02*
X2242Y281D01*
X2049Y280D02*
X2058Y280D01*
X2088Y280D02*
X2097Y280D01*
X2121Y280D02*
X2130Y280D01*
X2160Y280D02*
X2169Y280D01*
X2193Y280D02*
X2202Y280D01*
X2233Y280D02*
X2242Y280D01*
X2049Y279D02*
X2058Y279D01*
X2088Y279D02*
X2097Y279D01*
X2121Y279D02*
X2130Y279D01*
X2160Y279D02*
X2169Y279D01*
X2193Y279D02*
X2202Y279D01*
X2233Y279D02*
X2242Y279D01*
X2049Y278D02*
X2058Y278D01*
X2087Y278D02*
X2097Y278D01*
X2121Y278D02*
X2130Y278D01*
X2160Y278D02*
X2169Y278D01*
X2193Y278D02*
X2202Y278D01*
X2233Y278D02*
X2242Y278D01*
X2049Y277D02*
X2058Y277D01*
X2086Y277D02*
X2097Y277D01*
X2121Y277D02*
X2130Y277D01*
X2160Y277D02*
X2169Y277D01*
X2193Y277D02*
X2202Y277D01*
X2233Y277D02*
X2242Y277D01*
X2049Y276D02*
X2058Y276D01*
X2085Y276D02*
X2097Y276D01*
X2121Y276D02*
X2130Y276D01*
X2160Y276D02*
X2169Y276D01*
X2193Y276D02*
X2202Y276D01*
X2233Y276D02*
X2242Y276D01*
X2049Y275D02*
X2058Y275D01*
X2084Y275D02*
X2097Y275D01*
X2121Y275D02*
X2130Y275D01*
X2160Y275D02*
X2169Y275D01*
X2193Y275D02*
X2202Y275D01*
X2232Y275D02*
X2242Y275D01*
X2049Y274D02*
X2059Y274D01*
X2083Y274D02*
X2097Y274D01*
X2121Y274D02*
X2130Y274D01*
X2160Y274D02*
X2169Y274D01*
X2193Y274D02*
X2202Y274D01*
X2232Y274D02*
X2242Y274D01*
X2049Y273D02*
X2059Y273D01*
X2081Y273D02*
X2097Y273D01*
X2121Y273D02*
X2130Y273D01*
X2160Y273D02*
X2169Y273D01*
X2193Y273D02*
X2202Y273D01*
X2231Y273D02*
X2242Y273D01*
X2049Y272D02*
X2060Y272D01*
X2080Y272D02*
X2097Y272D01*
X2121Y272D02*
X2130Y272D01*
X2160Y272D02*
X2169Y272D01*
X2193Y272D02*
X2202Y272D01*
X2230Y272D02*
X2242Y272D01*
X2050Y271D02*
X2061Y271D01*
X2079Y271D02*
X2097Y271D01*
X2121Y271D02*
X2130Y271D01*
X2160Y271D02*
X2169Y271D01*
X2193Y271D02*
X2203Y271D01*
X2228Y271D02*
X2242Y271D01*
X2050Y270D02*
X2063Y270D01*
X2078Y270D02*
X2097Y270D01*
X2121Y270D02*
X2130Y270D01*
X2160Y270D02*
X2169Y270D01*
X2193Y270D02*
X2203Y270D01*
X2227Y270D02*
X2242Y270D01*
X2051Y269D02*
X2065Y269D01*
X2076Y269D02*
X2097Y269D01*
X2121Y269D02*
X2130Y269D01*
X2160Y269D02*
X2169Y269D01*
X2194Y269D02*
X2204Y269D01*
X2226Y269D02*
X2242Y269D01*
X2052Y268D02*
X2097Y268D01*
X2121Y268D02*
X2130Y268D01*
X2160Y268D02*
X2169Y268D01*
X2194Y268D02*
X2205Y268D01*
X2225Y268D02*
X2242Y268D01*
X2052Y267D02*
X2097Y267D01*
X2121Y267D02*
X2130Y267D01*
X2160Y267D02*
X2169Y267D01*
X2194Y267D02*
X2206Y267D01*
X2224Y267D02*
X2242Y267D01*
X2053Y266D02*
X2097Y266D01*
X2121Y266D02*
X2130Y266D01*
X2160Y266D02*
X2169Y266D01*
X2195Y266D02*
X2207Y266D01*
X2223Y266D02*
X2242Y266D01*
X2054Y265D02*
X2097Y265D01*
X2121Y265D02*
X2130Y265D01*
X2160Y265D02*
X2169Y265D01*
X2195Y265D02*
X2209Y265D01*
X2221Y265D02*
X2242Y265D01*
X2056Y264D02*
X2086Y264D01*
X2088Y264D02*
X2097Y264D01*
X2121Y264D02*
X2130Y264D01*
X2160Y264D02*
X2169Y264D01*
X2196Y264D02*
X2242Y264D01*
X2057Y263D02*
X2084Y263D01*
X2088Y263D02*
X2097Y263D01*
X2121Y263D02*
X2130Y263D01*
X2160Y263D02*
X2169Y263D01*
X2197Y263D02*
X2242Y263D01*
X2058Y262D02*
X2083Y262D01*
X2088Y262D02*
X2097Y262D01*
X2121Y262D02*
X2130Y262D01*
X2160Y262D02*
X2170Y262D01*
X2198Y262D02*
X2242Y262D01*
X44Y261D02*
X47Y261D01*
X2059Y261D02*
X2082Y261D01*
X2088Y261D02*
X2097Y261D01*
X2121Y261D02*
X2130Y261D01*
X2161Y261D02*
X2170Y261D01*
X2199Y261D02*
X2242Y261D01*
X43Y260D02*
X49Y260D01*
X2061Y260D02*
X2080Y260D01*
X2088Y260D02*
X2097Y260D01*
X2121Y260D02*
X2130Y260D01*
X2161Y260D02*
X2170Y260D01*
X2200Y260D02*
X2231Y260D01*
X2233Y260D02*
X2242Y260D01*
X42Y259D02*
X49Y259D01*
X2065Y259D02*
X2076Y259D01*
X2088Y259D02*
X2097Y259D01*
X2121Y259D02*
X2130Y259D01*
X2161Y259D02*
X2169Y259D01*
X2201Y259D02*
X2229Y259D01*
X2233Y259D02*
X2242Y259D01*
X41Y258D02*
X50Y258D01*
X2088Y258D02*
X2097Y258D01*
X2121Y258D02*
X2130Y258D01*
X2161Y258D02*
X2169Y258D01*
X2202Y258D02*
X2228Y258D01*
X2233Y258D02*
X2242Y258D01*
X41Y257D02*
X50Y257D01*
X2088Y257D02*
X2097Y257D01*
X2122Y257D02*
X2129Y257D01*
X2161Y257D02*
X2169Y257D01*
X2203Y257D02*
X2227Y257D01*
X2234Y257D02*
X2241Y257D01*
X41Y256D02*
X50Y256D01*
X2088Y256D02*
X2097Y256D01*
X2122Y256D02*
X2128Y256D01*
X2162Y256D02*
X2168Y256D01*
X2205Y256D02*
X2225Y256D01*
X2234Y256D02*
X2240Y256D01*
X41Y255D02*
X50Y255D01*
X2088Y255D02*
X2097Y255D01*
X2124Y255D02*
X2127Y255D01*
X2164Y255D02*
X2167Y255D01*
X2208Y255D02*
X2222Y255D01*
X2236Y255D02*
X2239Y255D01*
X41Y254D02*
X50Y254D01*
X2088Y254D02*
X2097Y254D01*
X41Y253D02*
X50Y253D01*
X2088Y253D02*
X2097Y253D01*
X41Y252D02*
X50Y252D01*
X73Y252D02*
X78Y252D01*
X2088Y252D02*
X2097Y252D01*
X41Y251D02*
X50Y251D01*
X72Y251D02*
X79Y251D01*
X2088Y251D02*
X2097Y251D01*
X41Y250D02*
X50Y250D01*
X71Y250D02*
X80Y250D01*
X2088Y250D02*
X2097Y250D01*
X41Y249D02*
X50Y249D01*
X71Y249D02*
X80Y249D01*
X2088Y249D02*
X2097Y249D01*
X41Y248D02*
X50Y248D01*
X71Y248D02*
X80Y248D01*
X2087Y248D02*
X2097Y248D01*
X41Y247D02*
X50Y247D01*
X71Y247D02*
X80Y247D01*
X2086Y247D02*
X2097Y247D01*
X41Y246D02*
X50Y246D01*
X71Y246D02*
X80Y246D01*
X2085Y246D02*
X2096Y246D01*
X41Y245D02*
X50Y245D01*
X71Y245D02*
X80Y245D01*
X2083Y245D02*
X2096Y245D01*
X41Y244D02*
X50Y244D01*
X71Y244D02*
X80Y244D01*
X2082Y244D02*
X2095Y244D01*
X41Y243D02*
X50Y243D01*
X71Y243D02*
X80Y243D01*
X2057Y243D02*
X2095Y243D01*
X41Y242D02*
X50Y242D01*
X71Y242D02*
X80Y242D01*
X2055Y242D02*
X2094Y242D01*
X41Y241D02*
X50Y241D01*
X71Y241D02*
X80Y241D01*
X2054Y241D02*
X2093Y241D01*
X41Y240D02*
X50Y240D01*
X71Y240D02*
X80Y240D01*
X2054Y240D02*
X2092Y240D01*
X41Y239D02*
X50Y239D01*
X71Y239D02*
X80Y239D01*
X2054Y239D02*
X2091Y239D01*
X41Y238D02*
X50Y238D01*
X71Y238D02*
X80Y238D01*
X2054Y238D02*
X2090Y238D01*
X41Y237D02*
X50Y237D01*
X71Y237D02*
X80Y237D01*
X2054Y237D02*
X2089Y237D01*
X41Y236D02*
X50Y236D01*
X71Y236D02*
X80Y236D01*
X2054Y236D02*
X2087Y236D01*
X41Y235D02*
X50Y235D01*
X71Y235D02*
X80Y235D01*
X2055Y235D02*
X2086Y235D01*
X41Y234D02*
X50Y234D01*
X71Y234D02*
X80Y234D01*
X2056Y234D02*
X2083Y234D01*
X41Y233D02*
X50Y233D01*
X71Y233D02*
X80Y233D01*
X41Y232D02*
X50Y232D01*
X71Y232D02*
X80Y232D01*
X41Y231D02*
X50Y231D01*
X71Y231D02*
X80Y231D01*
X41Y230D02*
X50Y230D01*
X71Y230D02*
X80Y230D01*
X41Y229D02*
X50Y229D01*
X71Y229D02*
X80Y229D01*
X2166Y229D02*
X2168Y229D01*
X41Y228D02*
X50Y228D01*
X71Y228D02*
X80Y228D01*
X2164Y228D02*
X2170Y228D01*
X41Y227D02*
X50Y227D01*
X71Y227D02*
X80Y227D01*
X2164Y227D02*
X2171Y227D01*
X41Y226D02*
X50Y226D01*
X71Y226D02*
X80Y226D01*
X2163Y226D02*
X2171Y226D01*
X41Y225D02*
X50Y225D01*
X71Y225D02*
X80Y225D01*
X2163Y225D02*
X2172Y225D01*
X41Y224D02*
X50Y224D01*
X71Y224D02*
X80Y224D01*
X2163Y224D02*
X2172Y224D01*
X41Y223D02*
X50Y223D01*
X71Y223D02*
X80Y223D01*
X2163Y223D02*
X2172Y223D01*
X41Y222D02*
X50Y222D01*
X71Y222D02*
X80Y222D01*
X2163Y222D02*
X2172Y222D01*
X41Y221D02*
X50Y221D01*
X71Y221D02*
X80Y221D01*
X2163Y221D02*
X2172Y221D01*
X41Y220D02*
X50Y220D01*
X71Y220D02*
X80Y220D01*
X2163Y220D02*
X2172Y220D01*
X41Y219D02*
X81Y219D01*
X2163Y219D02*
X2172Y219D01*
X41Y218D02*
X83Y218D01*
X2163Y218D02*
X2172Y218D01*
X41Y217D02*
X84Y217D01*
X2163Y217D02*
X2172Y217D01*
X41Y216D02*
X85Y216D01*
X2163Y216D02*
X2172Y216D01*
X41Y215D02*
X85Y215D01*
X2163Y215D02*
X2172Y215D01*
X41Y214D02*
X85Y214D01*
X2163Y214D02*
X2172Y214D01*
X41Y213D02*
X85Y213D01*
X2163Y213D02*
X2172Y213D01*
X41Y212D02*
X84Y212D01*
X2163Y212D02*
X2172Y212D01*
X41Y211D02*
X84Y211D01*
X2163Y211D02*
X2172Y211D01*
X41Y210D02*
X83Y210D01*
X2163Y210D02*
X2172Y210D01*
X70Y209D02*
X80Y209D01*
X2163Y209D02*
X2172Y209D01*
X71Y208D02*
X80Y208D01*
X2063Y208D02*
X2086Y208D01*
X2140Y208D02*
X2150Y208D01*
X2163Y208D02*
X2172Y208D01*
X2209Y208D02*
X2229Y208D01*
X71Y207D02*
X80Y207D01*
X2060Y207D02*
X2091Y207D01*
X2136Y207D02*
X2154Y207D01*
X2163Y207D02*
X2172Y207D01*
X2207Y207D02*
X2234Y207D01*
X71Y206D02*
X80Y206D01*
X2058Y206D02*
X2093Y206D01*
X2134Y206D02*
X2156Y206D01*
X2163Y206D02*
X2172Y206D01*
X2206Y206D02*
X2236Y206D01*
X71Y205D02*
X80Y205D01*
X2056Y205D02*
X2094Y205D01*
X2133Y205D02*
X2157Y205D01*
X2163Y205D02*
X2172Y205D01*
X2206Y205D02*
X2237Y205D01*
X71Y204D02*
X80Y204D01*
X2055Y204D02*
X2095Y204D01*
X2131Y204D02*
X2159Y204D01*
X2163Y204D02*
X2172Y204D01*
X2205Y204D02*
X2238Y204D01*
X71Y203D02*
X80Y203D01*
X2055Y203D02*
X2096Y203D01*
X2130Y203D02*
X2160Y203D01*
X2163Y203D02*
X2172Y203D01*
X2205Y203D02*
X2239Y203D01*
X71Y202D02*
X80Y202D01*
X2054Y202D02*
X2097Y202D01*
X2129Y202D02*
X2161Y202D01*
X2163Y202D02*
X2172Y202D01*
X2205Y202D02*
X2240Y202D01*
X71Y201D02*
X80Y201D01*
X2053Y201D02*
X2098Y201D01*
X2128Y201D02*
X2172Y201D01*
X2206Y201D02*
X2241Y201D01*
X71Y200D02*
X80Y200D01*
X2053Y200D02*
X2098Y200D01*
X2127Y200D02*
X2172Y200D01*
X2206Y200D02*
X2241Y200D01*
X71Y199D02*
X80Y199D01*
X2052Y199D02*
X2098Y199D01*
X2126Y199D02*
X2172Y199D01*
X2207Y199D02*
X2242Y199D01*
X71Y198D02*
X80Y198D01*
X2052Y198D02*
X2064Y198D01*
X2086Y198D02*
X2098Y198D01*
X2125Y198D02*
X2140Y198D01*
X2149Y198D02*
X2172Y198D01*
X2229Y198D02*
X2242Y198D01*
X71Y197D02*
X80Y197D01*
X2052Y197D02*
X2062Y197D01*
X2089Y197D02*
X2098Y197D01*
X2125Y197D02*
X2138Y197D01*
X2152Y197D02*
X2172Y197D01*
X2232Y197D02*
X2242Y197D01*
X71Y196D02*
X80Y196D01*
X2052Y196D02*
X2061Y196D01*
X2090Y196D02*
X2097Y196D01*
X2124Y196D02*
X2136Y196D01*
X2153Y196D02*
X2172Y196D01*
X2233Y196D02*
X2243Y196D01*
X71Y195D02*
X80Y195D01*
X2052Y195D02*
X2061Y195D01*
X2092Y195D02*
X2097Y195D01*
X2124Y195D02*
X2135Y195D01*
X2155Y195D02*
X2172Y195D01*
X2233Y195D02*
X2243Y195D01*
X71Y194D02*
X80Y194D01*
X2052Y194D02*
X2061Y194D01*
X2093Y194D02*
X2095Y194D01*
X2124Y194D02*
X2134Y194D01*
X2156Y194D02*
X2172Y194D01*
X2233Y194D02*
X2243Y194D01*
X71Y193D02*
X80Y193D01*
X2052Y193D02*
X2062Y193D01*
X2123Y193D02*
X2133Y193D01*
X2157Y193D02*
X2172Y193D01*
X2234Y193D02*
X2243Y193D01*
X71Y192D02*
X80Y192D01*
X2052Y192D02*
X2064Y192D01*
X2123Y192D02*
X2133Y192D01*
X2158Y192D02*
X2172Y192D01*
X2234Y192D02*
X2243Y192D01*
X71Y191D02*
X80Y191D01*
X2053Y191D02*
X2067Y191D01*
X2123Y191D02*
X2132Y191D01*
X2159Y191D02*
X2172Y191D01*
X2234Y191D02*
X2243Y191D01*
X71Y190D02*
X80Y190D01*
X2053Y190D02*
X2069Y190D01*
X2123Y190D02*
X2132Y190D01*
X2160Y190D02*
X2172Y190D01*
X2234Y190D02*
X2243Y190D01*
X71Y189D02*
X80Y189D01*
X2054Y189D02*
X2071Y189D01*
X2123Y189D02*
X2132Y189D01*
X2161Y189D02*
X2172Y189D01*
X2234Y189D02*
X2243Y189D01*
X71Y188D02*
X80Y188D01*
X2054Y188D02*
X2074Y188D01*
X2123Y188D02*
X2132Y188D01*
X2162Y188D02*
X2172Y188D01*
X2234Y188D02*
X2243Y188D01*
X71Y187D02*
X80Y187D01*
X2055Y187D02*
X2076Y187D01*
X2123Y187D02*
X2132Y187D01*
X2163Y187D02*
X2172Y187D01*
X2234Y187D02*
X2243Y187D01*
X72Y186D02*
X79Y186D01*
X2056Y186D02*
X2078Y186D01*
X2123Y186D02*
X2132Y186D01*
X2163Y186D02*
X2172Y186D01*
X2205Y186D02*
X2243Y186D01*
X73Y185D02*
X78Y185D01*
X2057Y185D02*
X2080Y185D01*
X2123Y185D02*
X2132Y185D01*
X2163Y185D02*
X2172Y185D01*
X2203Y185D02*
X2243Y185D01*
X74Y184D02*
X77Y184D01*
X2059Y184D02*
X2083Y184D01*
X2123Y184D02*
X2132Y184D01*
X2163Y184D02*
X2172Y184D01*
X2201Y184D02*
X2243Y184D01*
X2061Y183D02*
X2085Y183D01*
X2123Y183D02*
X2132Y183D01*
X2163Y183D02*
X2172Y183D01*
X2200Y183D02*
X2243Y183D01*
X2063Y182D02*
X2087Y182D01*
X2123Y182D02*
X2132Y182D01*
X2163Y182D02*
X2172Y182D01*
X2199Y182D02*
X2243Y182D01*
X2065Y181D02*
X2090Y181D01*
X2123Y181D02*
X2132Y181D01*
X2163Y181D02*
X2172Y181D01*
X2198Y181D02*
X2243Y181D01*
X2068Y180D02*
X2092Y180D01*
X2123Y180D02*
X2132Y180D01*
X2163Y180D02*
X2172Y180D01*
X2198Y180D02*
X2243Y180D01*
X2070Y179D02*
X2093Y179D01*
X2123Y179D02*
X2132Y179D01*
X2163Y179D02*
X2172Y179D01*
X2197Y179D02*
X2243Y179D01*
X2072Y178D02*
X2094Y178D01*
X2123Y178D02*
X2132Y178D01*
X2163Y178D02*
X2172Y178D01*
X2197Y178D02*
X2243Y178D01*
X2075Y177D02*
X2095Y177D01*
X2123Y177D02*
X2132Y177D01*
X2163Y177D02*
X2172Y177D01*
X2196Y177D02*
X2243Y177D01*
X2077Y176D02*
X2096Y176D01*
X2123Y176D02*
X2132Y176D01*
X2163Y176D02*
X2172Y176D01*
X2196Y176D02*
X2207Y176D01*
X2232Y176D02*
X2243Y176D01*
X2079Y175D02*
X2097Y175D01*
X2123Y175D02*
X2132Y175D01*
X2163Y175D02*
X2172Y175D01*
X2196Y175D02*
X2206Y175D01*
X2233Y175D02*
X2243Y175D01*
X2082Y174D02*
X2097Y174D01*
X2123Y174D02*
X2132Y174D01*
X2163Y174D02*
X2172Y174D01*
X2196Y174D02*
X2205Y174D01*
X2234Y174D02*
X2244Y174D01*
X2084Y173D02*
X2098Y173D01*
X2123Y173D02*
X2132Y173D01*
X2163Y173D02*
X2172Y173D01*
X2195Y173D02*
X2205Y173D01*
X2234Y173D02*
X2244Y173D01*
X2086Y172D02*
X2098Y172D01*
X2123Y172D02*
X2132Y172D01*
X2162Y172D02*
X2172Y172D01*
X2195Y172D02*
X2204Y172D01*
X2234Y172D02*
X2244Y172D01*
X2088Y171D02*
X2099Y171D01*
X2123Y171D02*
X2132Y171D01*
X2162Y171D02*
X2172Y171D01*
X2195Y171D02*
X2204Y171D01*
X2234Y171D02*
X2244Y171D01*
X2089Y170D02*
X2099Y170D01*
X2123Y170D02*
X2132Y170D01*
X2161Y170D02*
X2172Y170D01*
X2195Y170D02*
X2204Y170D01*
X2234Y170D02*
X2244Y170D01*
X2090Y169D02*
X2099Y169D01*
X2123Y169D02*
X2132Y169D01*
X2160Y169D02*
X2172Y169D01*
X2195Y169D02*
X2204Y169D01*
X2234Y169D02*
X2244Y169D01*
X2090Y168D02*
X2099Y168D01*
X2123Y168D02*
X2132Y168D01*
X2159Y168D02*
X2172Y168D01*
X2195Y168D02*
X2204Y168D01*
X2234Y168D02*
X2244Y168D01*
X2090Y167D02*
X2099Y167D01*
X2123Y167D02*
X2133Y167D01*
X2157Y167D02*
X2172Y167D01*
X2195Y167D02*
X2204Y167D01*
X2233Y167D02*
X2244Y167D01*
X2090Y166D02*
X2099Y166D01*
X2123Y166D02*
X2134Y166D01*
X2156Y166D02*
X2172Y166D01*
X2195Y166D02*
X2205Y166D01*
X2231Y166D02*
X2244Y166D01*
X2053Y165D02*
X2057Y165D01*
X2090Y165D02*
X2099Y165D01*
X2124Y165D02*
X2135Y165D01*
X2155Y165D02*
X2172Y165D01*
X2195Y165D02*
X2205Y165D01*
X2230Y165D02*
X2244Y165D01*
X2052Y164D02*
X2059Y164D01*
X2089Y164D02*
X2099Y164D01*
X2124Y164D02*
X2136Y164D01*
X2154Y164D02*
X2172Y164D01*
X2196Y164D02*
X2205Y164D01*
X2228Y164D02*
X2244Y164D01*
X2051Y163D02*
X2060Y163D01*
X2089Y163D02*
X2099Y163D01*
X2124Y163D02*
X2137Y163D01*
X2153Y163D02*
X2172Y163D01*
X2196Y163D02*
X2206Y163D01*
X2226Y163D02*
X2244Y163D01*
X2051Y162D02*
X2062Y162D01*
X2087Y162D02*
X2099Y162D01*
X2125Y162D02*
X2139Y162D01*
X2151Y162D02*
X2172Y162D01*
X2196Y162D02*
X2207Y162D01*
X2225Y162D02*
X2244Y162D01*
X2051Y161D02*
X2098Y161D01*
X2126Y161D02*
X2172Y161D01*
X2196Y161D02*
X2244Y161D01*
X2051Y160D02*
X2098Y160D01*
X2126Y160D02*
X2172Y160D01*
X2197Y160D02*
X2244Y160D01*
X2051Y159D02*
X2097Y159D01*
X2127Y159D02*
X2172Y159D01*
X2197Y159D02*
X2244Y159D01*
X2052Y158D02*
X2097Y158D01*
X2128Y158D02*
X2172Y158D01*
X2198Y158D02*
X2244Y158D01*
X2052Y157D02*
X2096Y157D01*
X2129Y157D02*
X2161Y157D01*
X2163Y157D02*
X2172Y157D01*
X2199Y157D02*
X2244Y157D01*
X2054Y156D02*
X2095Y156D01*
X2131Y156D02*
X2159Y156D01*
X2163Y156D02*
X2172Y156D01*
X2200Y156D02*
X2233Y156D01*
X2235Y156D02*
X2244Y156D01*
X2055Y155D02*
X2094Y155D01*
X2132Y155D02*
X2158Y155D01*
X2163Y155D02*
X2172Y155D01*
X2201Y155D02*
X2232Y155D01*
X2235Y155D02*
X2244Y155D01*
X2057Y154D02*
X2093Y154D01*
X2133Y154D02*
X2157Y154D01*
X2163Y154D02*
X2171Y154D01*
X2202Y154D02*
X2230Y154D01*
X2236Y154D02*
X2243Y154D01*
X2059Y153D02*
X2091Y153D01*
X2135Y153D02*
X2155Y153D01*
X2164Y153D02*
X2170Y153D01*
X2204Y153D02*
X2228Y153D01*
X2236Y153D02*
X2243Y153D01*
X2061Y152D02*
X2088Y152D01*
X2137Y152D02*
X2152Y152D01*
X2165Y152D02*
X2169Y152D01*
X2206Y152D02*
X2227Y152D01*
X2238Y152D02*
X2241Y152D01*
X2203Y119D02*
X2222Y119D01*
X2202Y118D02*
X2223Y118D01*
X2201Y117D02*
X2224Y117D01*
X2200Y116D02*
X2224Y116D01*
X2200Y115D02*
X2224Y115D01*
X2200Y114D02*
X2224Y114D01*
X2201Y113D02*
X2224Y113D01*
X2201Y112D02*
X2224Y112D01*
X2202Y111D02*
X2224Y111D01*
X2204Y110D02*
X2224Y110D01*
X2215Y109D02*
X2224Y109D01*
X2215Y108D02*
X2224Y108D01*
X2215Y107D02*
X2224Y107D01*
X2215Y106D02*
X2224Y106D01*
X2215Y105D02*
X2224Y105D01*
X2215Y104D02*
X2224Y104D01*
X2215Y103D02*
X2224Y103D01*
X2215Y102D02*
X2224Y102D01*
X2215Y101D02*
X2224Y101D01*
X2215Y100D02*
X2224Y100D01*
X2215Y99D02*
X2224Y99D01*
X2061Y98D02*
X2089Y98D01*
X2143Y98D02*
X2169Y98D01*
X2215Y98D02*
X2224Y98D01*
X2059Y97D02*
X2092Y97D01*
X2140Y97D02*
X2170Y97D01*
X2215Y97D02*
X2224Y97D01*
X2057Y96D02*
X2093Y96D01*
X2138Y96D02*
X2171Y96D01*
X2215Y96D02*
X2224Y96D01*
X2056Y95D02*
X2095Y95D01*
X2137Y95D02*
X2172Y95D01*
X2215Y95D02*
X2224Y95D01*
X2055Y94D02*
X2096Y94D01*
X2135Y94D02*
X2172Y94D01*
X2215Y94D02*
X2224Y94D01*
X2054Y93D02*
X2097Y93D01*
X2134Y93D02*
X2172Y93D01*
X2215Y93D02*
X2224Y93D01*
X2054Y92D02*
X2098Y92D01*
X2133Y92D02*
X2172Y92D01*
X2215Y92D02*
X2224Y92D01*
X2053Y91D02*
X2098Y91D01*
X2132Y91D02*
X2171Y91D01*
X2215Y91D02*
X2224Y91D01*
X2053Y90D02*
X2098Y90D01*
X2131Y90D02*
X2170Y90D01*
X2215Y90D02*
X2224Y90D01*
X2052Y89D02*
X2098Y89D01*
X2130Y89D02*
X2169Y89D01*
X2215Y89D02*
X2224Y89D01*
X2052Y88D02*
X2062Y88D01*
X2088Y88D02*
X2098Y88D01*
X2129Y88D02*
X2144Y88D01*
X2215Y88D02*
X2224Y88D01*
X2052Y87D02*
X2061Y87D01*
X2089Y87D02*
X2098Y87D01*
X2128Y87D02*
X2142Y87D01*
X2215Y87D02*
X2224Y87D01*
X2052Y86D02*
X2061Y86D01*
X2091Y86D02*
X2097Y86D01*
X2127Y86D02*
X2141Y86D01*
X2215Y86D02*
X2224Y86D01*
X2052Y85D02*
X2061Y85D01*
X2092Y85D02*
X2096Y85D01*
X2126Y85D02*
X2140Y85D01*
X2215Y85D02*
X2224Y85D01*
X2052Y84D02*
X2062Y84D01*
X2125Y84D02*
X2139Y84D01*
X2215Y84D02*
X2224Y84D01*
X2052Y83D02*
X2063Y83D01*
X2125Y83D02*
X2138Y83D01*
X2215Y83D02*
X2224Y83D01*
X2053Y82D02*
X2065Y82D01*
X2124Y82D02*
X2136Y82D01*
X2215Y82D02*
X2224Y82D01*
X2053Y81D02*
X2067Y81D01*
X2124Y81D02*
X2135Y81D01*
X2215Y81D02*
X2224Y81D01*
X2053Y80D02*
X2070Y80D01*
X2124Y80D02*
X2134Y80D01*
X2215Y80D02*
X2224Y80D01*
X2054Y79D02*
X2072Y79D01*
X2123Y79D02*
X2133Y79D01*
X2215Y79D02*
X2224Y79D01*
X2055Y78D02*
X2074Y78D01*
X2123Y78D02*
X2132Y78D01*
X2215Y78D02*
X2224Y78D01*
X2055Y77D02*
X2077Y77D01*
X2123Y77D02*
X2132Y77D01*
X2215Y77D02*
X2224Y77D01*
X2056Y76D02*
X2079Y76D01*
X2123Y76D02*
X2132Y76D01*
X2215Y76D02*
X2224Y76D01*
X2058Y75D02*
X2081Y75D01*
X2123Y75D02*
X2132Y75D01*
X2215Y75D02*
X2224Y75D01*
X2059Y74D02*
X2084Y74D01*
X2123Y74D02*
X2132Y74D01*
X2215Y74D02*
X2224Y74D01*
X2062Y73D02*
X2086Y73D01*
X2123Y73D02*
X2132Y73D01*
X2215Y73D02*
X2224Y73D01*
X2064Y72D02*
X2088Y72D01*
X2123Y72D02*
X2132Y72D01*
X2215Y72D02*
X2224Y72D01*
X2066Y71D02*
X2091Y71D01*
X2123Y71D02*
X2132Y71D01*
X2215Y71D02*
X2224Y71D01*
X2069Y70D02*
X2092Y70D01*
X2123Y70D02*
X2132Y70D01*
X2215Y70D02*
X2224Y70D01*
X2071Y69D02*
X2094Y69D01*
X2123Y69D02*
X2132Y69D01*
X2215Y69D02*
X2224Y69D01*
X2073Y68D02*
X2095Y68D01*
X2123Y68D02*
X2132Y68D01*
X2215Y68D02*
X2224Y68D01*
X2076Y67D02*
X2096Y67D01*
X2123Y67D02*
X2132Y67D01*
X2215Y67D02*
X2224Y67D01*
X2078Y66D02*
X2096Y66D01*
X2123Y66D02*
X2132Y66D01*
X2215Y66D02*
X2224Y66D01*
X2080Y65D02*
X2097Y65D01*
X2123Y65D02*
X2132Y65D01*
X2215Y65D02*
X2224Y65D01*
X2082Y64D02*
X2098Y64D01*
X2123Y64D02*
X2132Y64D01*
X2215Y64D02*
X2224Y64D01*
X2085Y63D02*
X2098Y63D01*
X2123Y63D02*
X2132Y63D01*
X2215Y63D02*
X2224Y63D01*
X2087Y62D02*
X2099Y62D01*
X2123Y62D02*
X2133Y62D01*
X2215Y62D02*
X2224Y62D01*
X2089Y61D02*
X2099Y61D01*
X2123Y61D02*
X2133Y61D01*
X2215Y61D02*
X2224Y61D01*
X2089Y60D02*
X2099Y60D01*
X2124Y60D02*
X2134Y60D01*
X2215Y60D02*
X2224Y60D01*
X2090Y59D02*
X2099Y59D01*
X2124Y59D02*
X2135Y59D01*
X2215Y59D02*
X2224Y59D01*
X2090Y58D02*
X2099Y58D01*
X2124Y58D02*
X2137Y58D01*
X2215Y58D02*
X2224Y58D01*
X2090Y57D02*
X2099Y57D01*
X2125Y57D02*
X2138Y57D01*
X2215Y57D02*
X2224Y57D01*
X2090Y56D02*
X2099Y56D01*
X2125Y56D02*
X2139Y56D01*
X2215Y56D02*
X2224Y56D01*
X2053Y55D02*
X2058Y55D01*
X2090Y55D02*
X2099Y55D01*
X2126Y55D02*
X2140Y55D01*
X2215Y55D02*
X2224Y55D01*
X2052Y54D02*
X2059Y54D01*
X2089Y54D02*
X2099Y54D01*
X2127Y54D02*
X2141Y54D01*
X2215Y54D02*
X2224Y54D01*
X2051Y53D02*
X2061Y53D01*
X2088Y53D02*
X2099Y53D01*
X2128Y53D02*
X2143Y53D01*
X2215Y53D02*
X2224Y53D01*
X2051Y52D02*
X2063Y52D01*
X2086Y52D02*
X2099Y52D01*
X2129Y52D02*
X2145Y52D01*
X2215Y52D02*
X2224Y52D01*
X2051Y51D02*
X2098Y51D01*
X2130Y51D02*
X2169Y51D01*
X2203Y51D02*
X2237Y51D01*
X2051Y50D02*
X2098Y50D01*
X2131Y50D02*
X2171Y50D01*
X2202Y50D02*
X2238Y50D01*
X2051Y49D02*
X2097Y49D01*
X2133Y49D02*
X2171Y49D01*
X2201Y49D02*
X2239Y49D01*
X2052Y48D02*
X2096Y48D01*
X2134Y48D02*
X2172Y48D01*
X2200Y48D02*
X2239Y48D01*
X2053Y47D02*
X2096Y47D01*
X2135Y47D02*
X2172Y47D01*
X2200Y47D02*
X2239Y47D01*
X2054Y46D02*
X2095Y46D01*
X2136Y46D02*
X2172Y46D01*
X2200Y46D02*
X2239Y46D01*
X2055Y45D02*
X2093Y45D01*
X2137Y45D02*
X2171Y45D01*
X2201Y45D02*
X2239Y45D01*
X2057Y44D02*
X2092Y44D01*
X2139Y44D02*
X2171Y44D01*
X2201Y44D02*
X2238Y44D01*
X2059Y43D02*
X2090Y43D01*
X2141Y43D02*
X2170Y43D01*
X2202Y43D02*
X2237Y43D01*
X2063Y42D02*
X2087Y42D01*
X2144Y42D02*
X2168Y42D01*
X2204Y42D02*
X2235Y42D01*
D02*
G04 End of Copper1*
M02*